<?xml version="1.0" encoding="utf-8"?>
<!-- Generator: Adobe Illustrator 25.0.0, SVG Export Plug-In . SVG Version: 6.00 Build 0)  -->
<svg version="1.1" id="Capa_1" xmlns="http://www.w3.org/2000/svg" xmlns:xlink="http://www.w3.org/1999/xlink" x="0px" y="0px"
	 viewBox="0 0 512 512" style="enable-background:new 0 0 512 512;" xml:space="preserve">
<style type="text/css">
	.st0{fill:#92278F;}
</style>
<g>
	<path class="st0" d="M164.2,156.5c9.4-2.9,19.2-1.9,27.8,2.8c1.1,0.6,2.4,0.9,3.6,0.9c2.6,0,5.2-1.4,6.6-3.9c2-3.6,0.7-8.2-3-10.2
		c-12.2-6.7-26.2-8.1-39.5-4c-4,1.2-6.2,5.4-5,9.4C156,155.5,160.2,157.7,164.2,156.5L164.2,156.5z"/>
	<path class="st0" d="M118.4,156.5c4,1.2,8.2-1,9.4-5c1.2-4-1-8.2-5-9.4c-13.3-4.1-27.3-2.7-39.5,4c-3.6,2-4.9,6.6-3,10.2
		c1.4,2.5,3.9,3.9,6.6,3.9c1.2,0,2.5-0.3,3.6-0.9C99.2,154.6,109,153.6,118.4,156.5L118.4,156.5z"/>
	<path class="st0" d="M177.4,171.6c-4.1,0-7.5,3.4-7.5,7.5v1c0,4.1,3.4,7.5,7.5,7.5s7.5-3.4,7.5-7.5v-1
		C184.9,175,181.5,171.6,177.4,171.6z"/>
	<path class="st0" d="M112.7,179.1c0-4.1-3.4-7.5-7.5-7.5s-7.5,3.4-7.5,7.5v1c0,4.1,3.4,7.5,7.5,7.5s7.5-3.4,7.5-7.5V179.1z"/>
	<path class="st0" d="M116.6,232.9c8.2,2.4,16.5,3.5,24.7,3.5c8.3,0,16.5-1.2,24.7-3.5c4-1.1,6.3-5.3,5.1-9.3
		c-1.1-4-5.3-6.3-9.3-5.1c-13.7,3.9-27.5,3.9-41.2,0c-4-1.1-8.1,1.2-9.3,5.1C110.3,227.6,112.6,231.8,116.6,232.9L116.6,232.9z"/>
	<path class="st0" d="M290.2,365.8c0-5.6-2.6-10.8-7.1-14.1c-2.8-2.1-6-3.2-9.3-3.4c-7.5-22.6-28.9-38.3-53.2-38.3h-46.1v-24.5
		c31.7-1.5,57.6-25.2,62.7-55.8h8.3c20.4,0,37-16.6,37-37v-10.5c0-10.5-4.4-20.1-11.5-26.8c5.2-20.1,12.4-59.4-3-80
		c-5.9-7.9-14.6-12.3-25.2-12.8c-1.6-4.6-3.9-9.1-6.8-13.4c-2.3-3.4-7-4.3-10.4-2c-3.4,2.3-4.3,7-2,10.4c2.4,3.5,4.2,7.2,5.4,10.9
		c1.7,5.4,6.7,9,12.4,9.1c6.6,0.1,11.3,2.2,14.7,6.8c7.9,10.6,8.4,34.2,1.6,62.9c-3.8-1.3-7.9-2-12.1-2h-7.4v-23
		c0-13.4-7.4-25.8-19.2-32.2c-5.3-2.9-11.6-2.8-17,0.2c-21,11.6-50.3,17.1-80.4,15.1c-17.5-1.1-34.7-4.8-49.7-10.5
		c-7.6-2.9-16.1-0.3-20.7,6.3c-4.4,6.2-6.7,13.5-6.7,21.1v23H37c-4.2,0-8.3,0.7-12.1,2c-5.6-23.3-6.4-43.3-2-55.8
		c1.1-3,1-6.4-0.2-9.3c-2-5-2.9-10.1-2.6-15.1c1-14.8,12.3-28.4,31.9-38.2c20.9-10.5,48.3-15.2,77.1-13.4c26.6,1.7,51.7,9,70.7,20.6
		c3.5,2.2,8.2,1,10.3-2.5c2.2-3.5,1-8.2-2.5-10.3c-21-12.8-48.5-20.9-77.5-22.8c-31.4-2-61.5,3.3-84.8,14.9
		C20.7,27.6,6.5,45.6,5.2,66c-0.4,7.1,0.7,14.1,3.4,21c-7,21.1-1.7,50.1,3,68.3C4.4,162.1,0,171.6,0,182.1v10.5
		c0,20.4,16.6,37,37,37h8.3c5.1,30.6,31,54.3,62.7,55.8v24.5H62C31,309.9,5.9,335.1,5.9,366v133.5c0,6.9,5.6,12.5,12.5,12.5h245.8
		c6.9,0,12.5-5.6,12.5-12.5v-37.7c0-4.1-3.4-7.5-7.5-7.5s-7.5,3.4-7.5,7.5V497h-35.3v-87.7l35.3-10.6v28.1c0,4.1,3.4,7.5,7.5,7.5
		s7.5-3.4,7.5-7.5v-32.7c0.1-0.1,13.5-3.1,13.5-17.1L290.2,365.8z M123,312v-26.5h36.5V312c0,5.5,3.5,10.2,8.4,12.1
		c-7.9,4.8-17.1,7.5-26.6,7.5s-18.7-2.6-26.6-7.5C119.6,322.2,123,317.5,123,312z M245.5,160.1c12.1,0,22,9.9,22,22v10.5
		c0,12.1-9.9,22-22,22h-7.4v-54.5H245.5z M15,192.6v-10.5c0-12.1,9.9-22,22-22h7.4v54.5H37C24.9,214.6,15,204.7,15,192.6z
		 M59.4,218.7c0-10.1,0-85.2,0-96.5c0-4.5,1.4-8.8,3.9-12.4c0.7-1,2-1.4,3.1-0.9c16.4,6.2,35.1,10.2,54.1,11.4
		c33.4,2.2,64.9-3.9,88.7-17c0.9-0.5,1.8-0.5,2.6-0.1c7,3.8,11.3,11.1,11.3,19v96.5c0,28.6-23.3,51.9-51.9,51.9c-24.6,0-33,0-60,0
		C82.7,270.5,59.4,247.3,59.4,218.7L59.4,218.7z M20.9,449.2h35.3V497H20.9V449.2z M71.1,497V393.3c0-4.1-3.4-7.5-7.5-7.5
		s-7.5,3.4-7.5,7.5v40.9H20.9V366c0-22.7,18.4-41.1,41.1-41.1h30.4c12.5,13.8,30.1,21.6,48.9,21.6s36.4-7.8,48.9-21.6h30.4
		c17.3,0,32.6,10.9,38.5,26.6l-42.3,12.8c-3.2,1-5.3,3.9-5.3,7.2V497L71.1,497L71.1,497z M226.4,377.1l45.5-13.7
		c1.7-0.5,3.3,0.7,3.3,2.5V377c0,1.1-0.7,2.1-1.8,2.5l-47,14.2L226.4,377.1L226.4,377.1z"/>
	<path class="st0" d="M505.3,245.5L469.9,210c-8.9-8.9-23.3-8.9-32.1,0c-8.9,8.9-8.9,23.3,0,32.1l12.4,12.4l-13.9,13.9l-29.8-29.8
		c-5.7-5.7-15-5.7-20.7,0l-13.1,13.1c-5.7,5.7-5.7,15,0,20.7l5.4,5.4l-44.3,44.3c-14.5,14.5-16.1,37.2-4.8,53.5l-36.6,36.6
		c-2.9,2.9-2.9,7.7,0,10.6c2.9,2.9,7.7,2.9,10.6,0l36.6-36.6c16.2,11.2,38.8,9.9,53.5-4.8l44.3-44.3l5.4,5.4
		c5.7,5.7,14.9,5.7,20.7,0l13.1-13.1c5.7-5.7,5.7-15,0-20.7l-29.8-29.8l13.9-13.9l12.4,12.4c4.4,4.4,10.3,6.6,16.1,6.6
		s11.6-2.2,16.1-6.6C514.2,268.8,514.2,254.3,505.3,245.5L505.3,245.5z M382.5,370.9c-10.5,10.5-27.6,10.5-38.1,0
		c-10.5-10.5-10.5-27.6,0-38.1l15-15l38.1,38.1L382.5,370.9z M408.1,345.3L370,307.2l18.7-18.7l38.1,38.1L408.1,345.3z M453.2,331.8
		l-69.6-69.6l12.6-12.6l69.6,69.6L453.2,331.8z M494.7,267c-3,3-7.9,3-10.9,0c-35.5-36-37.7-35.3-37.7-40.9c0-2.1,0.8-4,2.3-5.5
		c3-3,7.9-3,10.9,0l35.5,35.5C497.8,259.1,497.8,264,494.7,267z"/>
</g>
</svg>
