<svg id="Layer_1" data-name="Layer 1" xmlns="http://www.w3.org/2000/svg" width="512" height="512" viewBox="0 0 512 512"><defs><style>.cls-1{fill:#262262;}</style></defs><path class="cls-1" d="M476,223.2A219.9,219.9,0,0,0,256,10.9c-118.8,0-215.9,94.5-220,212.3A51.8,51.8,0,0,0,5.1,270.5v58.1a51.9,51.9,0,0,0,51.8,51.8,33.6,33.6,0,0,0,33.5-33.5V252.2a33.4,33.4,0,0,0-30.2-33.1C66.4,116.5,151.8,34.9,256,34.9A196.1,196.1,0,0,1,451.8,219.1a33.4,33.4,0,0,0-30.2,33.1v94.7A33.3,33.3,0,0,0,452.2,380v24a48.9,48.9,0,0,1-48.8,48.8H367.2a34.9,34.9,0,0,0-8.4-13.7,36.4,36.4,0,0,0-25.7-10.6H295.8a35.8,35.8,0,0,0-15.2,3.3,36.5,36.5,0,0,0-21.1,33,36.5,36.5,0,0,0,36.3,36.3h37.3a36.5,36.5,0,0,0,34.2-24.3h36.1A72.9,72.9,0,0,0,476.2,404V375.8a51.7,51.7,0,0,0,30.7-47.2V270.5A51.8,51.8,0,0,0,476,223.2Zm-409.6,29v94.7a9.5,9.5,0,0,1-9.5,9.4,27.8,27.8,0,0,1-27.8-27.7V270.5a27.8,27.8,0,0,1,27.8-27.7,9.5,9.5,0,0,1,9.5,9.4ZM345.1,467.4a12.2,12.2,0,0,1-12,9.7H295.8a12.4,12.4,0,0,1-8.7-3.6,12.3,12.3,0,0,1,3.6-19.9,12.6,12.6,0,0,1,5.1-1.1h37.3a12.3,12.3,0,0,1,12.3,12.3,10.9,10.9,0,0,1-.3,2.6ZM482.9,328.6a27.8,27.8,0,0,1-27.8,27.7,9.5,9.5,0,0,1-9.5-9.4V252.2a9.5,9.5,0,0,1,9.5-9.4,27.8,27.8,0,0,1,27.8,27.7Z"/><path class="cls-1" d="M333.7,332.7a51,51,0,0,0,50.9-50.8V178.3a51,51,0,0,0-50.9-50.9H178.3a51,51,0,0,0-50.9,50.9V281.9a51,51,0,0,0,50.9,50.8h.9v26.9a24.9,24.9,0,0,0,15.6,23.1,23.5,23.5,0,0,0,9.3,1.9,24.5,24.5,0,0,0,17.6-7.4l44.7-44.5ZM253,312.2l-48.4,48.1c-.2.2-.3.4-.8.2a.8.8,0,0,1-.5-.9V320.7a12,12,0,0,0-12-12h-13a26.8,26.8,0,0,1-26.8-26.8V178.3a26.9,26.9,0,0,1,26.8-26.9H333.7a27,27,0,0,1,26.9,26.9V281.9a26.9,26.9,0,0,1-26.9,26.8H261.4a12.1,12.1,0,0,0-8.4,3.5Z"/><path class="cls-1" d="M197.7,214.3A17.7,17.7,0,1,0,215.4,232,17.7,17.7,0,0,0,197.7,214.3Z"/><path class="cls-1" d="M256,214.3A17.7,17.7,0,1,0,273.7,232,17.7,17.7,0,0,0,256,214.3Z"/><path class="cls-1" d="M314.3,214.3A17.7,17.7,0,1,0,332,232,17.7,17.7,0,0,0,314.3,214.3Z"/></svg>