<?xml version="1.0" encoding="utf-8"?>
<!-- Generator: Adobe Illustrator 27.5.0, SVG Export Plug-In . SVG Version: 6.00 Build 0)  -->
<svg version="1.1" xmlns="http://www.w3.org/2000/svg" xmlns:xlink="http://www.w3.org/1999/xlink" x="0px" y="0px"
	 viewBox="0 0 750 500" style="enable-background:new 0 0 750 500;" xml:space="preserve">
<g id="BACKGROUND">
	<rect y="0" style="fill:#FFFFFF;" width="750" height="500"/>
</g>
<g id="OBJECTS">
	<g>
		<g>
			<linearGradient id="SVGID_1_" gradientUnits="userSpaceOnUse" x1="379.3521" y1="433.9998" x2="379.3521" y2="87.9941">
				<stop  offset="0" style="stop-color:#18288E"/>
				<stop  offset="1" style="stop-color:#79D3FD"/>
			</linearGradient>
			<path style="fill:url(#SVGID_1_);" d="M75.814,425.696c-10.858-57.689,1.308-97.207,36.326-126.887
				c25.488-21.603,78.088-39.396,96.301-70.402c7.841-13.348,12.176-29.296,17.67-44.359C249.736,119.28,282.4,71.5,358.887,69.765
				c52.814-1.198,83.786,23.147,112.613,54.949c20.74,22.88,30.008,54.286,55.994,66.205c26.076,11.96,77.989,24.188,102.234,42.971
				C717,301.5,682,395.743,667.094,425.468"/>
		</g>
		<g>
			
				<linearGradient id="SVGID_00000179648058349451608410000014777427581951175562_" gradientUnits="userSpaceOnUse" x1="405.7961" y1="396.8569" x2="405.7961" y2="127.9129">
				<stop  offset="0" style="stop-color:#7995FD"/>
				<stop  offset="1" style="stop-color:#54DEFF"/>
			</linearGradient>
			<path style="fill:url(#SVGID_00000179648058349451608410000014777427581951175562_);" d="M466.484,399.684H345.108
				c-9.658,0-17.488-7.83-17.488-17.488V120.181c0-9.659,7.83-17.488,17.488-17.488h121.375c9.658,0,17.488,7.83,17.488,17.488
				v262.015C483.972,391.854,476.142,399.684,466.484,399.684z"/>
			
				<linearGradient id="SVGID_00000178171713455513993640000005641716321232532650_" gradientUnits="userSpaceOnUse" x1="405.7961" y1="115.5" x2="405.7961" y2="362.0249">
				<stop  offset="0" style="stop-color:#F9DD68"/>
				<stop  offset="1" style="stop-color:#F9A942"/>
			</linearGradient>
			<path style="fill:url(#SVGID_00000178171713455513993640000005641716321232532650_);" d="M465.306,395.743h-119.02
				c-8.025,0-14.531-6.506-14.531-14.531V121.335c0-8.025,6.506-14.531,14.531-14.531h119.02c8.025,0,14.531,6.506,14.531,14.531
				v259.877C479.837,389.237,473.331,395.743,465.306,395.743z"/>
		</g>
		<g>
			<path style="fill:#FFFFFF;" d="M374.287,271.478l1.286,2.605c0.081,0.165,0.238,0.279,0.42,0.305l2.875,0.418
				c0.458,0.067,0.641,0.629,0.309,0.952l-2.08,2.028c-0.132,0.128-0.192,0.313-0.161,0.494l0.491,2.863
				c0.078,0.456-0.401,0.804-0.81,0.589l-2.572-1.352c-0.163-0.085-0.357-0.085-0.52,0l-2.572,1.352
				c-0.41,0.215-0.888-0.132-0.81-0.589l0.491-2.863c0.031-0.181-0.029-0.366-0.161-0.494l-2.08-2.028
				c-0.331-0.323-0.149-0.886,0.309-0.952l2.875-0.418c0.182-0.026,0.339-0.141,0.421-0.305l1.286-2.605
				C373.49,271.064,374.082,271.064,374.287,271.478z"/>
			<path style="fill:#FFFFFF;" d="M390.292,271.478l1.286,2.605c0.081,0.165,0.238,0.279,0.42,0.305l2.875,0.418
				c0.458,0.067,0.641,0.629,0.31,0.952l-2.08,2.028c-0.132,0.128-0.192,0.313-0.161,0.494l0.491,2.863
				c0.078,0.456-0.401,0.804-0.81,0.589l-2.572-1.352c-0.163-0.085-0.357-0.085-0.52,0l-2.572,1.352
				c-0.41,0.215-0.888-0.132-0.81-0.589l0.491-2.863c0.031-0.181-0.029-0.366-0.161-0.494l-2.08-2.028
				c-0.331-0.323-0.149-0.886,0.309-0.952l2.875-0.418c0.182-0.026,0.339-0.141,0.421-0.305l1.286-2.605
				C389.495,271.064,390.087,271.064,390.292,271.478z"/>
			<path style="fill:#FFFFFF;" d="M406.297,271.478l1.286,2.605c0.081,0.165,0.239,0.279,0.421,0.305l2.875,0.418
				c0.458,0.067,0.641,0.629,0.309,0.952l-2.08,2.028c-0.132,0.128-0.192,0.313-0.161,0.494l0.491,2.863
				c0.078,0.456-0.401,0.804-0.81,0.589l-2.572-1.352c-0.163-0.085-0.357-0.085-0.52,0l-2.572,1.352
				c-0.41,0.215-0.888-0.132-0.81-0.589l0.491-2.863c0.031-0.181-0.029-0.366-0.161-0.494l-2.08-2.028
				c-0.331-0.323-0.149-0.886,0.309-0.952l2.875-0.418c0.182-0.026,0.339-0.141,0.421-0.305l1.286-2.605
				C405.5,271.064,406.092,271.064,406.297,271.478z"/>
			<path style="fill:#FFFFFF;" d="M422.302,271.478l1.286,2.605c0.081,0.165,0.239,0.279,0.421,0.305l2.875,0.418
				c0.458,0.067,0.641,0.629,0.309,0.952l-2.08,2.028c-0.132,0.128-0.192,0.313-0.161,0.494l0.491,2.863
				c0.078,0.456-0.401,0.804-0.81,0.589l-2.572-1.352c-0.163-0.085-0.357-0.085-0.52,0l-2.572,1.352
				c-0.41,0.215-0.888-0.132-0.81-0.589l0.491-2.863c0.031-0.181-0.029-0.366-0.161-0.494l-2.08-2.028
				c-0.331-0.323-0.149-0.886,0.309-0.952l2.875-0.418c0.182-0.026,0.339-0.141,0.421-0.305l1.286-2.605
				C421.505,271.064,422.097,271.064,422.302,271.478z"/>
			<path style="fill:#FFFFFF;" d="M438.307,271.478l1.286,2.605c0.081,0.165,0.239,0.279,0.42,0.305l2.875,0.418
				c0.458,0.067,0.641,0.629,0.31,0.952l-2.08,2.028c-0.132,0.128-0.192,0.313-0.161,0.494l0.491,2.863
				c0.078,0.456-0.401,0.804-0.81,0.589l-2.572-1.352c-0.163-0.085-0.357-0.085-0.52,0l-2.572,1.352
				c-0.41,0.215-0.888-0.132-0.81-0.589l0.491-2.863c0.031-0.181-0.029-0.366-0.161-0.494l-2.08-2.028
				c-0.331-0.323-0.149-0.886,0.309-0.952l2.875-0.418c0.182-0.026,0.339-0.141,0.421-0.305l1.286-2.605
				C437.51,271.064,438.102,271.064,438.307,271.478z"/>
		</g>
		<g>
			<circle style="fill:#FFFFFF;" cx="408.793" cy="178.775" r="49.683"/>
			<g>
				<defs>
					<circle id="SVGID_00000155857814218332354670000015307407834450149295_" cx="408.793" cy="178.775" r="49.683"/>
				</defs>
				<clipPath id="SVGID_00000177456373767288140650000011729445779208190887_">
					<use xlink:href="#SVGID_00000155857814218332354670000015307407834450149295_"  style="overflow:visible;"/>
				</clipPath>
				<g style="clip-path:url(#SVGID_00000177456373767288140650000011729445779208190887_);">
					<path id="XMLID_209_" style="fill:#EFCDAF;" d="M417.262,184.268c-0.949-2.196-1.345-4.029-1.481-5.41
						c-0.077-0.763-0.073-1.386-0.044-1.862c0.044-0.711,0.15-1.085,0.15-1.085l-0.375,0.1c0.007-0.06,0.012-0.1,0.012-0.1
						l-6.69,1.871l-6.69-1.871c0,0,0.005,0.039,0.012,0.1l-0.375-0.1c0,0,0.106,0.374,0.15,1.085c0.029,0.476,0.033,1.1-0.044,1.862
						c-0.135,1.382-0.531,3.215-1.481,5.41c0,0-0.62,1.587-4.927,2.137c0,0,0.317,1.155,1.092,2.755
						c0.091,0.188,0.189,0.383,0.293,0.582c0.26,0.499,0.562,1.029,0.908,1.572c0.554,0.869,1.223,1.772,2.021,2.635
						c0.795,2.262,2.551,4.16,4.582,4.476c1.013,0.158,1.971,0.227,2.878,0.223c0.363-0.002,0.717-0.015,1.064-0.039
						c0.173-0.012,0.345-0.027,0.515-0.044c0.169,0.017,0.341,0.032,0.514,0.044c0.347,0.024,0.702,0.038,1.065,0.039
						c0.907,0.004,1.866-0.065,2.878-0.223c2.031-0.315,3.787-2.214,4.582-4.476c0.798-0.863,1.467-1.766,2.021-2.635
						c0.346-0.543,0.648-1.073,0.908-1.572c0.208-0.399,0.39-0.778,0.548-1.127c0.591-1.311,0.753-1.932,0.753-1.932
						C417.797,186.133,417.262,184.268,417.262,184.268z"/>
					
						<linearGradient id="XMLID_00000172431600385467698660000013960925102360880824_" gradientUnits="userSpaceOnUse" x1="409.5913" y1="188.875" x2="409.5913" y2="227.1269">
						<stop  offset="0" style="stop-color:#7995FD"/>
						<stop  offset="1" style="stop-color:#54DEFF"/>
					</linearGradient>
					<path id="XMLID_208_" style="fill:url(#XMLID_00000172431600385467698660000013960925102360880824_);" d="M445.517,220.539
						l-12.101-12.101l-1.034,32.677c-7.124,3.407-15.1,5.317-23.521,5.317c-8.469,0-16.493-1.929-23.648-5.372l-0.134-4.259
						l-0.9-28.363l-1.594,1.594h-8.919c1.862-8.578,4.408-16.399,12.943-20.907c3.103-1.637,9.038-3.051,10.486-3.143
						c0.274-0.012,0.523,0.134,0.633,0.383c0.207,0.468,0.602,1.308,1.192,2.324c0.085,0.061,0.146,0.158,0.158,0.268
						c1.552,2.629,4.322,6.283,8.357,7.957c0.905,0.375,1.935,0.375,2.84,0c4.034-1.673,6.799-5.328,8.357-7.957
						c0.012-0.109,0.073-0.207,0.158-0.268c0.59-1.016,0.986-1.856,1.193-2.324c0.109-0.249,0.359-0.395,0.626-0.383
						c1.828,0.641,6.657,1.945,10.054,3.332C442.843,195.752,444.671,209.795,445.517,220.539z"/>
					<path id="XMLID_204_" style="fill:#CC6362;" d="M415.782,178.857c-0.077-0.763-0.055-1.386-0.026-1.862l-0.279-0.535
						l-6.633,1.768l-6.633-1.768l-0.279,0.535c0.029,0.476,0.033,1.1-0.044,1.862c0.9,1.46,3.116,4.249,6.947,4.259v0.001
						c0.003,0,0.006,0,0.009,0c0.003,0,0.006,0,0.009,0v-0.001C412.684,183.107,414.881,180.318,415.782,178.857z"/>
					<g id="XMLID_180_">
						<g>
							<path id="XMLID_13_" style="fill:#EFCDAF;" d="M396.792,163.339c0,0,0.753,2.524,1.37,5.811
								c0.341,1.816,0.079,2.723-1.528,2.474c-1.246-0.193-4.419-3.931-3.337-7.141
								C393.552,163.732,394.883,162.405,396.792,163.339z"/>
						</g>
					</g>
					<g id="XMLID_163_">
						<g>
							<path id="XMLID_12_" style="fill:#EFCDAF;" d="M421.134,171.625c-0.077,0.011-0.147,0.018-0.216,0.026
								c-1.411,0.136-1.639-0.77-1.312-2.5c0.044-0.235,0.088-0.462,0.132-0.689c0.59-2.943,1.239-5.121,1.239-5.121
								c1.91-0.935,3.24,0.392,3.493,1.144C425.554,167.692,422.38,171.431,421.134,171.625z"/>
						</g>
					</g>
					<path id="XMLID_162_" style="opacity:0.5;fill:#CC6362;" d="M420.917,171.651c-1.411,0.136-1.639-0.77-1.312-2.5
						c0.044-0.235,0.088-0.462,0.132-0.689l0.286,0.117C420.023,168.579,420.038,171.574,420.917,171.651z"/>
					<path id="XMLID_161_" style="opacity:0.5;fill:#CC6362;" d="M396.851,171.651c1.411,0.136,1.638-0.77,1.312-2.5
						c-0.044-0.235-0.088-0.462-0.132-0.689l-0.286,0.117C397.745,168.579,397.73,171.574,396.851,171.651z"/>
					<path id="XMLID_160_" style="fill:#EFCDAF;" d="M408.854,155.035h-14.22c0,0,1.211,4.116,2.044,8.763
						c1.388,7.744,1.714,17.671,12.176,17.671c10.569,0,10.795-9.903,12.169-17.659c0.814-4.593,2.051-8.775,2.051-8.775H408.854z"
						/>
					
						<linearGradient id="XMLID_00000086660322339900456640000012966942277272310152_" gradientUnits="userSpaceOnUse" x1="420.9974" y1="163.3333" x2="420.9974" y2="149.4915">
						<stop  offset="0" style="stop-color:#00004F"/>
						<stop  offset="1" style="stop-color:#000079"/>
					</linearGradient>
					<path id="XMLID_159_" style="fill:url(#XMLID_00000086660322339900456640000012966942277272310152_);" d="M423.731,151.563
						c-1.761-5.224-5.869,4.057-5.869,4.057c1.584,0.642,3.162,8.19,3.162,8.19l1.129-0.691l-0.001-0.005l0.003,0.007
						C422.154,163.121,425.205,155.938,423.731,151.563z"/>
					<path id="XMLID_1_" style="fill:#FFC1CD;" d="M380.461,228.495c2.028-3.752,4.259-10.444,4.259-10.444l-13.283-4.955
						c-5.374,11.058-7.109,20.24-7.109,20.24L380.461,228.495z"/>
					<path id="XMLID_11_" style="fill:#FFC1CD;" d="M436.89,225.786c-2.028-3.752-5.349-10.732-5.349-10.732l13.589-6.086
						c3.301,11.003,7.893,21.66,7.893,21.66L436.89,225.786"/>
					
						<linearGradient id="XMLID_00000125586522492310019900000008678639384068701106_" gradientUnits="userSpaceOnUse" x1="379.8909" y1="188.875" x2="379.8909" y2="227.1266">
						<stop  offset="0" style="stop-color:#7995FD"/>
						<stop  offset="1" style="stop-color:#54DEFF"/>
					</linearGradient>
					<path id="XMLID_130_" style="fill:url(#XMLID_00000125586522492310019900000008678639384068701106_);" d="M391.419,187.279
						c0,0-9.586,2.903-12.626,6.545c-3.37,4.038-5.686,11.308-10.431,24.012c0,0,10.595,5.11,16.325,5.305L391.419,187.279z"/>
					
						<linearGradient id="XMLID_00000082326453577052178930000004932907949960096948_" gradientUnits="userSpaceOnUse" x1="436.648" y1="188.875" x2="436.648" y2="227.1269">
						<stop  offset="0" style="stop-color:#7995FD"/>
						<stop  offset="1" style="stop-color:#54DEFF"/>
					</linearGradient>
					<path id="XMLID_129_" style="fill:url(#XMLID_00000082326453577052178930000004932907949960096948_);" d="M423.947,187.029
						c0,0,12.357,3.052,14.727,6.281c2.919,3.979,6.899,11.433,10.675,24.526c0,0-10.668,5.092-16.398,5.286L423.947,187.029z"/>
					
						<linearGradient id="XMLID_00000050649818827378332770000001683459847301399999_" gradientUnits="userSpaceOnUse" x1="411.1429" y1="163.3333" x2="411.1429" y2="149.5">
						<stop  offset="0" style="stop-color:#00004F"/>
						<stop  offset="1" style="stop-color:#000079"/>
					</linearGradient>
					<path id="XMLID_121_" style="fill:url(#XMLID_00000050649818827378332770000001683459847301399999_);" d="M396.961,148.049
						c0,0-1.902-3.799,2.182-6.049c6.703-3.694,24.925,1.643,27.041,5.105c2.717,4.444-2.593,11.445-11.106,11.217
						c-8.513-0.228-12.559-3.891-15.86-2.516c-3.301,1.375-3.832-4.785-3.832-4.785L396.961,148.049z"/>
					
						<linearGradient id="XMLID_00000039104783437813095780000004101690683182401461_" gradientUnits="userSpaceOnUse" x1="396.3872" y1="163.3334" x2="396.3872" y2="149.5">
						<stop  offset="0" style="stop-color:#00004F"/>
						<stop  offset="1" style="stop-color:#000079"/>
					</linearGradient>
					<path id="XMLID_120_" style="fill:url(#XMLID_00000039104783437813095780000004101690683182401461_);" d="M399.104,155.415
						l-2.143-7.366c0,0-4.019-1.334-4.027,3.493c-0.004,2.535,0.406,3.051,1.006,4.803c0.202,3.468,1.609,6.762,1.609,6.762
						l1.129,0.691c0,0,1.578-7.548,3.162-8.19L399.104,155.415z"/>
					
						<linearGradient id="XMLID_00000060021324478114809870000000510599639926265743_" gradientUnits="userSpaceOnUse" x1="432.1963" y1="204" x2="432.1963" y2="229.072">
						<stop  offset="0" style="stop-color:#D1D3D4"/>
						<stop  offset="1" style="stop-color:#A7A9AC"/>
					</linearGradient>
					<path id="XMLID_117_" style="fill:url(#XMLID_00000060021324478114809870000000510599639926265743_);" d="M431.541,205.43
						c0,0,0.033,0.276,0.091,0.76c0.056,0.483,0.136,1.172,0.232,1.999c0.09,0.827,0.194,1.791,0.306,2.825
						c0.097,1.035,0.201,2.138,0.304,3.241c0.084,1.105,0.169,2.211,0.248,3.247c0.073,1.037,0.108,2.009,0.156,2.84
						c0.078,1.664,0.073,2.781,0.073,2.781s-0.055-0.273-0.151-0.751c-0.079-0.48-0.227-1.162-0.342-1.987
						c-0.114-0.825-0.276-1.785-0.394-2.82c-0.131-1.033-0.234-2.139-0.337-3.245c-0.086-1.107-0.171-2.215-0.214-3.257
						c-0.055-1.04-0.053-2.015-0.069-2.849c-0.013-0.834,0.029-1.532,0.043-2.018C431.509,205.708,431.541,205.43,431.541,205.43z"
						/>
					
						<linearGradient id="XMLID_00000088103659616088476310000009127148559266188960_" gradientUnits="userSpaceOnUse" x1="385.4137" y1="204" x2="385.4137" y2="229.072">
						<stop  offset="0" style="stop-color:#D1D3D4"/>
						<stop  offset="1" style="stop-color:#A7A9AC"/>
					</linearGradient>
					<path id="XMLID_114_" style="fill:url(#XMLID_00000088103659616088476310000009127148559266188960_);" d="M386.069,205.43
						c0,0,0.032,0.278,0.054,0.765c0.013,0.487,0.056,1.184,0.043,2.018c-0.016,0.834-0.014,1.809-0.069,2.849
						c-0.044,1.041-0.128,2.149-0.214,3.257c-0.103,1.106-0.207,2.212-0.337,3.245c-0.118,1.035-0.28,1.995-0.394,2.82
						c-0.116,0.825-0.263,1.507-0.342,1.987c-0.096,0.478-0.151,0.751-0.151,0.751s-0.005-1.116,0.073-2.781
						c0.048-0.831,0.083-1.803,0.156-2.84c0.079-1.036,0.164-2.142,0.248-3.247c0.104-1.103,0.207-2.207,0.304-3.241
						c0.112-1.033,0.217-1.998,0.306-2.825c0.096-0.827,0.176-1.517,0.232-1.999C386.036,205.706,386.069,205.43,386.069,205.43z"/>
					<path style="fill:#FFB966;" d="M384.973,233.457c0,0,0.188,11.776,0,16.903c-0.117,3.195-0.758,6.658-0.74,8.921
						c0.01,1.369,0.125,2.376,0.711,2.835c3.314,0.813,18.874,2.046,25.634,2.084c7.17,0.04,18.453-1.211,21.924-1.56
						c0.69-1.296-0.055-3.946-0.05-7.11c0.015-8.914,0.171-22.072,0.171-22.072h-19.628"/>
					<path style="fill:#FFFFFF;" d="M408.835,191.001l-3.348,2.358l0.957,3.552c0,0,0.576,0.263,2.391,0.321
						c1.815-0.058,2.39-0.321,2.39-0.321l0.957-3.552L408.835,191.001z"/>
					
						<linearGradient id="SVGID_00000026126908739917720270000017749548700313370554_" gradientUnits="userSpaceOnUse" x1="398.3371" y1="185.1325" x2="406.9205" y2="194.1325">
						<stop  offset="0" style="stop-color:#7995FD"/>
						<stop  offset="1" style="stop-color:#54DEFF"/>
					</linearGradient>
					<path style="fill:url(#SVGID_00000026126908739917720270000017749548700313370554_);" d="M397.095,185.982l3.364-1.849
						c0,0,1.845,3.773,8.376,6.868c0,0-0.842,0.667-1.571,2.823c-0.258,0.763-0.771,3.129-0.771,3.129
						S399.952,194.97,397.095,185.982z"/>
					
						<linearGradient id="SVGID_00000019680640188854878740000013453396355084009103_" gradientUnits="userSpaceOnUse" x1="419.5536" y1="185.2441" x2="410.7203" y2="194.0775">
						<stop  offset="0" style="stop-color:#7995FD"/>
						<stop  offset="1" style="stop-color:#54DEFF"/>
					</linearGradient>
					<path style="fill:url(#SVGID_00000019680640188854878740000013453396355084009103_);" d="M420.575,185.982l-3.364-1.849
						c0,0-1.844,3.773-8.376,6.868c0,0,0.842,0.667,1.571,2.823c0.258,0.763,0.77,3.129,0.77,3.129S417.718,194.97,420.575,185.982z
						"/>
					<path style="fill:#FFFFFF;" d="M410.748,196.953l-1.913-0.532l-1.913,0.532c0,0-4.532,37.637-4.329,40.944
						c0.407,6.611,4.28,12.636,5.712,14.656c0.26,0.367,0.798,0.367,1.058,0c1.432-2.02,5.305-8.045,5.712-14.656
						C415.28,234.59,410.748,196.953,410.748,196.953z"/>
				</g>
			</g>
		</g>
		<g>
			<path style="fill:#E5918F;" d="M301.081,410.678l-1.11,6.397c0,1-1.945,2.234-3.079,2.256c-2.812,0.044-5.59-2.256-5.59-2.256
				l0.696-7.262L301.081,410.678z"/>
			
				<linearGradient id="SVGID_00000031892405915082191240000009014329621605303451_" gradientUnits="userSpaceOnUse" x1="289.7924" y1="421.1425" x2="314.35" y2="421.1425">
				<stop  offset="0" style="stop-color:#00FFFF"/>
				<stop  offset="1" style="stop-color:#5793FB"/>
			</linearGradient>
			<path style="fill:url(#SVGID_00000031892405915082191240000009014329621605303451_);" d="M314.35,424.585
				c0.036-1.246-10.986-6.049-14.378-7.51c0,0-6.249-0.332-8.718-0.489c-1.68,1.694-1.628,6.854-1.23,8.204
				c0.16,0.543,0.666,0.91,1.232,0.91l17.509,0l5.12,0c0.257,0,0.466-0.209,0.466-0.466V424.585z"/>
			<path style="fill:#EFCDAF;" d="M364.068,256.918l-19.488,1.943l-2.953-8.424l-10.981,2.005c0,0,3.672,8.918,5.978,14.433
				c1.077,2.575,6.727,1.955,13.365,0.052c8.878-2.544,15.933-4.813,15.933-4.813L364.068,256.918z"/>
			
				<linearGradient id="SVGID_00000058575193884651123380000018334172532435672450_" gradientUnits="userSpaceOnUse" x1="336.5329" y1="258.3452" x2="331.2999" y2="222.8353">
				<stop  offset="0" style="stop-color:#7995FD"/>
				<stop  offset="1" style="stop-color:#54DEFF"/>
			</linearGradient>
			<path style="fill:url(#SVGID_00000058575193884651123380000018334172532435672450_);" d="M333.268,226.691
				c0,0,4.742,10.294,9.583,25.653c0,0-3.6,2.853-11.349,4.263C323.755,258.017,333.268,226.691,333.268,226.691z"/>
			<path style="fill:#E5918F;" d="M339.648,401.764l-0.323,15.311c0,1-1.945,2.234-3.079,2.256c-2.812,0.044-5.59-2.256-5.59-2.256
				l-1.067-8.118l1.201-1.573l-0.056-0.333l3.245,0.111L339.648,401.764z"/>
			
				<linearGradient id="SVGID_00000090277689156075606060000000734433906556860604_" gradientUnits="userSpaceOnUse" x1="326.8891" y1="305.4324" x2="329.6924" y2="413.0838">
				<stop  offset="0" style="stop-color:#00006C"/>
				<stop  offset="1" style="stop-color:#5793FB"/>
			</linearGradient>
			<path style="fill:url(#SVGID_00000090277689156075606060000000734433906556860604_);" d="M341.338,413.031
				c-5,0.477-16.112,0.794-16.112,0.794c-1.776-19.752-4.252-43.5-4.53-59.753c-1.901-8.46-3.479-16.629-4.674-23.296
				c-0.49-2.731-0.922-5.214-1.279-7.356c-0.897-5.322-1.37-8.601-1.37-8.601s0.156-19.639,4.191-24.305
				c3.802-4.4,17.312-4.869,20.575-2.196c1.138,0.938,1.794,20.664,1.993,23.521c0.05,0.614,0.133,2.458,0.241,5.015l0.1-0.017
				l1.411,36.032L341.338,413.031z"/>
			
				<linearGradient id="SVGID_00000074444366455652542230000016902381885373995421_" gradientUnits="userSpaceOnUse" x1="301.9925" y1="306.0808" x2="304.7958" y2="413.7321">
				<stop  offset="0" style="stop-color:#00006C"/>
				<stop  offset="1" style="stop-color:#5793FB"/>
			</linearGradient>
			<path style="fill:url(#SVGID_00000074444366455652542230000016902381885373995421_);" d="M302.18,414.27
				c-6.868-0.41-15.314-2.828-15.314-2.828c2.333-19.904,6.031-43.089,8.765-58.661c0.206-9.042-2.598-30.908-3.514-39.109
				c-2.406-5.668-4.423-20.329,0-24.629c4.169-4.055,23.945-2.577,26.964,0.368c1.052,1.033,0,20.742-0.048,23.605
				c-0.004,0.616-0.08,2.46-0.194,5.017l0.101-0.008l-1.709,36.019L302.18,414.27z"/>
			
				<linearGradient id="SVGID_00000097499130859447124400000007236034433367033992_" gradientUnits="userSpaceOnUse" x1="317.8031" y1="330.0518" x2="319.9559" y2="330.0518">
				<stop  offset="0" style="stop-color:#00006C"/>
				<stop  offset="1" style="stop-color:#3049B9"/>
			</linearGradient>
			<polygon style="opacity:0.35;fill:url(#SVGID_00000097499130859447124400000007236034433367033992_);" points="319.165,309.386 
				317.803,341.998 319.956,350.717 			"/>
			
				<linearGradient id="SVGID_00000011022561819446873960000016254509445512594072_" gradientUnits="userSpaceOnUse" x1="329.1477" y1="421.1425" x2="353.5277" y2="421.1425">
				<stop  offset="0" style="stop-color:#00FFFF"/>
				<stop  offset="1" style="stop-color:#5793FB"/>
			</linearGradient>
			<path style="fill:url(#SVGID_00000011022561819446873960000016254509445512594072_);" d="M353.528,424.585
				c0.036-1.246-9.158-5.253-14.2-7.51c0,0-6.249-0.332-8.718-0.489c-1.68,1.694-1.628,6.854-1.23,8.204
				c0.16,0.543,0.666,0.91,1.232,0.91l17.508,0l4.942,0c0.257,0,0.466-0.209,0.466-0.466V424.585z"/>
			<g>
				
					<linearGradient id="SVGID_00000057843134819219203370000003173912071177168062_" gradientUnits="userSpaceOnUse" x1="315.4037" y1="295.2018" x2="307.5542" y2="225.677">
					<stop  offset="0" style="stop-color:#7995FD"/>
					<stop  offset="1" style="stop-color:#54DEFF"/>
				</linearGradient>
				<path style="fill:url(#SVGID_00000057843134819219203370000003173912071177168062_);" d="M328.832,222.951
					c-3.02-0.964-6.407-1.879-8.514-2.057c-1.551,0.029-1.556-0.175-3.74,0.031c-2.691,0.253-6.814,0.68-11.405,1.55
					c-2.026,0.384-12.823,3.804-13.445,5.433c-0.84,2.199-3.755,64.004-2.842,64.937c2.043,2.089,38.312,3.761,51.07-0.97
					c-1.014-12.009-3.191-36.273-3.622-40.367c-1.014-9.634-1.318-19.127-2.488-23.349
					C333.161,225.688,331.273,223.731,328.832,222.951z"/>
				<path style="fill:#EFCDAF;" d="M305.173,222.475c0,0,5.889,6.37,12.7,4.389c3.099-0.915,2.445-5.969,2.445-5.969
					s-1.405-0.054-2.056-0.976c-0.139-0.19-0.397-0.924-0.68-1.826c-0.536-1.792-1.184-4.243-1.184-4.243l-2.467-0.752l-7.69-2.352
					c0,0,0.417,6.924-0.107,10.325C305.972,222.113,305.173,222.475,305.173,222.475z"/>
				<path style="fill:#E8A77D;" d="M310.554,213.468c0,0,1.674,3.612,7.027,4.625c-0.536-1.792-1.184-4.243-1.184-4.243
					l-2.467-0.752L310.554,213.468z"/>
				<path style="fill:#EFCDAF;" d="M313.473,190.341c1.371,0.284,6.093-2.437,7.165-1.028c1.072,1.409,3.831,11.025,4.488,13.004
					c0.416,1.254,2.382,9.301-0.259,12.031c-2.79,2.884-11.237,0.985-12.217,0.733c-2.548-0.656-7.416-2.977-8.203-5.269
					l-1.225-14.157L313.473,190.341z"/>
				
					<linearGradient id="SVGID_00000058574139133755303690000006848175061314424462_" gradientUnits="userSpaceOnUse" x1="318.7706" y1="209.4664" x2="305.0338" y2="183.1142">
					<stop  offset="0" style="stop-color:#000051"/>
					<stop  offset="1" style="stop-color:#30389C"/>
				</linearGradient>
				<path style="fill:url(#SVGID_00000058574139133755303690000006848175061314424462_);" d="M299.808,191.157
					c-2.551,1.222-3.933,4.023-3.521,7.605c0.352,3.06,3.401,6.983,6.275,10.255c1.423,1.62,3.165,3.138,3.788,4.213l0.878-1.427
					c0,0-3.108-4.073-1.621-6.936c1.695-2.508,3.943,0.088,5.243,1.157c0.183,0.15,0.458,0.014,0.449-0.222
					c-0.05-1.329-0.548-2.044,0.171-4.426c0.821-2.72-0.846-4.78-1.264-5.346c0,0,8.978-2.694,10.875-5.899
					c1.579-2.669,2.663-7.282,0.033-8.624c-2.595-1.324-5.726,1.136-7.943,1.879C306.407,185.651,297.747,184.748,299.808,191.157z"
					/>
				<path style="fill:#EFCDAF;" d="M310.047,205.32c0,0,0.482,0.51,0.754,2.474c0.272,1.964,0.018,3.8-1.107,4.186
					c-1.125,0.386-3.255-0.202-4.085-2.155c-0.722-1.702-1.504-4.743,0.657-5.861C308.427,202.845,310.047,205.32,310.047,205.32z"
					/>
			</g>
			<g>
				
					<linearGradient id="SVGID_00000160888328256799978750000004600402206555163836_" gradientUnits="userSpaceOnUse" x1="295.0676" y1="396.0367" x2="375.5902" y2="233.9911">
					<stop  offset="0" style="stop-color:#9B00CF"/>
					<stop  offset="1" style="stop-color:#2733FD"/>
				</linearGradient>
				<path style="fill:url(#SVGID_00000160888328256799978750000004600402206555163836_);" d="M294.565,399.379l-5.554-2.919
					c-1.958-1.029-2.712-3.451-1.682-5.41l82.233-156.462l12.646,6.646l-82.233,156.462
					C298.946,399.655,296.524,400.409,294.565,399.379z"/>
				
					<linearGradient id="SVGID_00000146463842232351494700000003122415317388687016_" gradientUnits="userSpaceOnUse" x1="373.3866" y1="246.5674" x2="378.1366" y2="225.8173">
					<stop  offset="0" style="stop-color:#FFFFFD"/>
					<stop  offset="1" style="stop-color:#54DEFF"/>
				</linearGradient>
				<path style="fill:url(#SVGID_00000146463842232351494700000003122415317388687016_);" d="M379.831,247.31l-13.925-7.319
					c-0.95-0.499-1.315-1.674-0.816-2.624l2.511-4.777l17.364,9.126l-2.511,4.777C381.956,247.443,380.781,247.809,379.831,247.31z"
					/>
				
					<linearGradient id="SVGID_00000032621300693976526610000011685557909436191658_" gradientUnits="userSpaceOnUse" x1="356.1252" y1="108.9863" x2="356.1252" y2="348.4169" gradientTransform="matrix(0.8852 0.4652 -0.4652 0.8852 164.7671 -121.8819)">
					<stop  offset="0" style="stop-color:#FFFFFD"/>
					<stop  offset="1" style="stop-color:#54DEFF"/>
				</linearGradient>
				<path style="fill:url(#SVGID_00000032621300693976526610000011685557909436191658_);" d="M440.392,119.177
					c-33.302-17.503-74.497-4.709-92,28.593c-17.514,33.322-4.689,74.507,28.613,92.01c33.302,17.503,74.497,4.709,92.01-28.613
					C486.519,177.865,473.695,136.68,440.392,119.177z M383.553,227.323c-26.433-13.893-36.586-46.567-22.693-73
					c13.882-26.414,46.557-36.591,72.99-22.698c26.434,13.893,36.581,46.577,22.698,72.99
					C442.656,231.048,409.986,241.216,383.553,227.323z"/>
				
					<linearGradient id="SVGID_00000078029205553712553820000017818129577197795721_" gradientUnits="userSpaceOnUse" x1="356.1252" y1="113.6589" x2="356.1252" y2="327.8065" gradientTransform="matrix(0.8852 0.4652 -0.4652 0.8852 164.7671 -121.8819)">
					<stop  offset="0" style="stop-color:#7995FD"/>
					<stop  offset="1" style="stop-color:#54DEFF"/>
				</linearGradient>
				<path style="fill:url(#SVGID_00000078029205553712553820000017818129577197795721_);" d="M437.048,125.54
					c-29.789-15.656-66.627-4.209-82.283,25.58c-15.661,29.798-4.199,66.632,25.59,82.288c29.789,15.656,66.627,4.209,82.288-25.59
					C478.299,178.03,466.837,141.196,437.048,125.54z M383.553,227.323c-26.433-13.893-36.586-46.567-22.693-73
					c13.882-26.414,46.557-36.591,72.99-22.698c26.434,13.893,36.581,46.577,22.698,72.99
					C442.656,231.048,409.986,241.216,383.553,227.323z"/>
			</g>
			<path style="fill:#EFCDAF;" d="M351.656,292.035c-0.303-0.069-0.914-0.133-1.618-0.215c1.11-0.008,2.12-0.119,2.42-0.433
				c0.656-0.688-0.406-1.25-1.094-1.406c-0.688-0.156-2.854-0.465-4.26-0.859c-0.772-0.216-1.835-0.681-2.646-1.06
				c0.699-0.115,2.676-0.422,3.939-0.456c1.556-0.041,2.085-0.989,1.546-1.224c-0.539-0.235-5.294-2.326-7.256-2.196
				c-1.603,0.106-3.356,0.416-3.356,0.416l-23.275-19.215l-3.86-13.006l-14.337,5.355c0,0,5.716,11.227,7.368,14.817
				c1.652,3.59,29.867,17.648,29.867,17.648s0.51,0.699,1.933,2.441c0.663,0.811,1.445,1.286,2.096,1.572l-0.003,0.005
				c0,0,0.029,0.011,0.069,0.026c0.206,0.087,0.398,0.159,0.566,0.211c1.02,0.377,2.974,1.087,3.568,1.209
				c0.816,0.168,3.937,0.384,4.441-0.144c0.225-0.236,0.18-0.451,0.021-0.63c1.34,0.033,2.702-0.053,3.059-0.427
				c0.209-0.219,0.231-0.423,0.159-0.608c0.825-0.044,1.51-0.165,1.747-0.413C353.406,292.754,352.344,292.191,351.656,292.035z"/>
			
				<linearGradient id="SVGID_00000111192004682448861990000015460660415531298721_" gradientUnits="userSpaceOnUse" x1="311.7998" y1="255.6774" x2="286.0499" y2="232.4275">
				<stop  offset="0" style="stop-color:#7995FD"/>
				<stop  offset="1" style="stop-color:#54DEFF"/>
			</linearGradient>
			<path style="fill:url(#SVGID_00000111192004682448861990000015460660415531298721_);" d="M288.711,231.563
				c-2.084,5.231-2.148,10.109,6.102,28.875c0,0,11.266-2.194,18.388-6.016c0,0-2.968-20.126-8.027-24.824
				C300.114,224.899,291.375,224.875,288.711,231.563z"/>
			<path style="fill:#EFCDAF;" d="M375.223,260.238c0.037-0.379-0.082-0.585-0.173-0.772c-0.014-0.03-0.061-0.054-0.099-0.08
				c0.006-0.004,0.023-0.005,0.028-0.009c0.132-0.112,0.43-0.43,0.498-0.821c0.084-0.481-0.083-0.704-0.19-0.927
				c-0.019-0.04-0.073-0.073-0.131-0.106c0.052-0.01,0.096-0.022,0.117-0.039c0.11-0.093,0.38-0.381,0.427-0.707
				c0.057-0.4-0.074-0.558-0.184-0.673c-0.242-0.25-1.961-0.344-2.615-0.326c-0.371,0.01-1.268,0.109-1.29,0.738
				c-0.01,0.288,0.266,0.517,0.83,0.696c-0.179,0-0.344,0.001-0.469,0.004c-0.471,0.013-1.607,0.138-1.635,0.935
				c-0.014,0.4,0.394,0.714,1.263,0.949c-0.506,0.058-1.216,0.248-1.237,0.861c-0.014,0.395,0.392,0.703,1.288,0.928
				c0.12,0.03,0.262,0.06,0.414,0.088c-0.402,0.017-1.257,0.131-1.279,0.755c-0.012,0.337,0.335,0.601,1.101,0.793
				c0.765,0.193,2.463,0.365,2.658,0.2c0.116-0.098,0.367-0.395,0.384-0.742c0.015-0.312-0.056-0.51-0.135-0.673
				c-0.025-0.052-0.105-0.093-0.205-0.131c0.082-0.013,0.142-0.03,0.171-0.055C374.897,261.006,375.173,260.762,375.223,260.238z"/>
		</g>
		<g>
			<g>
				<path style="fill:#98E7F4;" d="M121.83,282.028c0.024,5.075-4.07,9.208-9.145,9.232c-5.075,0.024-9.208-4.07-9.232-9.145
					c-0.024-5.075,4.07-9.208,9.145-9.232C117.673,272.858,121.806,276.953,121.83,282.028z"/>
				
					<polyline style="fill:none;stroke:#FFFFFF;stroke-width:1.577;stroke-linecap:round;stroke-linejoin:round;stroke-miterlimit:10;" points="
					108.6,282.52 112.236,286.011 117.037,279.465 				"/>
			</g>
			<g>
				
					<linearGradient id="SVGID_00000027581060967529468940000014795610054583489416_" gradientUnits="userSpaceOnUse" x1="626.3684" y1="282.2566" x2="614.8642" y2="270.7524">
					<stop  offset="0" style="stop-color:#84CF9B"/>
					<stop  offset="1" style="stop-color:#79D3FD"/>
				</linearGradient>
				<path style="fill:url(#SVGID_00000027581060967529468940000014795610054583489416_);" d="M627.491,276.555
					c-0.048,3.817-3.181,6.872-6.997,6.824c-3.817-0.048-6.872-3.181-6.824-6.997c0.048-3.817,3.18-6.872,6.997-6.824
					C624.483,269.605,627.538,272.738,627.491,276.555z"/>
				
					<polyline style="fill:none;stroke:#FFFFFF;stroke-width:1.4684;stroke-linecap:round;stroke-linejoin:round;stroke-miterlimit:10;" points="
					617.535,276.754 620.223,279.426 623.919,274.566 				"/>
			</g>
			<path style="opacity:0.5;fill:#BDF3FF;" d="M153.811,262.649c0,1.404-1.138,2.542-2.541,2.542c-1.404,0-2.541-1.138-2.541-2.542
				c0-1.404,1.138-2.542,2.541-2.542C152.673,260.107,153.811,261.245,153.811,262.649z"/>
			<path style="fill:#BDF3FF;" d="M148.871,322.617c0,0.858-0.696,1.554-1.554,1.554c-0.858,0-1.554-0.696-1.554-1.554
				c0-0.859,0.696-1.555,1.554-1.555C148.175,321.063,148.871,321.759,148.871,322.617z"/>
			<path style="opacity:0.3;fill:#BDF3FF;" d="M274.054,364.125c0,0.858-0.696,1.554-1.554,1.554c-0.858,0-1.554-0.696-1.554-1.554
				c0-0.859,0.696-1.555,1.554-1.555C273.358,362.571,274.054,363.267,274.054,364.125z"/>
			<path style="opacity:0.1;fill:#BDF3FF;" d="M148.998,377c0,1.787-1.448,3.235-3.235,3.235c-1.787,0-3.236-1.448-3.236-3.235
				c0-1.787,1.448-3.236,3.236-3.236C147.549,373.765,148.998,375.213,148.998,377z"/>
			<path style="opacity:0.1;fill:#BDF3FF;" d="M646.547,392c0,1.787-1.448,3.235-3.235,3.235c-1.787,0-3.235-1.448-3.235-3.235
				c0-1.787,1.448-3.236,3.235-3.236C645.098,388.765,646.547,390.213,646.547,392z"/>
			<path style="opacity:0.3;fill:#BDF3FF;" d="M356.191,82.334c0,1.787-1.448,3.235-3.235,3.235c-1.787,0-3.236-1.449-3.236-3.235
				c0-1.787,1.448-3.236,3.236-3.236C354.743,79.098,356.191,80.547,356.191,82.334z"/>
			<path style="opacity:0.1;fill:#BDF3FF;" d="M190.699,144.347c0,2.375-1.926,4.301-4.301,4.301c-2.376,0-4.302-1.926-4.302-4.301
				c0-2.376,1.926-4.302,4.302-4.302C188.773,140.045,190.699,141.971,190.699,144.347z"/>
			<path style="opacity:0.1;fill:#BDF3FF;" d="M628.221,331.528c0,2.376-1.926,4.301-4.301,4.301c-2.376,0-4.302-1.926-4.302-4.301
				c0-2.376,1.926-4.302,4.302-4.302C626.295,327.226,628.221,329.152,628.221,331.528z"/>
			<path style="fill:#BDF3FF;" d="M511.956,141.66c0,1.404-1.138,2.541-2.541,2.541c-1.404,0-2.542-1.138-2.542-2.541
				c0-1.404,1.138-2.542,2.542-2.542C510.818,139.118,511.956,140.256,511.956,141.66z"/>
			<path style="fill:#98E7F4;" d="M517.284,368.052c0,1.404-1.138,2.542-2.541,2.542c-1.404,0-2.542-1.138-2.542-2.542
				s1.138-2.541,2.542-2.541C516.146,365.511,517.284,366.649,517.284,368.052z"/>
			<path style="fill:#BDF3FF;" d="M300.888,123.349h-2.049v-2.048c0-0.447-0.363-0.81-0.811-0.81c-0.447,0-0.81,0.363-0.81,0.81
				v2.048h-2.048c-0.447,0-0.811,0.363-0.811,0.811c0,0.447,0.363,0.811,0.811,0.811h2.048v2.049c0,0.447,0.363,0.81,0.81,0.81
				c0.448,0,0.811-0.363,0.811-0.81v-2.049h2.049c0.447,0,0.811-0.363,0.811-0.811C301.699,123.713,301.336,123.349,300.888,123.349
				z"/>
			<path style="fill:#BDF3FF;" d="M498.954,235.938h-2.049v-2.048c0-0.447-0.363-0.81-0.811-0.81c-0.447,0-0.81,0.363-0.81,0.81
				v2.048h-2.048c-0.447,0-0.811,0.363-0.811,0.81c0,0.447,0.364,0.811,0.811,0.811h2.048v2.049c0,0.447,0.363,0.811,0.81,0.811
				c0.447,0,0.811-0.363,0.811-0.811v-2.049h2.049c0.447,0,0.81-0.363,0.81-0.811C499.764,236.301,499.401,235.938,498.954,235.938z
				"/>
			<path style="fill:#BDF3FF;" d="M482.696,409.002h-2.049v-2.048c0-0.447-0.364-0.81-0.811-0.81c-0.447,0-0.81,0.363-0.81,0.81
				v2.048h-2.048c-0.447,0-0.811,0.363-0.811,0.81c0,0.447,0.364,0.811,0.811,0.811h2.048v2.049c0,0.447,0.363,0.811,0.81,0.811
				c0.447,0,0.811-0.363,0.811-0.811v-2.049h2.049c0.447,0,0.811-0.363,0.811-0.811
				C483.507,409.365,483.144,409.002,482.696,409.002z"/>
			<path style="fill:#BDF3FF;" d="M249.964,272.802h-2.049v-2.048c0-0.447-0.363-0.81-0.811-0.81c-0.447,0-0.81,0.363-0.81,0.81
				v2.048h-2.048c-0.447,0-0.811,0.363-0.811,0.81c0,0.447,0.364,0.81,0.811,0.81h2.048v2.049c0,0.447,0.363,0.811,0.81,0.811
				c0.447,0,0.811-0.363,0.811-0.811v-2.049h2.049c0.447,0,0.811-0.363,0.811-0.81C250.774,273.165,250.411,272.802,249.964,272.802
				z"/>
			<path style="fill:#98E7F4;" d="M665.549,312.142H663.5v-2.048c0-0.447-0.363-0.81-0.811-0.81c-0.447,0-0.81,0.363-0.81,0.81
				v2.048h-2.048c-0.447,0-0.811,0.363-0.811,0.81c0,0.447,0.363,0.811,0.811,0.811h2.048v2.049c0,0.447,0.363,0.81,0.81,0.81
				c0.447,0,0.811-0.363,0.811-0.81v-2.049h2.049c0.448,0,0.811-0.363,0.811-0.811C666.36,312.505,665.997,312.142,665.549,312.142z
				"/>
		</g>
		<g>
			<path style="fill:#EFCDAF;" d="M282.415,257.057c-1.192-0.031-3.621,0.253-6.886,0.993c-8.282,1.866-23.073,5.124-28.408,4.606
				c-4.465-0.43-18.066-14.927-18.656-15.438l4.449-15.543c0,0,2.721,3.071,6.262,7.059c3.541,3.988,7.901,8.904,11.189,12.607
				l22.496,0.791c0,0,8.102-0.184,9.96-0.503L282.415,257.057z"/>
			
				<linearGradient id="SVGID_00000036212856475273110380000000957017780874743718_" gradientUnits="userSpaceOnUse" x1="234.7771" y1="233.3401" x2="234.7771" y2="298.3335" gradientTransform="matrix(0.9949 0.1008 -0.1008 0.9949 27.8216 -26.0706)">
				<stop  offset="0" style="stop-color:#FFFFFD"/>
				<stop  offset="1" style="stop-color:#54DEFF"/>
			</linearGradient>
			<path style="fill:url(#SVGID_00000036212856475273110380000000957017780874743718_);" d="M230.576,228.581
				c0,0,1.728,0.87,2.273,1.445c3.557,3.75,12.983,15.82,12.983,15.82s-1.158,3.087-10.063,11.379l-9.321-9.221L230.576,228.581z"/>
			
				<linearGradient id="SVGID_00000065037145446693119310000013567872795569381296_" gradientUnits="userSpaceOnUse" x1="236.92" y1="258.6943" x2="230.9861" y2="250.0504">
				<stop  offset="0" style="stop-color:#FFFFFD"/>
				<stop  offset="1" style="stop-color:#54DEFF"/>
			</linearGradient>
			<polygon style="fill:url(#SVGID_00000065037145446693119310000013567872795569381296_);" points="230.873,246.57 235.158,256.62 
				229.118,250.645 			"/>
			<path style="fill:#EFCDAF;" d="M232.48,409.077l-0.828,10.998c0,0-4.387,0.841-7.809,0l-0.48-11.34"/>
			
				<linearGradient id="SVGID_00000003813584017247851320000000354098634740244889_" gradientUnits="userSpaceOnUse" x1="222.0197" y1="421.3988" x2="246.7858" y2="421.3988">
				<stop  offset="0" style="stop-color:#00FFFF"/>
				<stop  offset="1" style="stop-color:#5793FB"/>
			</linearGradient>
			<path style="fill:url(#SVGID_00000003813584017247851320000000354098634740244889_);" d="M223.721,417.173
				c0,0,0.943,0.812,4.123,0.697c0,0,1.763-1.452,3.923-0.681l8.104,3.972c0,0,6.886,2.629,6.915,4.542
				c-3.645-0.01-23.268,0.303-24.226-0.004C221.602,425.393,221.876,418.94,223.721,417.173z"/>
			<path style="fill:#EFCDAF;" d="M185.062,404.004l-5.6,12.779c0,0-4.536-0.352-8.077-2.474l3.375-12.866"/>
			
				<linearGradient id="SVGID_00000009588142970532320930000015667514791684513203_" gradientUnits="userSpaceOnUse" x1="167.5356" y1="418.3641" x2="189.2698" y2="418.3641">
				<stop  offset="0" style="stop-color:#00FFFF"/>
				<stop  offset="1" style="stop-color:#5793FB"/>
			</linearGradient>
			<path style="fill:url(#SVGID_00000009588142970532320930000015667514791684513203_);" d="M167.696,419.471
				c0.799,0.842,12.351,6.228,13.753,6.228h5.093c0.949,0,2.753,0.085,2.727-0.327c-0.068-1.066-2.021-3.785-5.035-4.135
				c-0.373-0.043-3.863-5.662-3.863-5.662c-1.043-2.311-4.302-1.96-4.302-1.96c-3.345-1.662-3.855-2.593-3.855-2.593
				C169.323,411.82,166.876,418.63,167.696,419.471z"/>
			
				<linearGradient id="SVGID_00000023250031177445037660000017481510293600944566_" gradientUnits="userSpaceOnUse" x1="218.6127" y1="308.3721" x2="220.6127" y2="392.3722">
				<stop  offset="0" style="stop-color:#00004F"/>
				<stop  offset="1" style="stop-color:#000079"/>
			</linearGradient>
			<path style="fill:url(#SVGID_00000023250031177445037660000017481510293600944566_);" d="M203.213,322.2
				c0.449,2.694,10.399,23.923,13.684,33.613c0.313,24.861,1.32,55.455,1.46,58.012c3.342,0.582,13.572,0.853,14.785,0.42
				c2.138-24.039,2.277-60.848,2.251-61.863c-0.554-21.484-3.187-41.289-3.404-44.449c-0.233-3.16-0.549-20.82-2.062-21.418
				c-3.343-1.247-12.006-4.124-15.914,1.563C209.939,294.048,202.997,320.97,203.213,322.2z"/>
			
				<linearGradient id="SVGID_00000180344069601265782940000017468383277952770988_" gradientUnits="userSpaceOnUse" x1="194.1518" y1="308.9545" x2="196.1517" y2="392.9545">
				<stop  offset="0" style="stop-color:#00004F"/>
				<stop  offset="1" style="stop-color:#000079"/>
			</linearGradient>
			<path style="fill:url(#SVGID_00000180344069601265782940000017468383277952770988_);" d="M171.14,406.817
				c0.772,0.631,11.493,5.249,15.199,5.623c7.13-19.628,18.722-52.557,20.264-58.654c1.225-4.844,3.319-25.364,5.681-34.843
				l6.722-30.444l-17.543-3.796c-13.906,11.87-15.239,25.445-14.671,32.264c0.23,2.76-0.839,27.284-1.236,34.098
				C180.884,369.661,172.905,399.902,171.14,406.817z"/>
			
				<linearGradient id="SVGID_00000023983217478421321860000006293589999681122741_" gradientUnits="userSpaceOnUse" x1="212.6279" y1="229.5004" x2="212.6279" y2="293.7287">
				<stop  offset="0" style="stop-color:#FFFFFD"/>
				<stop  offset="1" style="stop-color:#54DEFF"/>
			</linearGradient>
			<path style="fill:url(#SVGID_00000023983217478421321860000006293589999681122741_);" d="M231.374,229.083
				c-2.494-2.079-18.063-5.668-23.113-4.359c-5.859,1.519-12.669,2.805-13.679,5.024c-0.96,2.111-1.601,16.012-2.072,24.654
				c1.058,5.607,5.25,26.035,5.25,29.386c0,3.352-1.801,4.789-0.961,5.762c1.882,2.18,14.75,3.095,20.791,3.095
				c5.377,0,14.529-1.434,14.993-3.156c0.689-2.557-1.049-2.461-1.285-5.142C231.064,281.668,233.487,231.507,231.374,229.083z"/>
			<g>
				
					<linearGradient id="SVGID_00000067222153087849678250000014661074779096188837_" gradientUnits="userSpaceOnUse" x1="157.6027" y1="230.9713" x2="278.2896" y2="305.2402" gradientTransform="matrix(1.0988 -0.015 -0.015 1.0023 -25.705 4.1336)">
					<stop  offset="0" style="stop-color:#F9DD68"/>
					<stop  offset="1" style="stop-color:#F9A942"/>
				</linearGradient>
				<path style="fill:url(#SVGID_00000067222153087849678250000014661074779096188837_);" d="M176.806,311.387l116.416-17.683
					c1.751-0.266,2.954-1.901,2.688-3.652l-5.34-35.153c-0.266-1.751-1.901-2.954-3.652-2.689l-116.416,17.683
					c-1.751,0.266-2.954,1.901-2.688,3.651l5.34,35.153C173.421,310.449,175.055,311.653,176.806,311.387z"/>
				
					<text transform="matrix(0.9887 -0.1502 0.1502 0.9887 186.3132 297.3141)" style="fill:#FFAF3B; font-family:'Montserrat-Bold'; font-size:23.1006px;">JOIN US</text>
				
					<text transform="matrix(0.9887 -0.1502 0.1502 0.9887 185.4719 296.7534)" style="fill:#FFFFFF; font-family:'Montserrat-Bold'; font-size:23.1006px;">JOIN US</text>
			</g>
			<path style="fill:#EFCDAF;" d="M191.559,309.98c-0.497-1.327-2.188-2.842-2.188-2.842v0.001
				c-1.081-1.035-2.307-1.888-2.441-2.188c-0.616-1.373-0.495-5.257-0.495-5.257l-0.645-32.661c0,0,1.807-4.98,3.95-10.454
				c-6.493-1.627-10.578-3.807-13.868-5.275c-1.36,4.908-3.068,9.904-3.506,12.552c-1.114,6.744,8.222,38.202,8.675,40.615
				c0.194,1.176,0.255,2.152,0.326,2.414c0.109,0.404-0.008,4.83,1.622,5.169c1.629,0.34,5.593,0.218,6.731-0.507
				c0.215-0.137,0.392-0.289,0.552-0.443c0.476,0.311,0.964,0.486,1.302,0.381C192.128,311.312,191.953,311.033,191.559,309.98z"/>
			
				<linearGradient id="SVGID_00000178188578149618329050000006736307040647099525_" gradientUnits="userSpaceOnUse" x1="180.3569" y1="234.5563" x2="180.3569" y2="304.0967" gradientTransform="matrix(0.9866 0.163 -0.163 0.9866 49.9451 -32.9634)">
				<stop  offset="0" style="stop-color:#FFFFFD"/>
				<stop  offset="1" style="stop-color:#54DEFF"/>
			</linearGradient>
			<path style="fill:url(#SVGID_00000178188578149618329050000006736307040647099525_);" d="M196.814,248.003l4.351-21.481
				c0,0-12.525,2.951-15.798,6.763c-3.667,4.269-5.159,7.84-11.804,23.6c4.975,2.349,11.37,4.864,15.916,5.508
				C191.926,258.422,195.209,251.917,196.814,248.003z"/>
			<path style="fill:#EFCDAF;" d="M203.834,225.829c0,0,7.138,4.046,12.927-0.904c0,0-0.813-5.797-0.789-10.189
				c0.02-3.779-11.864-9.369-11.864-9.369l-1.268-0.989c0,0,0.368,2.127,0.874,5.243c0.279,1.768,0.723,3.826,0.943,6.028
				C205.435,223.45,203.834,225.829,203.834,225.829z"/>
			<path style="fill:#E8A77D;" d="M207.491,215.393c0,0,3.81,6.71,9.042,7.711l-0.305-3.345L207.491,215.393z"/>
			
				<linearGradient id="SVGID_00000014612350068785824750000009738934981942722181_" gradientUnits="userSpaceOnUse" x1="221.199" y1="186.582" x2="225.778" y2="206.206">
				<stop  offset="0" style="stop-color:#00B5FF"/>
				<stop  offset="1" style="stop-color:#3049B9"/>
			</linearGradient>
			<path style="fill:url(#SVGID_00000014612350068785824750000009738934981942722181_);" d="M225.509,197.723
				c0,0,1.937,5.305-1.523,8.321l-1.654-8.085L225.509,197.723z"/>
			<path style="fill:#EFCDAF;" d="M206.121,213.654c0.559,0.785,1.173,1.537,1.819,2.251c0,0,0,0,0.008,0.014
				c1.075,1.165,2.291,2.223,3.616,3.121c1.707,1.152,3.257,1.836,4.65,2.202c0.739,0.222,1.412,0.336,2.05,0.395
				c2.959,0.249,4.687-0.889,4.687-0.889c2.775-4.118,2.674-10.797,2.038-15.866c-0.246-2.051-0.591-3.835-0.853-5.086
				c-0.244-1.13-0.433-1.805-0.433-1.805c-0.012-0.049-0.015-0.085-0.026-0.135c-1.205-6.545-9.95-6.772-15.966-3.088
				c-0.355,0.219-0.688,0.442-1.018,0.702c-1.672,1.199-3.054,2.746-3.88,4.554c-1.411,3.091-0.546,6.606,0.899,9.595
				c0.079,0.158,0.158,0.317,0.237,0.476C204.622,211.433,205.406,212.645,206.121,213.654z"/>
			
				<linearGradient id="SVGID_00000116224541323417325260000013295428309373698995_" gradientUnits="userSpaceOnUse" x1="211.4001" y1="188.8685" x2="215.979" y2="208.4924">
				<stop  offset="0" style="stop-color:#00B5FF"/>
				<stop  offset="1" style="stop-color:#3049B9"/>
			</linearGradient>
			<path style="fill:url(#SVGID_00000116224541323417325260000013295428309373698995_);" d="M226.049,188.282
				c-6.29,4.869-11.237-4.402-17.278-1.275c-1.503,0.778-2.98,2.426-3.183,4.9c-3.697-2.166-8.729,1.964-7.224,10.658
				c1.693,9.79,6.291,13.075,6.291,13.075c-0.269-3.14-2.211-9.922,0.123-10.81c1.892-0.719,2.829,1.544,3.117,2.501
				c0.208,0.69,0.562,2.49,0.707,2.793l1.48-0.198c-0.059-1.059-0.106-2.542-0.145-4.148c0.577-0.649,1.382-1.738,1.772-3.121
				c0.213-0.755,0.342-1.852,0.421-2.887c3.188,1.561,7.489,2.237,12.71-0.287C228.335,197.796,229.116,185.908,226.049,188.282z"/>
			<path style="fill:#EFCDAF;" d="M279.899,251.977c0,0,2.279-0.575,3.05-1.066c0.771-0.491,2.593,0.035,3.539,0.315
				c0.946,0.28,1.922,1.528,2.658,1.984c0.629,0.389,0.263,1.051-0.841,0.771c-1.104-0.28-2.378-0.95-2.378-0.95
				s-1.381,0.5-2.828,0.04"/>
			<path style="fill:#EFCDAF;" d="M291.145,257.304c0.116-0.055,0.209-0.112,0.238-0.17c0.142-0.294,0.133-0.821-0.291-1.023
				c0.015-0.016,0.044-0.032,0.052-0.048c0.15-0.309,0.148-0.85-0.249-1.1c0.007-0.009,0.025-0.018,0.03-0.027
				c0.161-0.332,0.161-0.985-0.45-1.103c0,0-2.011,0.594-2.345,1.06c-0.168,0.234,0.043,0.611,0.418,0.643
				c0.052,0.004,0.135,0.001,0.234-0.006c-0.34,0.161-0.63,0.329-0.743,0.486c-0.187,0.26,0.048,0.678,0.464,0.714
				c0.125,0.011,0.401-0.015,0.724-0.061c-0.293,0.14-0.541,0.287-0.639,0.424c-0.168,0.234-0.029,0.658,0.418,0.643
				c0.073-0.002,0.212-0.003,0.374-0.02c-0.116,0.056-0.215,0.114-0.267,0.173c-0.148,0.171-0.009,0.479,0.281,0.531
				c0.29,0.052,1.749-0.053,1.897-0.301C291.42,257.9,291.45,257.495,291.145,257.304z"/>
		</g>
		<g>
			<g>
				<path style="fill:#EFCDAF;" d="M545.352,406.712l-0.915,10.497c0,0-5.471,1.969-9.103,0l-0.183-10.229"/>
				
					<linearGradient id="SVGID_00000107546522423845494890000017952836073087391617_" gradientUnits="userSpaceOnUse" x1="520.9821" y1="421.3046" x2="545.9513" y2="421.3046">
					<stop  offset="0" style="stop-color:#00FFFF"/>
					<stop  offset="1" style="stop-color:#5793FB"/>
				</linearGradient>
				<path style="fill:url(#SVGID_00000107546522423845494890000017952836073087391617_);" d="M544.436,417.209
					c0,0,1.046,1.211,1.336,3.169c0.29,1.959,0.14,4.155,0.14,4.591c0,0.435-4.159,0.365-6.553,0.401
					c-2.394,0.036-9.794-0.069-11.861,0.002c-2.068,0.071-4.755-0.018-6.337,0.012c-0.958,0.018,2.133-2.775,4.28-3.674
					c2.348-0.983,4.925-2.337,7.055-3.377c1.554-0.759,2.837-1.124,2.837-1.124S543.133,417.744,544.436,417.209z"/>
			</g>
			<g>
				<path style="fill:#EFCDAF;" d="M579.933,405.03l1.44,12.179c0,0-4.65,1.969-8.282,0l-2.619-10.229"/>
				
					<linearGradient id="SVGID_00000091698286022912336520000003298252582480059059_" gradientUnits="userSpaceOnUse" x1="559.7766" y1="421.4529" x2="583.0691" y2="421.4529">
					<stop  offset="0" style="stop-color:#00FFFF"/>
					<stop  offset="1" style="stop-color:#5793FB"/>
				</linearGradient>
				<path style="fill:url(#SVGID_00000091698286022912336520000003298252582480059059_);" d="M581.373,417.209
					c0,0,1.303,1.31,1.593,3.268c0.29,1.959-0.124,4.471-0.124,4.906c0,0.435-21.94,0.399-22.811,0
					c-0.871-0.399,0.516-2.91,3.835-4.257c2.359-0.958,3.321-1.215,5.45-2.255c1.554-0.759,3.776-1.663,3.776-1.663
					S580.07,417.744,581.373,417.209z"/>
			</g>
			
				<linearGradient id="SVGID_00000097460563917875248810000017396071766725008005_" gradientUnits="userSpaceOnUse" x1="558.1601" y1="410.966" x2="558.4935" y2="289.2995">
				<stop  offset="0" style="stop-color:#8900CF"/>
				<stop  offset="1" style="stop-color:#4F33FD"/>
			</linearGradient>
			<path style="fill:url(#SVGID_00000097460563917875248810000017396071766725008005_);" d="M533.595,413.134
				c6.127,0.715,14.712,0.342,16.166,0.025c0.596-7.849,1.975-47.831,2.336-57.914c0.457-1.384,3.476-18.409,4.579-26.913
				c-0.08,12.153,0.321,27.437,0.403,27.847c1.349,8.713,8.592,40.842,12.727,57.657c5.277,0.516,13.66-1.635,14.718-2.523
				c-0.945-7.381-5.629-45.698-7.031-56.819c1.255-9.112,2.057-19.684,2.632-28.854c0.68-2.568,4.328-21.465-4.993-32.889
				c0,0-19.833,0.124-28.804,0.628c-7.071,0.399-10.66-0.211-10.66-0.211s-3.369,55.202-3.709,59.576
				C531.866,353.778,533.011,395.813,533.595,413.134z"/>
			<path style="fill:#EFCDAF;" d="M528.303,238.119l-18.607,20.105c0,0-2.626,6.222,4.909,6.591
				c7.535,0.37,21.653-16.035,21.653-16.035"/>
			
				<linearGradient id="SVGID_00000103984171489957159080000012641478505158768033_" gradientUnits="userSpaceOnUse" x1="532.5074" y1="296.3637" x2="532.8812" y2="230.0161">
				<stop  offset="0" style="stop-color:#7995FD"/>
				<stop  offset="1" style="stop-color:#54DEFF"/>
			</linearGradient>
			<path style="fill:url(#SVGID_00000103984171489957159080000012641478505158768033_);" d="M520.845,245.794
				c0,0,4.281,6.788,10.682,11.975l12.522-8.737l0.791-21.107c0,0-8.5,2.173-11.257,4.822
				C530.786,235.434,526.996,239.258,520.845,245.794z"/>
			
				<linearGradient id="SVGID_00000093855980763507415440000002777955951821641120_" gradientUnits="userSpaceOnUse" x1="557.054" y1="296.5019" x2="557.4279" y2="230.1544">
				<stop  offset="0" style="stop-color:#7995FD"/>
				<stop  offset="1" style="stop-color:#54DEFF"/>
			</linearGradient>
			<path style="fill:url(#SVGID_00000093855980763507415440000002777955951821641120_);" d="M536.375,288.863
				c-0.294,2.705-1.452,4.431-0.462,5.782c1.071,1.469,9.753,2.552,15.534,2.629c6.508,0.087,20.353-0.372,23.709-2.25
				c0.319-0.172,1.264-0.692,1.273-1.302c0.012-0.868-0.935-1.978-0.906-4.182c0.045-3.389,1.313-18.278,1.742-24.066
				c0.087-1.207,0.197-2.46,0.32-3.737c0.781-8.41,2.085-18.127,2.38-23.541c-0.985-1.749-2.08-3.183-3.155-4.358
				c-3.213-3.526-6.34-4.741-6.807-4.9c-0.035-0.012-0.058-0.024-0.058-0.024c-4.813-1.378-10.232-2.26-13.584-2.411
				c-9.635-0.423-19.014,3.708-21.322,6.14c-0.761,0.798,0.705,8.669,0.926,16.575C536.414,265.279,536.565,287.042,536.375,288.863
				z"/>
			<g>
				
					<linearGradient id="SVGID_00000155861377144021769200000002716105608225979789_" gradientUnits="userSpaceOnUse" x1="542.2863" y1="213.6985" x2="539.3918" y2="184.2712">
					<stop  offset="0" style="stop-color:#00004F"/>
					<stop  offset="1" style="stop-color:#000079"/>
				</linearGradient>
				<path style="fill:url(#SVGID_00000155861377144021769200000002716105608225979789_);" d="M538.232,195.532
					c0,0-1.16,9.46,2.602,10.699c3.061,1.008,2.754-3.115,2.754-3.115l0.075-4.544"/>
				<path style="fill:#EFCDAF;" d="M562.373,227.208c0,0-2.42,6.252-11.598,5.363c-7.986-0.773-3.209-5.49-3.209-5.49
					s0.417-1.26,0.924-2.93c0.494-1.633,1.075-3.648,1.44-5.228l3.195-2.617l6.775-5.547
					C559.901,210.759,559.024,222.814,562.373,227.208z"/>
				<path style="fill:#CC6362;" d="M557.269,216.367c0,0-2.766,5.898-8.779,7.784c0.494-1.633,1.075-3.648,1.44-5.228l3.195-2.617
					L557.269,216.367z"/>
				<path style="fill:#EFCDAF;" d="M540.311,200.66c0,0-1.298,18.838,4.407,20.99c0,0,6.336,1.43,11.931-4.54
					c1.612-1.72,2.802-3.783,3.638-5.987c1.357-3.58,3.456-10.229,2.238-14.52C560.79,190.493,542.161,186.475,540.311,200.66z"/>
				<path style="fill:#EFCDAF;" d="M555.261,207.09c0,0,0.626-3.514,3.113-2.849c3.279,0.877,0.945,9.282-2.412,7.496"/>
				
					<linearGradient id="SVGID_00000126322215665254177720000011238764661141242271_" gradientUnits="userSpaceOnUse" x1="552.3262" y1="212.4755" x2="549.5228" y2="183.974">
					<stop  offset="0" style="stop-color:#00004F"/>
					<stop  offset="1" style="stop-color:#000079"/>
				</linearGradient>
				<path style="fill:url(#SVGID_00000126322215665254177720000011238764661141242271_);" d="M563.006,191.351
					c-5.035-7.329-12.737-3.535-21.046-3.202c-1.171-0.006-2.253-0.036-3.194-0.069c-0.016-0.002-0.033-0.002-0.049-0.004
					l0.003,0.002c-1.801-0.063-3.069-0.131-3.342-0.031c-0.773,0.283-0.874,5.291-0.461,6.994
					c2.582,10.635,13.998,8.282,17.399,7.324c0.21,0.802,0.528,1.547,1.089,2.15c0.549,0.594,1.391,0.931,2.377,1.099
					c0.336-0.662,0.875-1.312,1.693-1.435c0.269-0.045,0.572-0.034,0.897,0.056c0.684,0.18,1.121,0.695,1.346,1.368
					c0.482,1.335,0.157,3.342-0.639,4.743c0.273,2.362,0.553,4.612,0.755,6.025l1.062-0.339c0.202-1.278,0.404-3.061,1.413-4.631
					c0.561-0.852,2.074-3.622,2.758-7.076c0.011,0,0.011,0,0.011-0.011C565.63,203.025,569.118,194.323,563.006,191.351z"/>
			</g>
			<path style="fill:#EFCDAF;" d="M581.856,246.087c0,0,3.909,25.141,3.296,27.186c-0.614,2.044-7.766,3.365-10.657,0.297
				c-2.891-3.068-5.659-22.554-5.659-22.554"/>
			
				<linearGradient id="SVGID_00000044898064341070879470000017339287398051177088_" gradientUnits="userSpaceOnUse" x1="575.7814" y1="296.6075" x2="576.1552" y2="230.2599">
				<stop  offset="0" style="stop-color:#7995FD"/>
				<stop  offset="1" style="stop-color:#54DEFF"/>
			</linearGradient>
			<path style="fill:url(#SVGID_00000044898064341070879470000017339287398051177088_);" d="M578.817,234.034
				c-1.926-2.893-8.813-5.096-8.813-5.096l-3.279,16.246c-0.073,5.417,1.486,17.069,1.486,17.069c1.91,0.17,6.119-0.02,9.374-0.516
				c3.902-0.616,7.75-1.839,7.75-1.839S582.55,239.639,578.817,234.034z"/>
			
				<linearGradient id="SVGID_00000048477459230131232080000009990702144960836503_" gradientUnits="userSpaceOnUse" x1="563.3847" y1="287.0026" x2="543.5739" y2="248.5023">
				<stop  offset="0" style="stop-color:#160EC0"/>
				<stop  offset="1" style="stop-color:#5451FF"/>
			</linearGradient>
			<path style="fill:url(#SVGID_00000048477459230131232080000009990702144960836503_);" d="M538.223,283.892l25.234,3.732
				c0.507,0.075,0.978-0.275,1.053-0.782l5.044-34.104c0.075-0.507-0.275-0.978-0.782-1.053l-25.234-3.732
				c-0.507-0.075-0.978,0.275-1.053,0.782l-5.044,34.104C537.366,283.346,537.716,283.817,538.223,283.892z"/>
			<path style="fill:#EFCDAF;" d="M584.922,268.416l-6.516,1.395c0,0-7.161-1.635-14.857-1.739c-6.458-0.087-12.18-1.21-13.858-1.57
				c-0.602-0.152-1.641-0.519-2.342-1.357c-0.571-0.682-0.627-1.179-1.063-1.667c-0.436-0.487-1.653-1.714-2.062-2.566
				c-0.409-0.852-0.641-1.094-1.145-0.405c-0.504,0.688,0.357,2.303,0.568,2.77c0.211,0.467,0.191,1.413,0.181,1.526
				c-0.01,0.112-3.076-0.821-3.492-1.534c0,0-0.668,0.403-0.839,1.124c-0.094,0.394,0.243,0.85,0.16,1.03
				c-0.083,0.179-0.469,0.378-0.558,0.697s0.055,0.733,0.18,1.165c-0.112,0.267-0.329,0.384-0.529,0.886
				c-0.2,0.503,0.143,0.869,0.26,1.093c-0.066,0.288-0.352,0.666-0.271,0.989c0.156,0.62,1.924,1.302,3.615,1.52
				c2.575,0.332,5.179-1.02,8.115-0.273l0-0.001c12.934,4.897,27.149,8.141,29.999,8.455c3.025,0.334,4.169-1.117,4.685-1.99
				C585.669,277.091,584.922,268.416,584.922,268.416z"/>
			<g>
				<g>
					<g>
						
							<linearGradient id="SVGID_00000037657719099465499260000000875966512436991667_" gradientUnits="userSpaceOnUse" x1="514.5645" y1="209.8949" x2="511.5158" y2="215.6419">
							<stop  offset="0" style="stop-color:#FFFFFD"/>
							<stop  offset="1" style="stop-color:#54DEFF"/>
						</linearGradient>
						<path style="fill:url(#SVGID_00000037657719099465499260000000875966512436991667_);" d="M515.063,213.535
							c-0.048,0.118-0.104,0.238-0.168,0.355c-0.496,0.913-1.286,1.458-1.838,1.297c-0.058,0.077-0.112,0.147-0.168,0.213
							c-0.291,0.354-0.525,0.55-0.645,0.511l-2.435-0.798l-0.394-0.129l3.409-6.287l2.319,1.867
							c0.118,0.095,0.045,0.503-0.164,1.076C515.358,211.968,515.389,212.739,515.063,213.535z"/>
						
							<linearGradient id="SVGID_00000170256932488394772520000005669737325356758941_" gradientUnits="userSpaceOnUse" x1="506.7354" y1="214.4786" x2="499.9371" y2="222.9589">
							<stop  offset="0" style="stop-color:#00004F"/>
							<stop  offset="1" style="stop-color:#000079"/>
						</linearGradient>
						<path style="fill:url(#SVGID_00000170256932488394772520000005669737325356758941_);" d="M509.414,214.985
							c0,0-2.693,5.788-6.067,8.617c-0.306,0.257-0.732,0.313-1.094,0.147c-0.11-0.05-0.231-0.107-0.364-0.173
							c-0.953-0.465-2.433-1.312-3.566-2.515c-0.463-0.493-0.324-1.296,0.272-1.617c1.356-0.729,3.74-2.32,6.009-5.363
							c0.32-0.429,0.637-0.888,0.949-1.376L509.414,214.985z"/>
						
							<linearGradient id="SVGID_00000119820654127239883520000017982781131326910615_" gradientUnits="userSpaceOnUse" x1="500.4797" y1="213.6233" x2="504.1439" y2="213.6233">
							<stop  offset="0" style="stop-color:#F9DD68"/>
							<stop  offset="1" style="stop-color:#F9A942"/>
						</linearGradient>
						<path style="fill:url(#SVGID_00000119820654127239883520000017982781131326910615_);" d="M504.144,213.115
							c0,0-0.144,0.261-0.409,0.588c-0.553,0.687-1.636,1.668-3.05,1.184c-0.151-0.051-0.237-0.21-0.194-0.363
							c0.033-0.118,0.133-0.203,0.254-0.215c0.345-0.04,1.084-0.226,1.68-1.066c0.191-0.267,0.366-0.599,0.51-1.013L504.144,213.115
							z"/>
						
							<linearGradient id="SVGID_00000177462877986164687260000008578419110155124907_" gradientUnits="userSpaceOnUse" x1="501.2777" y1="212.9824" x2="507.0948" y2="202.1892">
							<stop  offset="0" style="stop-color:#7995FD"/>
							<stop  offset="1" style="stop-color:#54DEFF"/>
						</linearGradient>
						<path style="fill:url(#SVGID_00000177462877986164687260000008578419110155124907_);" d="M512.576,212.633
							c-0.071,0.131-0.142,0.26-0.215,0.387c-0.995,1.77-1.968,3.041-2.236,2.897c-11.733-6.363-19.297-3.224-19.297-3.224
							l2.698-5.56l1.856-3.825l5.383-8.935c0,0,1.493,8.052,13.226,14.415C514.278,208.942,513.644,210.664,512.576,212.633z"/>
						<g>
							
								<linearGradient id="SVGID_00000178901560766597153380000007114560004478777262_" gradientUnits="userSpaceOnUse" x1="499.849" y1="192.6187" x2="489.4764" y2="212.7566">
								<stop  offset="0" style="stop-color:#FFFFFD"/>
								<stop  offset="1" style="stop-color:#54DEFF"/>
							</linearGradient>
							<path style="fill:url(#SVGID_00000178901560766597153380000007114560004478777262_);" d="M496.669,194.967
								c0.571-0.871,1.049-1.541,1.421-1.99c0.503-0.608,0.78-0.786,1.02-0.655c0,0,1.588,0.69,1.654,2.05
								c0.024,0.073,0.017,0.201-0.02,0.379c0,0,0,0.001,0,0.001l0,0c-0.257,1.248-1.95,4.936-4.242,9.163
								c-2.292,4.227-4.461,7.658-5.366,8.554l0,0l0,0c-0.129,0.128-0.233,0.204-0.307,0.224c-1.176,0.687-2.62-0.268-2.62-0.268
								l0,0c-0.24-0.13-0.242-0.459-0.007-1.213c0.174-0.557,0.474-1.324,0.893-2.277c0.857-1.951,2.116-4.478,3.546-7.115
								C494.07,199.183,495.501,196.749,496.669,194.967z"/>
						</g>
					</g>
					<path style="fill:#EFCDAF;" d="M503.841,223.163c0,0,1.937,1.372,2.188,1.468c0.586,0.222,1.034,9.695,1.482,18.969
						c0.701,14.484,1.982,18.419,1.982,18.419l10.072-11.808c0,0-9.199-29.214-9.367-30.021c-0.107-0.513-0.722-1.968-0.983-2.691
						c-0.261-0.722-0.538-1.146-1.051-1.655c-0.513-0.508-3.237-1.43-3.549-1.32c-0.313,0.11-0.152,0.601,0.12,1.109
						c0.272,0.508,1.532,0.999,1.893,1.226c0.219,0.138,0.379,0.822,0.47,1.339c0.068,0.382-0.005,0.775-0.204,1.108
						c-0.193,0.323-0.457,0.781-0.805,1.262C505.236,221.752,503.841,223.163,503.841,223.163z"/>
					<path style="fill:#EFCDAF;" d="M500.853,217.092c0,0,1.743,1.304,2.044,1.538c0.272,0.211,0.961,0.494,1.264,0.17
						c0.297-0.317,0.14-0.719-0.158-1.104c-0.347-0.447-1.694-1.714-1.987-1.918C501.404,215.353,500.222,216.224,500.853,217.092z"
						/>
					<path style="fill:#EFCDAF;" d="M499.92,218.115c0,0,1.508,1.129,1.769,1.331c0.235,0.182,0.776,0.345,1.037,0.083
						c0.265-0.267,0.178-0.557-0.081-0.89c-0.3-0.387-1.466-1.483-1.72-1.66C500.397,216.61,499.374,217.364,499.92,218.115z"/>
					<path style="fill:#EFCDAF;" d="M499.242,219.073c0,0,1.328,0.994,1.557,1.172c0.207,0.161,0.684,0.304,0.913,0.073
						c0.233-0.235,0.157-0.491-0.071-0.784c-0.264-0.341-1.29-1.306-1.514-1.462C499.662,217.747,498.761,218.411,499.242,219.073z"
						/>
					<path style="fill:#EFCDAF;" d="M502.046,215.999c0,0,1.532,1.147,1.797,1.353c0.239,0.185,0.803,0.371,1.054,0.084
						c0.251-0.288,0.181-0.566-0.082-0.904c-0.305-0.393-1.489-1.507-1.747-1.687C502.531,214.469,501.491,215.236,502.046,215.999z
						"/>
				</g>
			</g>
		</g>
		<g>
			
				<linearGradient id="SVGID_00000151511090282135073340000016881003746724227475_" gradientUnits="userSpaceOnUse" x1="460.4635" y1="146.4066" x2="434.2969" y2="123.9067">
				<stop  offset="0" style="stop-color:#84CF9B"/>
				<stop  offset="1" style="stop-color:#79D3FD"/>
			</linearGradient>
			<circle style="fill:url(#SVGID_00000151511090282135073340000016881003746724227475_);" cx="448.617" cy="136.22" r="15.109"/>
			<path style="fill:#FFFFFF;" d="M438.897,133.514c1.71,0.393,4.928,1.489,7.425,4.436c0.108,0.127,0.302,0.125,0.391-0.016
				c0.781-1.231,4.276-6.221,11.562-9.669c0.267-0.126,0.496,0.239,0.265,0.422c-3.093,2.444-9.462,8.163-11.697,15.334
				c-0.071,0.228-0.38,0.246-0.462,0.022c-0.669-1.831-2.815-6.701-7.676-10.086C438.484,133.803,438.634,133.453,438.897,133.514z"
				/>
		</g>
		<g>
			<path style="fill:#FFFFFF;" d="M448.352,296.952H363.24c-1.419,0-2.57-1.15-2.57-2.57v0c0-1.419,1.151-2.57,2.57-2.57h85.111
				c1.419,0,2.57,1.151,2.57,2.57v0C450.921,295.802,449.771,296.952,448.352,296.952z"/>
			<path style="fill:#FFFFFF;" d="M448.352,308.757H363.24c-1.419,0-2.57-1.15-2.57-2.57l0,0c0-1.419,1.15-2.57,2.57-2.57h85.112
				c1.419,0,2.569,1.151,2.569,2.57v0C450.921,307.606,449.771,308.757,448.352,308.757z"/>
			<path style="fill:#FFFFFF;" d="M448.352,320.561H363.24c-1.419,0-2.57-1.15-2.57-2.57l0,0c0-1.419,1.15-2.57,2.57-2.57h85.112
				c1.419,0,2.57,1.15,2.57,2.57v0C450.921,319.411,449.771,320.561,448.352,320.561z"/>
			<path style="fill:#FFFFFF;" d="M448.352,332.365H363.24c-1.419,0-2.57-1.15-2.57-2.57l0,0c0-1.419,1.15-2.57,2.57-2.57h85.112
				c1.419,0,2.57,1.15,2.57,2.57l0,0C450.921,331.215,449.771,332.365,448.352,332.365z"/>
			<path style="fill:#FFFFFF;" d="M448.352,344.17H363.24c-1.419,0-2.57-1.151-2.57-2.57l0,0c0-1.419,1.151-2.57,2.57-2.57h85.111
				c1.419,0,2.57,1.151,2.57,2.57v0C450.921,343.019,449.771,344.17,448.352,344.17z"/>
		</g>
		<g>
			
				<linearGradient id="SVGID_00000044866458708325968500000008800502114546868122_" gradientUnits="userSpaceOnUse" x1="610.1735" y1="207.7397" x2="572.6736" y2="169.4064">
				<stop  offset="0" style="stop-color:#18288E"/>
				<stop  offset="1" style="stop-color:#79D3FD"/>
			</linearGradient>
			<path style="fill:url(#SVGID_00000044866458708325968500000008800502114546868122_);" d="M581.375,194.913
				c-2.167-2.917-3.304-6.645-2.824-10.657c0.799-6.683,6.169-12.098,12.848-12.928c9.059-1.126,16.768,5.909,16.768,14.744
				c0,8.079-6.201,14.539-14.274,14.851c-3.168,0.123-6.125-0.749-8.587-2.325c-0.167-0.107-0.376-0.119-0.552-0.028l-5.57,2.883
				c-0.24,0.124-0.502-0.127-0.387-0.372l2.636-5.603C581.521,195.292,581.497,195.077,581.375,194.913z"/>
			<g>
				<path style="fill:#FFFFFF;" d="M598.645,186.421c0,0.982,0.796,1.779,1.779,1.779c0.982,0,1.779-0.796,1.779-1.779
					s-0.797-1.779-1.779-1.779C599.442,184.642,598.645,185.438,598.645,186.421z"/>
				<path style="fill:#FFFFFF;" d="M591.525,186.421c0,0.982,0.797,1.779,1.779,1.779c0.982,0,1.779-0.796,1.779-1.779
					s-0.797-1.779-1.779-1.779C592.322,184.642,591.525,185.438,591.525,186.421z"/>
				<path style="fill:#FFFFFF;" d="M584.405,186.421c0,0.982,0.796,1.779,1.779,1.779c0.982,0,1.779-0.796,1.779-1.779
					s-0.797-1.779-1.779-1.779C585.202,184.642,584.405,185.438,584.405,186.421z"/>
			</g>
		</g>
		<g>
			
				<linearGradient id="SVGID_00000077324496959282135320000000722721559113454484_" gradientUnits="userSpaceOnUse" x1="186.1955" y1="215.9749" x2="154.5287" y2="183.9748">
				<stop  offset="0" style="stop-color:#7995FD"/>
				<stop  offset="1" style="stop-color:#54DEFF"/>
			</linearGradient>
			<path style="fill:url(#SVGID_00000077324496959282135320000000722721559113454484_);" d="M183.07,209.56
				c2.167-2.917,3.304-6.645,2.824-10.657c-0.799-6.683-6.169-12.098-12.848-12.928c-9.059-1.126-16.768,5.909-16.768,14.744
				c0,8.079,6.201,14.539,14.274,14.851c3.168,0.123,6.125-0.749,8.587-2.325c0.167-0.107,0.376-0.119,0.552-0.028l5.57,2.883
				c0.24,0.124,0.502-0.127,0.387-0.372l-2.636-5.603C182.923,209.939,182.948,209.724,183.07,209.56z"/>
			<g>
				<path style="fill:#FFFFFF;" d="M165.799,201.067c0,0.982-0.796,1.779-1.779,1.779c-0.982,0-1.779-0.796-1.779-1.779
					s0.797-1.779,1.779-1.779C165.003,199.288,165.799,200.085,165.799,201.067z"/>
				<path style="fill:#FFFFFF;" d="M172.919,201.067c0,0.982-0.797,1.779-1.779,1.779c-0.982,0-1.779-0.796-1.779-1.779
					s0.796-1.779,1.779-1.779C172.122,199.288,172.919,200.085,172.919,201.067z"/>
				<path style="fill:#FFFFFF;" d="M180.039,201.067c0,0.982-0.796,1.779-1.779,1.779c-0.982,0-1.779-0.796-1.779-1.779
					s0.796-1.779,1.779-1.779C179.243,199.288,180.039,200.085,180.039,201.067z"/>
			</g>
		</g>
		<g>
			
				<linearGradient id="SVGID_00000158732132852066006720000009294328290497732253_" gradientUnits="userSpaceOnUse" x1="523.6431" y1="103.3976" x2="551.4764" y2="132.0642">
				<stop  offset="0" style="stop-color:#FFFFFD"/>
				<stop  offset="1" style="stop-color:#54DEFF"/>
			</linearGradient>
			<path style="fill:url(#SVGID_00000158732132852066006720000009294328290497732253_);" d="M547.862,130.555h-22.755
				c-1.41,0-2.554-1.143-2.554-2.554v-22.755c0-1.41,1.143-2.554,2.554-2.554h22.755c1.411,0,2.554,1.143,2.554,2.554v22.755
				C550.416,129.412,549.273,130.555,547.862,130.555z"/>
			<g>
				
					<linearGradient id="SVGID_00000065771422258415892040000010540493113486322057_" gradientUnits="userSpaceOnUse" x1="529.7169" y1="103.4537" x2="549.4306" y2="123.1674">
					<stop  offset="0" style="stop-color:#00B5FF"/>
					<stop  offset="1" style="stop-color:#3049B9"/>
				</linearGradient>
				<path style="fill:url(#SVGID_00000065771422258415892040000010540493113486322057_);" d="M541.015,110.221
					c0,2.502-2.028,4.53-4.53,4.53c-2.502,0-4.531-2.028-4.531-4.53c0-2.502,2.028-4.53,4.531-4.53
					C538.987,105.691,541.015,107.719,541.015,110.221z"/>
				
					<linearGradient id="SVGID_00000068677525983419321570000001661131382624914836_" gradientUnits="userSpaceOnUse" x1="522.8301" y1="110.3406" x2="542.5437" y2="130.0542">
					<stop  offset="0" style="stop-color:#00B5FF"/>
					<stop  offset="1" style="stop-color:#3049B9"/>
				</linearGradient>
				<path style="fill:url(#SVGID_00000068677525983419321570000001661131382624914836_);" d="M536.649,115.941
					c-4.87-0.089-8.855,4.05-8.855,8.92v1.678c0,0.562,0.455,1.017,1.017,1.017h15.347c0.562,0,1.017-0.455,1.017-1.017v-1.906
					C545.175,119.884,541.372,116.027,536.649,115.941z"/>
			</g>
		</g>
		<g>
			
				<linearGradient id="SVGID_00000023968568760410478870000014685093032488532402_" gradientUnits="userSpaceOnUse" x1="522.0852" y1="340.9763" x2="463.085" y2="297.6427">
				<stop  offset="0" style="stop-color:#7995FD"/>
				<stop  offset="1" style="stop-color:#54DEFF"/>
			</linearGradient>
			<path style="opacity:0.8;fill:url(#SVGID_00000023968568760410478870000014685093032488532402_);" d="M517.555,341.361h-50.6
				c-1.807,0-3.272-1.465-3.272-3.272v-38.044c0-1.807,1.465-3.272,3.272-3.272h50.6c1.807,0,3.272,1.465,3.272,3.272v38.044
				C520.827,339.896,519.362,341.361,517.555,341.361z"/>
			<g>
				<path style="fill:#FFFFFF;" d="M485.16,309.415c0,4.487-3.638,8.125-8.125,8.125c-4.488,0-8.125-3.638-8.125-8.125
					c0-4.488,3.638-8.125,8.125-8.125C481.522,301.29,485.16,304.927,485.16,309.415z"/>
				<g>
					
						<linearGradient id="SVGID_00000121266565913804342570000017797018760851349410_" gradientUnits="userSpaceOnUse" x1="469.3686" y1="302.8883" x2="484.2436" y2="315.555">
						<stop  offset="0" style="stop-color:#00B5FF"/>
						<stop  offset="1" style="stop-color:#3049B9"/>
					</linearGradient>
					<path style="fill:url(#SVGID_00000121266565913804342570000017797018760851349410_);" d="M477.037,301.907
						c-4.143,0-7.512,3.367-7.512,7.506c0,2.354,1.123,4.6,3.003,6.007c1.302,0.985,2.861,1.505,4.509,1.505
						c1.646,0,3.203-0.52,4.503-1.504c1.881-1.408,3.003-3.653,3.003-6.008C484.543,305.274,481.176,301.907,477.037,301.907z
						 M481.377,314.846v-0.047c0-1.199-0.485-2.284-1.27-3.075c-0.785-0.785-1.87-1.27-3.069-1.27c-2.404,0-4.345,1.946-4.345,4.345
						v0.047c-1.642-1.311-2.623-3.322-2.623-5.433c0-3.838,3.126-6.961,6.967-6.961c3.838,0,6.962,3.123,6.962,6.961
						C483.999,311.524,483.019,313.534,481.377,314.846z"/>
					
						<linearGradient id="SVGID_00000150816713521499776490000018214393787141233537_" gradientUnits="userSpaceOnUse" x1="470.7105" y1="301.3124" x2="485.5854" y2="313.9791">
						<stop  offset="0" style="stop-color:#00B5FF"/>
						<stop  offset="1" style="stop-color:#3049B9"/>
					</linearGradient>
					<path style="fill:url(#SVGID_00000150816713521499776490000018214393787141233537_);" d="M477.035,303.739
						c-1.634,0-2.959,1.325-2.959,2.959c0,1.634,1.325,2.959,2.959,2.959c1.634,0,2.959-1.325,2.959-2.959
						C479.993,305.064,478.669,303.739,477.035,303.739z"/>
				</g>
			</g>
			<path style="fill:#FFFFFF;" d="M516.655,303.193h-25.912c-0.525,0-0.952-0.426-0.952-0.952l0,0c0-0.525,0.426-0.951,0.952-0.951
				h25.912c0.526,0,0.952,0.426,0.952,0.951l0,0C517.606,302.767,517.18,303.193,516.655,303.193z"/>
			<path style="fill:#FFFFFF;" d="M516.655,308.073h-25.912c-0.525,0-0.952-0.426-0.952-0.952l0,0c0-0.526,0.426-0.952,0.952-0.952
				h25.912c0.526,0,0.952,0.426,0.952,0.952l0,0C517.606,307.647,517.18,308.073,516.655,308.073z"/>
			<path style="fill:#FFFFFF;" d="M516.655,312.953h-25.912c-0.525,0-0.952-0.426-0.952-0.952l0,0c0-0.525,0.426-0.951,0.952-0.951
				h25.912c0.526,0,0.952,0.426,0.952,0.951l0,0C517.606,312.526,517.18,312.953,516.655,312.953z"/>
			<path style="fill:#FFFFFF;" d="M516.655,317.832h-25.912c-0.525,0-0.952-0.426-0.952-0.952l0,0c0-0.526,0.426-0.952,0.952-0.952
				h25.912c0.526,0,0.952,0.426,0.952,0.952l0,0C517.606,317.406,517.18,317.832,516.655,317.832z"/>
			<path style="fill:#FFFFFF;" d="M516.655,322.712h-48.477c-0.526,0-0.952-0.426-0.952-0.952l0,0c0-0.526,0.426-0.952,0.952-0.952
				h48.477c0.526,0,0.952,0.426,0.952,0.952l0,0C517.606,322.286,517.18,322.712,516.655,322.712z"/>
			<path style="fill:#FFFFFF;" d="M516.655,327.592h-48.477c-0.526,0-0.952-0.426-0.952-0.952l0,0c0-0.526,0.426-0.952,0.952-0.952
				h48.477c0.526,0,0.952,0.426,0.952,0.952l0,0C517.606,327.166,517.18,327.592,516.655,327.592z"/>
			<path style="fill:#FFFFFF;" d="M516.655,332.472h-48.477c-0.526,0-0.952-0.426-0.952-0.952l0,0c0-0.526,0.426-0.952,0.952-0.952
				h48.477c0.526,0,0.952,0.426,0.952,0.952l0,0C517.606,332.046,517.18,332.472,516.655,332.472z"/>
			<path style="fill:#FFFFFF;" d="M516.655,337.352h-48.477c-0.526,0-0.952-0.426-0.952-0.951l0,0c0-0.526,0.426-0.952,0.952-0.952
				h48.477c0.526,0,0.952,0.426,0.952,0.952l0,0C517.606,336.926,517.18,337.352,516.655,337.352z"/>
		</g>
		<g style="opacity:0.5;">
			
				<linearGradient id="SVGID_00000165206788459711523910000007539295331847593890_" gradientUnits="userSpaceOnUse" x1="651.1402" y1="459.4125" x2="585.5377" y2="329.4531">
				<stop  offset="0" style="stop-color:#7995FD"/>
				<stop  offset="1" style="stop-color:#54DEFF"/>
			</linearGradient>
			<path style="fill:url(#SVGID_00000165206788459711523910000007539295331847593890_);" d="M614.06,383.947
				c0.297-1.355,0.713-4.357-0.135-8.546c-1.177-5.81-8.684-18.15-19.63-19.604c-0.436-0.058-0.748,0.415-0.523,0.792
				c1.159,1.945,3.896,6.706,5.478,10.842c2.799,7.317,6.886,15.009,13.949,17.146c1.789,3.839,3.334,8.495,3.79,13.732
				c0.025,0.286,0.271,0.501,0.558,0.48l0.003,0c0.292-0.021,0.514-0.279,0.489-0.571
				C617.563,392.763,615.934,387.92,614.06,383.947z"/>
			
				<linearGradient id="SVGID_00000063601268878430393690000000343919725036651935_" gradientUnits="userSpaceOnUse" x1="660.6283" y1="466.814" x2="589.0356" y2="324.9881">
				<stop  offset="0" style="stop-color:#7995FD"/>
				<stop  offset="1" style="stop-color:#54DEFF"/>
			</linearGradient>
			<path style="opacity:0.8;fill:url(#SVGID_00000063601268878430393690000000343919725036651935_);" d="M618.538,381.579
				c0.803-2.545,2.48-9.441,0.059-16.999c-2.852-8.904-12.882-16.969-16.314-19.525c-0.396-0.295-0.942,0.068-0.822,0.547
				c1,4.022,4.025,15.764,6.593,21.336c2.666,5.783,7.653,12.488,9.449,14.825c2.271,11.659,2.276,21.187,2.238,23.453
				c-0.005,0.286,0.22,0.52,0.505,0.531l0.001,0c0.295,0.012,0.541-0.219,0.546-0.514
				C620.832,402.912,620.822,393.319,618.538,381.579z"/>
			
				<linearGradient id="SVGID_00000075143871184215230680000007006087498807154582_" gradientUnits="userSpaceOnUse" x1="681.0611" y1="473.1864" x2="590.129" y2="293.0487">
				<stop  offset="0" style="stop-color:#7995FD"/>
				<stop  offset="1" style="stop-color:#54DEFF"/>
			</linearGradient>
			<path style="opacity:0.5;fill:url(#SVGID_00000075143871184215230680000007006087498807154582_);" d="M642.621,349.484
				c-3.246,1.922-12.86,8.242-15.719,17.17c-2.416,7.543-0.68,13.129,0.155,15.143c-3.046,11.396-3.424,23.541-3.47,26.198
				c-0.005,0.294,0.232,0.531,0.526,0.531h0.001c0.287,0,0.521-0.227,0.526-0.513c0.044-2.605,0.414-14.649,3.424-25.917
				c1.633-1.428,6.116-5.68,8.771-11.439c2.594-5.627,5.608-16.903,6.562-20.589C643.515,349.613,643.026,349.245,642.621,349.484z"
				/>
			
				<linearGradient id="SVGID_00000097500765464890519580000003292647885324755844_" gradientUnits="userSpaceOnUse" x1="698.5578" y1="507.1807" x2="593.7079" y2="299.4717">
				<stop  offset="0" style="stop-color:#7995FD"/>
				<stop  offset="1" style="stop-color:#54DEFF"/>
			</linearGradient>
			<path style="fill:url(#SVGID_00000097500765464890519580000003292647885324755844_);" d="M638.337,335.955
				c-0.018-0.422-0.495-0.653-0.835-0.402c-2.698,1.99-11.601,9.222-14.248,19.776c-1.751,6.985,0.545,12.367,1.507,14.201
				c-4.499,17.655-3.264,34.367-2.972,37.526c0.027,0.294,0.29,0.505,0.584,0.471l0.001,0c0.284-0.033,0.49-0.283,0.463-0.567
				c-0.285-3.077-1.517-19.623,2.927-37.106c1.645-1.081,6.316-4.849,9.884-14.613C638.525,347.37,638.454,338.778,638.337,335.955z
				"/>
			<g>
				
					<linearGradient id="SVGID_00000077282781310248862910000010594191259175479457_" gradientUnits="userSpaceOnUse" x1="631.9842" y1="427.6651" x2="585.7184" y2="336.0119">
					<stop  offset="0" style="stop-color:#7995FD"/>
					<stop  offset="1" style="stop-color:#54DEFF"/>
				</linearGradient>
				<path style="fill:url(#SVGID_00000077282781310248862910000010594191259175479457_);" d="M611.74,425.699h18.123
					c0.258,0,0.477-0.187,0.519-0.441l4.737-28.947c0.284-1.735-1.055-3.311-2.813-3.311h-23.008c-1.758,0-3.097,1.576-2.813,3.311
					l4.737,28.947C611.263,425.513,611.483,425.699,611.74,425.699z"/>
			</g>
		</g>
		<g>
			<polygon style="fill:#3156AA;" points="280.856,142.262 257.403,158.137 233.949,142.262 			"/>
			<path style="fill:#3156AA;" d="M280.856,142.262l-21.692-22.119c-0.967-0.986-2.555-0.986-3.521,0l-21.692,22.119H280.856z"/>
			<g>
				<path style="fill:#CCF2FF;" d="M277.003,164.88h-39.201v-37.208c0-0.861,0.698-1.559,1.559-1.559h36.084
					c0.861,0,1.559,0.698,1.559,1.559V164.88z"/>
				
					<linearGradient id="SVGID_00000163784540910997089850000004120835215545404860_" gradientUnits="userSpaceOnUse" x1="237.8018" y1="128.7102" x2="277.0031" y2="128.7102">
					<stop  offset="0" style="stop-color:#00B5FF"/>
					<stop  offset="1" style="stop-color:#3049B9"/>
				</linearGradient>
				<path style="fill:url(#SVGID_00000163784540910997089850000004120835215545404860_);" d="M277.003,131.306h-39.201v-3.633
					c0-0.861,0.698-1.559,1.559-1.559h36.084c0.861,0,1.559,0.698,1.559,1.559V131.306z"/>
				<path style="fill:#FFFFFF;" d="M242.047,128.71c0,0.61-0.494,1.104-1.104,1.104s-1.104-0.494-1.104-1.104
					c0-0.61,0.494-1.104,1.104-1.104S242.047,128.1,242.047,128.71z"/>
				<path style="fill:#FFFFFF;" d="M245.661,128.71c0,0.61-0.494,1.104-1.104,1.104c-0.61,0-1.104-0.494-1.104-1.104
					c0-0.61,0.494-1.104,1.104-1.104C245.167,127.606,245.661,128.1,245.661,128.71z"/>
				<path style="fill:#FFFFFF;" d="M249.276,128.71c0,0.61-0.494,1.104-1.104,1.104s-1.104-0.494-1.104-1.104
					c0-0.61,0.494-1.104,1.104-1.104S249.276,128.1,249.276,128.71z"/>
				<g>
					<g>
						<path style="fill:#FFFFFF;" d="M249.783,144.495h-5.998l-1.182,2.776h-2.296l5.397-11.994h2.195l5.413,11.994h-2.329
							L249.783,144.495z M249.047,142.747l-2.263-5.242l-2.244,5.242H249.047z"/>
					</g>
					<rect x="256.128" y="135.068" style="fill:#FFFFFF;" width="17.77" height="1.117"/>
					<rect x="256.128" y="138.09" style="fill:#FFFFFF;" width="17.77" height="1.117"/>
					<rect x="256.128" y="141.113" style="fill:#FFFFFF;" width="17.77" height="1.117"/>
					<rect x="256.128" y="144.135" style="fill:#FFFFFF;" width="17.77" height="1.117"/>
					<rect x="256.128" y="147.158" style="fill:#FFFFFF;" width="17.77" height="1.117"/>
					<rect x="240.943" y="150.18" style="fill:#FFFFFF;" width="32.955" height="1.117"/>
					<rect x="240.943" y="153.203" style="fill:#FFFFFF;" width="32.955" height="1.117"/>
					<rect x="240.943" y="156.226" style="fill:#FFFFFF;" width="32.955" height="1.117"/>
					<rect x="240.943" y="159.248" style="fill:#FFFFFF;" width="32.955" height="1.117"/>
				</g>
			</g>
			
				<linearGradient id="SVGID_00000089561794109726052910000013567573139153564303_" gradientUnits="userSpaceOnUse" x1="223.2378" y1="186.2165" x2="271.913" y2="145.127">
				<stop  offset="0" style="stop-color:#FFFFFD"/>
				<stop  offset="1" style="stop-color:#54DEFF"/>
			</linearGradient>
			<path style="fill:url(#SVGID_00000089561794109726052910000013567573139153564303_);" d="M280.851,142.264v28.925
				c0,0.86-0.385,1.631-0.995,2.142c-0.493,0.421-1.129,0.672-1.819,0.672h-41.263c-1.559,0-2.822-1.263-2.822-2.814v-28.925
				l23.45,15.869h0.009L280.851,142.264z"/>
			
				<linearGradient id="SVGID_00000135677695949985180680000006275866758605116048_" gradientUnits="userSpaceOnUse" x1="286.6552" y1="172.485" x2="257.5764" y2="135.5043">
				<stop  offset="0" style="stop-color:#00B5FF"/>
				<stop  offset="1" style="stop-color:#3049B9"/>
			</linearGradient>
			<path style="fill:url(#SVGID_00000135677695949985180680000006275866758605116048_);" d="M280.851,142.264v28.925
				c0,0.86-0.385,1.631-0.995,2.142l-22.446-15.197L280.851,142.264z"/>
		</g>
		
			<linearGradient id="SVGID_00000163065010024318217570000018380158394983299990_" gradientUnits="userSpaceOnUse" x1="54.7017" y1="425.6992" x2="695.2983" y2="425.6992">
			<stop  offset="0" style="stop-color:#7995FD"/>
			<stop  offset="1" style="stop-color:#271A74"/>
		</linearGradient>
		
			<line style="fill:none;stroke:url(#SVGID_00000163065010024318217570000018380158394983299990_);stroke-width:2;stroke-linecap:round;stroke-miterlimit:10;" x1="55.702" y1="425.699" x2="694.298" y2="425.699"/>
	</g>
</g>
</svg>
