<svg id="Layer_1" data-name="Layer 1" xmlns="http://www.w3.org/2000/svg" width="512" height="512" viewBox="0 0 512 512"><defs><style>.cls-1{fill:#262262;fill-rule:evenodd;}</style></defs><g id="Layer_1-2" data-name="Layer_1"><g id="_546295704" data-name=" 546295704"><path id="_546297408" data-name=" 546297408" class="cls-1" d="M118.3,195.4V221A46,46,0,0,0,132,254l1.5,1.4.5.4a45.8,45.8,0,0,0,30.7,11.7h.3A46.6,46.6,0,0,0,211.1,221V194.7a35.7,35.7,0,0,0-1.5-10.6c-2-6.5-5.2-10.5-9.6-12.3-9.2-3.7-21.3,2.9-21.5,2.9a5,5,0,0,1-6.6-1.3c-9.9-12.3-29.1-8.4-30.9-8-14.4,4.4-18.7,12.1-20.8,18.2a29.4,29.4,0,0,0-1.7,7.5,30.2,30.2,0,0,0-.2,4.3Z"/><path id="_546297120" data-name=" 546297120" class="cls-1" d="M105.9,125.3l11.4,12.4a5.6,5.6,0,0,1,1.4,4.1,4.9,4.9,0,0,1-2.1,3.7c-.8.7-17.3,13.5-7.5,38.5.3-1.3.7-2.6,1.1-3.9,4.3-12.3,13.5-20.4,27.9-24.8h.3c1.1-.3,24-5.7,38.8,8.5,5.7-2.3,16.7-5.7,26.7-1.7,7.5,3,12.8,9.4,15.7,18.9,2.9-9.6,3.2-21-6.4-36.6a6.1,6.1,0,0,1-.5-1.2c-.5-1.3-11.7-33.2-76-17.9H105.9Z"/><path id="_546296976" data-name=" 546296976" class="cls-1" d="M170,321.1v69.8h75.3V367a5.2,5.2,0,0,1,5.3-5.2,5.2,5.2,0,0,1,5.2,5.2v23.9h33.3a3.6,3.6,0,0,0,3.6-3.6V352.9a42.7,42.7,0,0,0-27.5-39.7l-27.9-9.1-31.5,32.4a10.1,10.1,0,0,1-7.1,2.9,9.9,9.9,0,0,1-5.7-1.8Z"/><path id="_546296856" data-name=" 546296856" class="cls-1" d="M92.2,304.1l-27.9,9.1a42.5,42.5,0,0,0-27.5,39.7v34.4a3.6,3.6,0,0,0,3.6,3.6H73.6V367a5.2,5.2,0,0,1,5.3-5.2,5.2,5.2,0,0,1,5.2,5.2v23.9h75.3V321.1l-22.9,16.5a9.9,9.9,0,0,1-5.7,1.8,10.1,10.1,0,0,1-7.1-2.9Z"/><path id="_546297048" data-name=" 546297048" class="cls-1" d="M129.3,291.9l-26,8.5,27.5,28.3,24.9-17.8Z"/><path id="_546297192" data-name=" 546297192" class="cls-1" d="M164.7,278a55.8,55.8,0,0,1-29.2-8.1v13.5l29.2,21,29.3-21V269.8a56.3,56.3,0,0,1-29,8.2Z"/><path id="_546296760" data-name=" 546296760" class="cls-1" d="M200.2,291.9l-26.4,19,24.8,17.8,27.5-28.3Z"/><path id="_546296568" data-name=" 546296568" class="cls-1" d="M389.2,301.3,413.7,417a6.8,6.8,0,0,0,2.9,4,7.3,7.3,0,0,0,5.9.8L448,415a7.6,7.6,0,0,0,4.7-3.7,6.5,6.5,0,0,0,.5-4.9L416.6,294c-2.6,1.1-5.2,2-7.9,2.9h-.1l-2.7.8h0l-2.8.8h-.8a97.9,97.9,0,0,1-13.1,2.6Z"/><path id="_546297144" data-name=" 546297144" class="cls-1" d="M421.1,169v16.6h12c3.9,0,7.2-1,9.3-2.9a7.2,7.2,0,0,0,2.5-5.4c0-4.2-3.7-8.3-11.8-8.3Z"/><path id="_546295848" data-name=" 546295848" class="cls-1" d="M421.1,196.1v16.7h18.7a8.4,8.4,0,0,0,0-16.7Z"/><path id="_546295824" data-name=" 546295824" class="cls-1" d="M355.2,190.9c0,12,7.9,21.9,17.6,21.9s17.6-9.9,17.6-21.9S382.5,169,372.8,169,355.2,178.8,355.2,190.9Z"/><path id="_546295896" data-name=" 546295896" class="cls-1" d="M335,201.2a22.5,22.5,0,0,1-45,0,5.2,5.2,0,0,1,5.2-5.3,5.3,5.3,0,0,1,5.3,5.3,12,12,0,0,0,24,0V163.7a5.2,5.2,0,0,1,5.3-5.2,5.2,5.2,0,0,1,5.2,5.2ZM348.2,93.4a100.9,100.9,0,0,0,33.9,198.1h.4a109.8,109.8,0,0,0,17-2.9l.9-.2,2.4-.7h.3l2.1-.6.5-.2,1.8-.6.7-.3,1.7-.6.7-.2,1.7-.7.6-.3,1.8-.7.5-.3,1.8-.8.5-.2A100.9,100.9,0,0,0,348.2,93.4Zm52.7,97.5c0,17.8-12.6,32.4-28.1,32.4s-28.1-14.6-28.1-32.4,12.6-32.5,28.1-32.5S400.9,173,400.9,190.9Zm-62.8,51.9h72.4a5.3,5.3,0,0,1,0,10.6H338.1a5.3,5.3,0,0,1,0-10.6Zm77.7-19.5a5.2,5.2,0,0,1-5.2-5.3V190.9h0V163.7a5.2,5.2,0,0,1,5.2-5.2h17.3c14.6,0,22.3,9.4,22.3,18.8a17.8,17.8,0,0,1-4.6,11.9,18.8,18.8,0,0,1-11,34.1Zm-5.3-84.4H338.1a5.2,5.2,0,0,1-5.2-5.3,5.2,5.2,0,0,1,5.2-5.2h72.4a5.2,5.2,0,0,1,5.2,5.2A5.2,5.2,0,0,1,410.5,138.9Z"/></g></g></svg>