<svg enable-background="new 0 0 512 512" height="512" viewBox="0 0 512 512" width="512" xmlns="http://www.w3.org/2000/svg" xmlns:xlink="http://www.w3.org/1999/xlink"><linearGradient id="lg1"><stop offset="0" stop-color="#fe652b"/><stop offset="1" stop-color="#ffff49"/></linearGradient><linearGradient id="SVGID_1_" gradientUnits="userSpaceOnUse" x1="198.926" x2="198.926" xlink:href="#lg1" y1="436.571" y2="382.044"/><linearGradient id="lg2"><stop offset="0" stop-color="#e2dec3"/><stop offset=".9944" stop-color="#fff"/></linearGradient><linearGradient id="SVGID_2_" gradientUnits="userSpaceOnUse" x1="198.935" x2="198.935" xlink:href="#lg2" y1="386.921" y2="327.987"/><linearGradient id="lg3"><stop offset="0" stop-color="#f80314"/><stop offset="1" stop-color="#fed59c"/></linearGradient><linearGradient id="SVGID_3_" gradientUnits="userSpaceOnUse" x1="324.794" x2="324.794" xlink:href="#lg3" y1="436.571" y2="382.044"/><linearGradient id="SVGID_4_" gradientUnits="userSpaceOnUse" x1="324.803" x2="324.803" xlink:href="#lg2" y1="386.921" y2="327.987"/><linearGradient id="SVGID_5_" gradientUnits="userSpaceOnUse" x1="450.662" x2="450.662" xlink:href="#lg1" y1="436.571" y2="382.044"/><linearGradient id="SVGID_6_" gradientUnits="userSpaceOnUse" x1="450.671" x2="450.671" xlink:href="#lg2" y1="386.921" y2="327.987"/><linearGradient id="SVGID_7_" gradientUnits="userSpaceOnUse" x1="290.502" x2="290.502" xlink:href="#lg1" y1="261.656" y2="75.427"/><linearGradient id="SVGID_8_" gradientUnits="userSpaceOnUse" x1="105.689" x2="105.689" xlink:href="#lg2" y1="410.204" y2="128.042"/><linearGradient id="SVGID_9_" gradientUnits="userSpaceOnUse" x1="82.37" x2="82.37" xlink:href="#lg3" y1="137.088" y2="87.487"/><g id="_x32_5_Calssrooom"><g><path d="m187.38 382.044c-2.623 2.601-5.352 4.565-8.082 6.151-3.577 2.091-7.181 3.55-10.652 4.913-9.46 3.741-17.887 6.943-21.968 21.494-1.43 5.675-2.438 10.811-1.934 21.969h108.354c.531-11.158-.504-16.294-1.907-21.969-4.082-14.55-12.534-17.753-21.994-21.494-3.445-1.363-7.049-2.821-10.626-4.913-2.73-1.586-5.458-3.551-8.082-6.151" fill="url(#SVGID_1_)"/><path d="m222.784 352.974c0 4.637-.822 9.169-2.226 13.33-2.173 6.465-5.778 12.03-10.07 15.74-3.551 3.074-7.553 4.877-11.554 4.877-4.028 0-8.002-1.802-11.554-4.877-4.292-3.71-7.896-9.275-10.07-15.74-1.403-4.16-2.225-8.692-2.225-13.33 0-5.617 1.032-10.175 2.887-13.806 3.976-7.79 11.739-11.182 20.961-11.182 9.196 0 16.959 3.392 20.934 11.182 1.883 3.632 2.917 8.189 2.917 13.806z" fill="url(#SVGID_2_)"/><path d="m313.249 382.044c-2.623 2.601-5.353 4.565-8.083 6.151-3.576 2.091-7.181 3.55-10.652 4.913-9.46 3.741-17.887 6.943-21.967 21.494-1.43 5.675-2.438 10.811-1.934 21.969h108.354c.53-11.158-.504-16.294-1.908-21.969-4.081-14.55-12.534-17.753-21.994-21.494-3.445-1.363-7.048-2.821-10.626-4.913-2.73-1.586-5.458-3.551-8.082-6.151" fill="url(#SVGID_3_)"/><path d="m348.652 352.974c0 4.637-.822 9.169-2.226 13.33-2.173 6.465-5.777 12.03-10.07 15.74-3.551 3.074-7.552 4.877-11.554 4.877-4.027 0-8.002-1.802-11.553-4.877-4.293-3.71-7.896-9.275-10.07-15.74-1.404-4.16-2.226-8.692-2.226-13.33 0-5.617 1.033-10.175 2.888-13.806 3.975-7.79 11.739-11.182 20.96-11.182 9.196 0 16.96 3.392 20.935 11.182 1.882 3.632 2.916 8.189 2.916 13.806z" fill="url(#SVGID_4_)"/><path d="m439.116 382.044c-2.623 2.601-5.352 4.565-8.082 6.151-3.577 2.091-7.181 3.55-10.652 4.913-9.46 3.741-17.887 6.943-21.968 21.494-1.43 5.675-2.438 10.811-1.934 21.969h108.354c.53-11.158-.504-16.294-1.907-21.969-4.082-14.55-12.535-17.753-21.995-21.494-3.445-1.363-7.048-2.821-10.626-4.913-2.73-1.586-5.459-3.551-8.083-6.151" fill="url(#SVGID_5_)"/><path d="m474.52 352.974c0 4.637-.822 9.169-2.227 13.33-2.172 6.465-5.777 12.03-10.07 15.74-3.551 3.074-7.552 4.877-11.553 4.877-4.028 0-8.002-1.802-11.554-4.877-4.293-3.71-7.896-9.275-10.07-15.74-1.403-4.16-2.225-8.692-2.225-13.33 0-5.617 1.032-10.175 2.887-13.806 3.976-7.79 11.739-11.182 20.961-11.182 9.195 0 16.959 3.392 20.934 11.182 1.883 3.632 2.917 8.189 2.917 13.806z" fill="url(#SVGID_6_)"/><path d="m153.731 171.22v78.063c0 6.824 5.804 12.373 12.883 12.373h123.92 123.855c7.142 0 12.883-5.549 12.883-12.373v-161.42c0-6.824-5.741-12.436-12.883-12.436h-247.775c-7.079 0-12.883 5.612-12.883 12.436v59.186" fill="url(#SVGID_7_)"/><path d="m199.504 147.692c-17.347 10.862-59.296 32.411-80.613 34.088l.379 215.874c0 6.931-5.617 12.55-12.549 12.55-6.441 0-11.838-4.877-12.486-11.285l-11.19-115.408-11.19 115.409c-.649 6.408-6.044 11.285-12.486 11.285-6.931 0-12.55-5.619-12.55-12.55l1.409-214.552c-8.201 4.837-20.916 18.208-19.001 77.129.194 6.003-4.593 11.028-10.6 11.028-5.491 0-10.08-4.23-10.58-9.699-9.659-105.651 52.646-104.472 52.646-104.472 16.941-.777 33.428-.455 48.734 1.07 16.545 1.027 57.711-14.407 78.388-28.289 5.317-3.57 12.533-1.75 15.264 4.041l.243.514c2.292 4.857.626 10.484-3.818 13.267z" fill="url(#SVGID_8_)"/><path d="m106.71 107.436c3.309 17.471-11.723 32.501-29.192 29.192-9.705-1.839-17.644-9.777-19.486-19.482-3.317-17.475 11.721-32.513 29.196-29.197 9.706 1.841 17.643 9.781 19.482 19.487z" fill="url(#SVGID_9_)"/><g fill="#1a3f6c"><path d="m166.16 387.616c-9.576 3.78-20.439 8.078-25.325 25.522-1.475 5.859-2.651 11.694-2.11 23.71.141 3.216 2.792 5.749 6.016 5.749h108.361c3.216 0 5.867-2.525 6.016-5.741.565-11.898-.557-17.545-2.133-23.875-4.839-17.278-15.702-21.569-25.576-25.482-3.522-1.38-6.682-2.675-9.812-4.51-.85-.493-1.608-1.046-2.387-1.586 2.945-3.795 5.408-8.258 7.061-13.174 1.686-5.004 2.541-10.133 2.541-15.255 0-6.4-1.208-11.976-3.576-16.541-4.761-9.333-14.102-14.471-26.298-14.471-12.212 0-21.569 5.137-26.329 14.471-2.353 4.612-3.545 10.18-3.545 16.541 0 5.122.855 10.251 2.541 15.255 1.657 4.924 4.12 9.385 7.057 13.173-.785.543-1.549 1.099-2.406 1.596-3.178 1.857-6.449 3.19-10.096 4.618zm61.114 11.208c8.965 3.545 14.886 5.882 18.071 17.231 1.043 4.243 1.827 8 1.875 14.494h-96.59c.047-6.565.824-10.259 1.843-14.322 3.239-11.529 9.153-13.867 18.361-17.514 3.671-1.427 7.576-3.02 11.49-5.31 1.953-1.135 3.742-2.392 5.447-3.732 3.589 2.115 7.372 3.27 11.165 3.27 3.783 0 7.568-1.15 11.159-3.265 1.7 1.338 3.485 2.591 5.429 3.72 3.852 2.251 7.624 3.796 11.75 5.428zm-43.938-56.918c2.675-5.239 7.922-7.898 15.6-7.898 7.655 0 12.894 2.659 15.584 7.929 1.49 2.871 2.243 6.588 2.243 11.035 0 3.804-.643 7.647-1.914 11.412-1.812 5.388-4.761 10.047-8.306 13.106-2.565 2.227-5.2 3.404-7.608 3.404-3.051 0-5.82-1.851-7.616-3.404-3.537-3.059-6.486-7.71-8.298-13.106-1.271-3.765-1.914-7.608-1.914-11.412.002-4.439.755-8.164 2.229-11.066z"/><path d="m292.034 387.608c-9.576 3.788-20.431 8.078-25.333 25.529-1.475 5.859-2.651 11.694-2.102 23.71.149 3.216 2.792 5.749 6.016 5.749h108.353c3.216 0 5.867-2.525 6.016-5.741.565-11.945-.557-17.576-2.133-23.875-4.839-17.278-15.702-21.569-25.576-25.482-3.506-1.373-6.659-2.667-9.812-4.51-.85-.493-1.608-1.046-2.387-1.586 2.945-3.795 5.408-8.258 7.061-13.174 1.686-5.004 2.541-10.133 2.541-15.255 0-6.4-1.208-11.976-3.576-16.541-4.761-9.333-14.102-14.471-26.298-14.471-12.212 0-21.569 5.137-26.329 14.471-2.353 4.612-3.545 10.18-3.545 16.541 0 5.122.855 10.251 2.541 15.255 1.656 4.923 4.119 9.384 7.056 13.174-.784.543-1.548 1.099-2.405 1.595-3.178 1.858-6.448 3.191-10.088 4.611zm61.106 11.216c8.965 3.545 14.886 5.882 18.071 17.239 1.051 4.22 1.835 7.969 1.875 14.486h-96.58c.039-6.565.816-10.259 1.835-14.314 3.247-11.537 9.161-13.882 18.361-17.522 3.671-1.427 7.576-3.02 11.49-5.31 1.952-1.134 3.74-2.39 5.445-3.73 3.596 2.116 7.383 3.268 11.167 3.268 3.783 0 7.568-1.15 11.16-3.265 1.701 1.338 3.487 2.592 5.436 3.72 3.874 2.267 7.623 3.804 11.74 5.428zm-43.937-56.918c2.674-5.239 7.922-7.898 15.6-7.898 7.655 0 12.894 2.659 15.584 7.929 1.49 2.871 2.243 6.588 2.243 11.035 0 3.804-.643 7.647-1.914 11.412-1.812 5.388-4.761 10.047-8.306 13.106-2.565 2.227-5.2 3.404-7.608 3.404-3.043 0-5.82-1.851-7.616-3.404-3.537-3.059-6.486-7.71-8.298-13.106-1.271-3.765-1.914-7.608-1.914-11.412.002-4.439.755-8.164 2.229-11.066z"/><path d="m508.725 412.973c-4.847-17.278-15.718-21.569-25.584-25.474-3.506-1.373-6.659-2.667-9.804-4.51-.851-.494-1.612-1.048-2.393-1.589 2.944-3.794 5.407-8.256 7.06-13.172 1.686-5.004 2.541-10.133 2.541-15.255 0-6.4-1.208-11.976-3.576-16.541-4.761-9.333-14.102-14.471-26.298-14.471-12.22 0-21.569 5.137-26.322 14.463-2.353 4.612-3.553 10.18-3.553 16.549 0 5.122.855 10.251 2.541 15.255 1.652 4.916 4.116 9.378 7.058 13.173-.785.544-1.55 1.1-2.407 1.596-3.176 1.859-6.447 3.192-10.086 4.612-9.576 3.788-20.431 8.078-25.333 25.529-1.467 5.843-2.643 11.663-2.102 23.71.141 3.216 2.792 5.749 6.016 5.749h108.353c3.216 0 5.867-2.525 6.016-5.741.563-11.923-.559-17.562-2.127-23.883zm-73.647-71.067c2.674-5.239 7.914-7.898 15.592-7.898 7.655 0 12.894 2.659 15.584 7.929 1.49 2.871 2.243 6.588 2.243 11.035 0 3.804-.643 7.647-1.914 11.412-1.812 5.388-4.761 10.047-8.306 13.106-2.565 2.227-5.2 3.404-7.608 3.404-3.043 0-5.82-1.851-7.616-3.404-3.537-3.059-6.486-7.718-8.298-13.106-1.271-3.765-1.914-7.608-1.914-11.412.001-4.447.754-8.164 2.237-11.066zm-32.706 88.643c.047-6.58.824-10.267 1.835-14.314 3.247-11.537 9.161-13.882 18.361-17.522 3.671-1.427 7.576-3.02 11.482-5.302 1.952-1.133 3.743-2.391 5.454-3.737 3.596 2.116 7.382 3.267 11.166 3.267 3.785 0 7.572-1.151 11.165-3.268 1.703 1.339 3.488 2.593 5.431 3.723 3.867 2.259 7.624 3.804 11.733 5.42 8.965 3.545 14.894 5.89 18.086 17.239 1.043 4.227 1.827 7.984 1.867 14.494z"/><path d="m279.838 126.384h96.235c3.326 0 6.024-2.698 6.024-6.024 0-3.325-2.698-6.024-6.024-6.024h-96.235c-3.326 0-6.024 2.698-6.024 6.024.001 3.326 2.699 6.024 6.024 6.024z"/><path d="m376.074 153.255h-35.38c-3.325 0-6.024 2.698-6.024 6.024 0 3.325 2.698 6.024 6.024 6.024h35.38c3.326 0 6.024-2.698 6.024-6.024-.001-3.326-2.699-6.024-6.024-6.024z"/><path d="m30.544 272.227c3.184-3.286 4.855-7.616 4.706-12.188-.918-28.055 1.388-48.251 6.847-60.369l-1.302 197.984c0 10.243 8.329 18.573 18.573 18.573 9.569 0 17.514-7.176 18.478-16.729l5.2-53.584 5.2 53.608c.957 9.522 8.902 16.706 18.478 16.706 10.243 0 18.573-8.329 18.573-18.58l-.376-210.612c6.764-1.238 14.636-3.735 22.784-6.862v69.113c0 10.141 8.486 18.392 18.91 18.392h247.773c10.424 0 18.91-8.251 18.91-18.392v-161.42c0-10.18-8.486-18.463-18.91-18.463h-247.773c-10.424 0-18.91 8.282-18.91 18.463v55.006c-15.268 5.775-30.087 9.679-37.678 9.292-15.38-1.529-32.071-1.906-49.216-1.098-.863-.016-21.051-.204-37.906 17.914-17.741 19.074-24.761 50.407-20.855 93.121.784 8.659 7.914 15.184 16.58 15.184 4.526 0 8.753-1.796 11.914-5.059zm129.208-184.36c0-3.475 3.145-6.416 6.863-6.416h247.773c3.78 0 6.863 2.878 6.863 6.416v161.42c0 3.498-3.082 6.345-6.863 6.345h-247.773c-3.78 0-6.863-2.847-6.863-6.345v-74.089c17.31-7.626 34.138-16.878 42.949-22.397 7.02-4.392 9.624-13.404 5.827-21.451-2.024-4.29-5.796-7.475-10.361-8.737-4.667-1.294-9.655-.463-13.71 2.251-6.667 4.476-15.437 9.021-24.706 13.095v-50.092zm-145.702 173.145c-3.514-38.431 2.525-67.341 17.475-83.608 13.075-14.235 28.439-14.298 29.443-14.298 16.988-.769 33.082-.424 48.086 1.067 10.634.479 28.881-4.521 46.473-11.461.34-.108.654-.228.965-.393 13.178-5.26 25.906-11.566 34.68-17.448 1.145-.761 2.502-.988 3.788-.651.69.196 1.953.745 2.91 2.776.98 2.063.314 4.416-1.569 5.592-16.682 10.455-58 31.624-77.882 33.184-3.137.251-5.561 2.871-5.553 6.016l.384 215.867c0 3.6-2.925 6.525-6.525 6.525-3.365 0-6.157-2.518-6.494-5.843l-11.193-115.404c-.298-3.09-2.894-5.443-5.992-5.443s-5.694 2.353-5.992 5.443l-11.192 115.373c-.337 3.349-3.129 5.875-6.494 5.875-3.6 0-6.525-2.926-6.525-6.486l1.412-214.549c.016-2.165-1.137-4.18-3.02-5.255-1.875-1.09-4.204-1.082-6.063.024-10.376 6.118-23.953 21.325-21.969 82.518.047 1.278-.424 2.494-1.318 3.42-2.517 2.602-7.513.782-7.835-2.841z"/><path d="m76.395 142.549c1.961.369 3.929.549 5.882.549 8.173 0 16.055-3.184 21.89-9.012 7.224-7.224 10.384-17.608 8.463-27.773-2.314-12.212-12.071-21.969-24.282-24.29-10.149-1.898-20.549 1.247-27.78 8.471-7.224 7.231-10.384 17.608-8.455 27.773 2.314 12.211 12.07 21.968 24.282 24.282zm-7.302-43.537c3.584-3.584 8.282-5.506 13.271-5.506 1.231 0 2.486.118 3.741.361 7.271 1.38 13.31 7.42 14.682 14.69 1.208 6.337-.675 12.541-5.145 17.012-4.463 4.463-10.659 6.369-17.004 5.137-7.271-1.373-13.31-7.412-14.682-14.682-1.208-6.338.667-12.542 5.137-17.012z"/></g></g></g></svg>