<svg id="Capa_1" data-name="Capa 1" xmlns="http://www.w3.org/2000/svg" width="175" height="53" viewBox="0 0 175 53"><defs><style>.cls-1{fill:#3c5eab;}.cls-2{fill:#d65ca1;}.cls-3{fill:#92499c;}.cls-4{fill:#3b5dab;}.cls-5{fill:#fff;}.cls-6{fill:#924a9c;}</style></defs><path class="cls-1" d="M47.1,19.4l-.5.5h0a1.7,1.7,0,0,1-2-.1l-.5-.6c0-.2-.1-.3-.1-.5a1.7,1.7,0,0,1,.4-1.2,1.6,1.6,0,0,1,2.3-.2,1,1,0,0,1,.4.5c.1.1.1.2.2.4A2,2,0,0,1,47.1,19.4Z"/><path class="cls-2" d="M47.1,19.4a.1.1,0,0,1-.1.1.3.3,0,0,1-.1.2l-.3.3h0Z"/><path class="cls-1" d="M133.1,43.8h-8.9a1.1,1.1,0,0,1-.8-.3,1,1,0,0,1-.2-.7V22.4a1.1,1.1,0,0,1,.2-.8,1.1,1.1,0,0,1,.8-.2h32a3.3,3.3,0,0,0,1.5-.3,1.7,1.7,0,0,0,1.3-1.8V17.8a1.8,1.8,0,0,0-1.4-1.8,7.1,7.1,0,0,0-2.4-.4H124.3a1.4,1.4,0,0,1-.9-.3,1.3,1.3,0,0,1-.2-.9V8.3h0a1,1,0,0,1,.2-.7l.2-.2.3.2h31.2v.4a1.2,1.2,0,0,0,.4,1.4,1,1,0,0,0,.9.3,1,1,0,0,0,.9-.4,1.3,1.3,0,0,0,.3-1.3l-.2-.5h.5a16,16,0,0,1,7.9,2.2,8.1,8.1,0,0,1,2.4,2.1l.2.3-.3.2c-.2,0-.3.1-.4.3a1.1,1.1,0,0,0-.4.9,1.3,1.3,0,0,0,.5.9,1.2,1.2,0,0,0,1.4.2h.3v.4c.1.2.1.5.2.7a16.1,16.1,0,0,1-.4,7.4,7.5,7.5,0,0,1-.8,1.8l-.4.6a9.8,9.8,0,0,1-3.3,2.6,14.8,14.8,0,0,1-5,1.5h-.2l11.3,11.8,2.1,2.1-.4.3a1.2,1.2,0,0,1-.7.2H160.4a1.8,1.8,0,0,1-1.3-.6L146.8,30.4l-.4-.4-.3-.3h-12V42.7a1.1,1.1,0,0,1-.2.8A1.1,1.1,0,0,1,133.1,43.8Zm-4.4-.7h4.7c0-.1.1-.1,0-.4V30.1a1.1,1.1,0,0,1,.3-.8h.1a.6.6,0,0,1,.6-.4h13.1l-.8.4h.2l.4.4,12.3,12.8a.8.8,0,0,0,.8.4h11.4l-1.3-1.4c-4-4.1-7.9-8.1-11.8-12.3l-.5-.4h1.5a14.4,14.4,0,0,0,4.8-1.4,9.5,9.5,0,0,0,3.1-2.4l.3-.6a8,8,0,0,0,.8-1.6,15,15,0,0,0,.3-7.1v-.3a2.4,2.4,0,0,1-1.8-.5,1.6,1.6,0,0,1-.6-1.3,1.7,1.7,0,0,1,.5-1.5l.2-.2a10.5,10.5,0,0,0-1.9-1.7,15.6,15.6,0,0,0-7.2-2,1.7,1.7,0,0,1-.5,1.5,1.7,1.7,0,0,1-1.3.7,2,2,0,0,1-1.5-.5,1.9,1.9,0,0,1-.6-1.6H123.9v2.1c0,1.4,0,2.8-.1,4.1a.6.6,0,0,0,.1.4h31.3a8,8,0,0,1,2.6.3,2.4,2.4,0,0,1,1.8,2.4,4,4,0,0,1,0,1.1v.4a2.3,2.3,0,0,1-1.6,2.4,4.7,4.7,0,0,1-1.7.4H124.2c-.3,0-.3.1-.3.1s-.1,0-.1.3c.1,6.4.1,13.3,0,20.4a.4.4,0,0,0,.1.3h4.8Z"/><path class="cls-1" d="M119.8,15.3H93.3c-2.5.4-3.9,1.8-4,4.4V31.2c.1,2.9,1.8,4.4,4.7,4.5h25.2c.6,0,.8.1.8.8v6.3c0,.5-.2.6-.7.6H94a22,22,0,0,1-8-1.3,10.5,10.5,0,0,1-6.7-8.7,18.4,18.4,0,0,1-.3-3.3V20.4a16.9,16.9,0,0,1,1.3-6.3,10.4,10.4,0,0,1,7.4-5.6,17.7,17.7,0,0,1,4.6-.8c.2.2.5.1.7.1h26.1c.6,0,.7.2.7.7Z"/><path class="cls-1" d="M155.7,51.7h-2.1c-.2,0-.5.1-.5-.2s0-.4.3-.5.3-.2.2-.4,0-.7-.5-.7H152c-.5,0-.4.4-.5.7s0,.4.2.4.4.3.3.5-.3.2-.4.2h-1.3c-.2,0-.4.1-.4-.2s-.1-.4.2-.5.7-.8.9-1.3l1.1-2.6c.2-.5.6-.4.9-.4s.5,0,.6.4l1.2,3a2,2,0,0,0,.4.8c.5.4,1,.2,1.1-.3V47.9a.5.5,0,0,0-.4-.6c-.3,0-.2-.3-.2-.4s.1-.2.3-.2a19.3,19.3,0,0,1,3.4.1,1.4,1.4,0,0,1,1.2,1,1.2,1.2,0,0,1-.7,1.4c-.4.2-.4.3-.1.6s.7,1.1,1.3,1.3.1.2.1.4-.1.2-.3.2a1.6,1.6,0,0,1-1.9-.8,4.4,4.4,0,0,0-.8-1.1.4.4,0,0,0-.4-.2c-.3.1-.2.2-.2.4s-.1.9.5,1.1.1.2.1.4-.2.2-.4.2Zm1.9-3.4c.1.2-.2.6.5.6s1.1-.3,1.1-.8a.9.9,0,0,0-.9-.8C157.5,47.3,157.6,47.8,157.6,48.3Zm-5.6.9h1.1l-.5-1.4Z"/><path class="cls-1" d="M27.5,51.1a1.3,1.3,0,0,0,1.2-.9L30,47.1c.2-.5.5-.4.8-.4a.5.5,0,0,1,.7.4l1.2,3.2c.1.2.2.5.4.6a.6.6,0,0,0,1.1-.4V47.9a.7.7,0,0,0-.4-.6c-.3-.1-.2-.3-.2-.5s.2-.1.4-.1h0c1.7-.1,1.7-.1,2.6,1.4l.8,1.3a4.5,4.5,0,0,0,.1-1.6c0-.3-.2-.4-.4-.5s-.2-.3-.2-.4.2-.2.3-.2h1.2c.2,0,.4-.1.4.2s.1.4-.2.5-.4.4-.4.7V51c0,.2.2.6-.2.7s-.7.1-1-.4l-1.8-2.9-.3-.4v2.7c0,.2.2.3.4.3s.1.4.2.5-.2.2-.4.2H31.4c-.2,0-.4.1-.4-.2s-.1-.4.2-.4a.4.4,0,0,0,.3-.6c-.1-.3-.2-.7-.7-.6h-.7c-.5-.1-.6.2-.7.5a.5.5,0,0,0,.3.7c.3,0,.2.3.2.4s-.2.2-.3.2H27.5ZM31,49.2l-.5-1.4-.6,1.4Z"/><path class="cls-1" d="M121.7,51.7h-3c-.1,0-.4.1-.4-.2s-.1-.4.2-.4.5-.3.3-.5,0-.7-.5-.7h-1c-.5,0-.4.3-.6.6s0,.5.3.5.3.3.3.5-.3.2-.4.2h-1.4c-.1,0-.4.1-.4-.2s0-.4.2-.5.6-.6.8-1,.9-1.9,1.2-2.9.5-.4.8-.4.6,0,.7.4.8,2.1,1.3,3.2.1.4.4.6.9.2,1-.4a11.3,11.3,0,0,0,0-2.6c0-.2-.1-.5-.4-.5s-.1-.3-.2-.5.3-.2.4-.2h1.8c.1,0,.3-.1.4.2s0,.4-.2.4-.4.4-.5.7v2.4c0,.6.3.7.8.6a2,2,0,0,0,1.5-.9c.1-.2.2-.4.5-.3s.1.4,0,.5-.5,1.4-1.9,1.4Zm-3.4-2.5a7.8,7.8,0,0,0-.5-1.4,1.6,1.6,0,0,0-.3.8l-.3.6Z"/><path class="cls-1" d="M171.2,51.7h-.8c-.2,0-.4.1-.4-.2s-.1-.3.1-.5.6-1.2.5-1.5h-.3c-.2,0-.5-.1-.7,0s-.7-.2-.9.2a1.2,1.2,0,0,0,.4,1.4.6.6,0,0,1,.2.5c0,.2-.2.2-.3.2h-1.9c-.2,0-.3,0-.3-.2s-.1-.4.1-.4.4-.2.4-.4a15,15,0,0,0,0-3,.3.3,0,0,0-.3-.3c-.3-.1-.2-.4-.2-.6s.2-.1.4-.1h1.7c.1,0,.4-.1.4.2a.4.4,0,0,1-.2.4c-.6.2-.4.8-.4,1.2s.1.2.3.2h.8c.3,0,.7.2.8-.3s.1-.9-.4-1.1-.2-.3-.2-.4.2-.2.4-.2h1.7c.1,0,.3-.1.3.1s.2.4-.1.5a.7.7,0,0,0-.4.8v2c0,.4-.1.8.4,1s.1.3.1.4-.2.2-.3.2Z"/><path class="cls-1" d="M132.3,49.5c.5.5.8,1.3,1.6,1.5s.2.3.2.5-.2.2-.4.2a1.6,1.6,0,0,1-1.9-.9,3.9,3.9,0,0,0-.8-1c-.1-.2-.2-.3-.4-.2s-.1.3-.1.4-.2.9.4,1.1.1.2.1.4-.1.2-.3.2h-1.9c-.1,0-.3.1-.3-.2s-.1-.4.2-.4.4-.6.4-1a6.1,6.1,0,0,0,0-1.9c0-.4,0-.7-.4-.9s-.1-.3-.2-.5h.3a18.2,18.2,0,0,1,3.3.1,1.3,1.3,0,0,1,1.3,1c.1.7-.2,1.1-.9,1.5S132.4,49.4,132.3,49.5Zm-1.8-1.3c0,.3-.3.7.4.7s1.1-.3,1.1-.8-.4-.8-1-.8S130.5,47.8,130.5,48.2Z"/><path class="cls-1" d="M81.3,51.7H80c-.2,0-.4,0-.4-.2s-.1-.4.2-.5h.1c.5-.4.5-3.3,0-3.6s-.3-.3-.3-.5.3-.2.5-.2a16.1,16.1,0,0,1,3.1.1,2.4,2.4,0,0,1,0,4.8Zm.2-2.5v1.2c0,.5.2.7.7.7a1.7,1.7,0,0,0,1.6-1.7c0-1.2-.5-1.9-1.4-2.1s-.9.1-.9.8Z"/><path class="cls-1" d="M20.7,51.7H19.4c-.1,0-.3.1-.3-.2s-.1-.4.2-.5.4-.4.4-.7V48.2c0-.4,0-.7-.5-.9s-.1-.3-.1-.4.2-.2.3-.2a18.2,18.2,0,0,1,3.3.1,2.4,2.4,0,0,1,2,2.4,2.3,2.3,0,0,1-1.9,2.4Zm.3-2.5v1.2c0,.5.2.7.6.7a1.7,1.7,0,0,0,1.6-1.8,1.6,1.6,0,0,0-1.5-2c-.5,0-.8.2-.7.7Z"/><path class="cls-1" d="M63,51.1c.6,0,.8-.3.8-.9a12.1,12.1,0,0,0,0-1.9c0-.4.1-.8-.4-1s-.1-.3-.1-.4.1-.2.3-.2h1.5a.5.5,0,0,1,.5.3,18.2,18.2,0,0,0,1.5,2.3V47.9c0-.3,0-.5-.3-.5s-.3-.3-.2-.5.3-.2.4-.2h1c.1,0,.4-.2.4.2s.1.4-.2.5-.3.4-.3.7v3c0,.2.2.6-.3.6s-.7.1-.9-.3l-1-1.7a20.6,20.6,0,0,1-1.1-1.8v2.7c0,.2.1.4.3.4s.2.4.2.5-.2.2-.4.2H63Z"/><path class="cls-1" d="M17.4,49.2V48c0-.3,0-.6-.3-.7s-.3-.2-.3-.4.2-.2.4-.2h1.2c.2,0,.4,0,.3.2s.1.4-.1.4-.5.5-.5.9v2.9c0,.2.2.5-.1.6s-.7.1-1-.3-1.2-2-1.9-3-.1-.2-.3-.3a22.6,22.6,0,0,0,0,2.6l.4.4c.3,0,.2.2.2.4s-.2.2-.3.2H13.9c-.1,0-.3.1-.3-.2s-.2-.4.1-.5.4-.5.4-.8V48.3c0-.4.1-.8-.5-1s0-.3,0-.4.2-.2.3-.2H14c1.7-.1,1.7-.1,2.5,1.3l.8,1.3Z"/><path class="cls-1" d="M47.3,51.1a.9.9,0,0,0,.5-.9V48.1c-.1-.3-.1-.6-.5-.8s-.1-.3-.1-.4.1-.2.2-.2a19,19,0,0,1,3.4.1,2.5,2.5,0,0,1,0,4.8,20.5,20.5,0,0,1-3.5.1ZM49,49.2h0v1.3c0,.4.2.6.7.6a1.7,1.7,0,0,0,1.6-1.7,1.7,1.7,0,0,0-1.5-2.1c-.5,0-.8.2-.8.7Z"/><path class="cls-1" d="M146.9,51.7h-1.7c-.2,0-.4.1-.4-.2s-.1-.4.2-.5.3-.4.3-.6a8.9,8.9,0,0,0,0-2.3.7.7,0,0,0-.4-.8c-.3,0-.1-.3-.1-.5s.2-.1.3-.1h3.6c.2,0,.3.1.4.3s.3.5.4.8.2.4,0,.5-.4,0-.6-.2a1.7,1.7,0,0,0-1.3-.7c-.3-.1-.7-.2-.8.1a1.2,1.2,0,0,0-.1,1c0,.2.1.2.2.2s.6-.1.6-.4.1-.4.4-.4.2.4.2.5v1.4c0,.2.1.4-.2.5a.3.3,0,0,1-.3-.3l-.3-.5h-.5c-.2,0-.2.2-.2.4s.4,1.6,1.7,1a2.3,2.3,0,0,0,.9-.8.3.3,0,0,1,.4,0c.2.1.2.2.1.4s-.3.7-.5,1a.5.5,0,0,1-.5.3Z"/><path class="cls-1" d="M105.4,49.4a4.3,4.3,0,0,0,0-1.6.5.5,0,0,0-.4-.5c-.3,0-.1-.3-.1-.4s.1-.2.3-.2h1.2c.2,0,.4-.1.4.2s.1.4-.2.5-.5.3-.5.7a28,28,0,0,1,0,2.9c0,.2.3.6-.2.7s-.7,0-1-.5-1.1-1.8-1.7-2.7l-.4-.6a24.4,24.4,0,0,0,.1,2.8.3.3,0,0,0,.3.3c.3.1.2.3.2.5s-.2.2-.4.2h-1.1c-.1,0-.3.1-.3-.2s-.1-.4.1-.5.4-.4.4-.7V48.1c0-.3,0-.6-.3-.7s-.2-.3-.2-.5.2-.2.3-.2h.1c1.7-.1,1.7-.1,2.5,1.4Z"/><path class="cls-1" d="M76.3,51.7H74.5c-.1,0-.3.1-.3-.2s-.1-.4.2-.5.3-.4.3-.7V48.4c0-.4.1-.9-.4-1.1s-.1-.3-.1-.5.2-.1.3-.1H78a.6.6,0,0,1,.6.3l.3.9c.1.2.2.3-.1.4s-.2.1-.4-.1a2.6,2.6,0,0,0-1.7-.9c-.2,0-.5,0-.6.3a1.7,1.7,0,0,0,0,1c.2.3.7.1.9-.3s.1-.4.4-.4.1.3.2.5v1.5c0,.2,0,.3-.2.4s-.4,0-.4-.3a.5.5,0,0,0-.3-.5h-.5c-.2,0-.1.2-.1.4s.3,1.6,1.5,1l1-.7c.1-.2.3-.2.5-.1s0,.3,0,.4-.5,1.3-1.9,1.3Z"/><path class="cls-1" d="M136.4,51.7h-1.8c-.1,0-.4.1-.4-.2s-.1-.4.2-.5.4-.4.4-.7V48.1a.7.7,0,0,0-.4-.8c-.3,0-.2-.3-.2-.4s.2-.2.4-.2h3.5a.5.5,0,0,1,.5.3l.3.8c.1.2.3.3,0,.5s-.3,0-.5-.2a2.8,2.8,0,0,0-1.5-.8c-.3,0-.6,0-.7.3a3.1,3.1,0,0,0-.1,1h.4a.5.5,0,0,0,.5-.4c.1-.2.1-.4.4-.4s.2.3.2.5v1.5c0,.2,0,.4-.2.4s-.3-.1-.4-.3-.1-.3-.2-.5a.4.4,0,0,0-.5-.1c-.3,0-.2.3-.2.4s.4,1.6,1.6,1a2.5,2.5,0,0,0,1-.8c.1-.1.2-.1.4,0s.1.2.1.4a.1.1,0,0,0-.1.1c-.5,1.2-.5,1.2-1.9,1.2Z"/><path class="cls-1" d="M142.2,51.7l-.9-.2c-.2,0-.4-.1-.5.2s-.4.2-.5-.2-.3-.9-.5-1.4-.1-.3.1-.4.4-.1.6.2a2.2,2.2,0,0,0,1.2.9,1.1,1.1,0,0,0,1.1,0,.5.5,0,0,0,.3-.5.4.4,0,0,0-.4-.4l-.8-.3-1.2-.3a1.2,1.2,0,0,1-.4-2.1,1.8,1.8,0,0,1,1.8-.6c.4.1.8.3,1.2.1s.3,0,.3.2l.3,1c.1.1.1.3-.1.3s-.3.1-.5-.1l-.4-.5a1.7,1.7,0,0,0-1.2-.4.6.6,0,0,0-.6.5c-.1.3.2.4.5.5l1.5.5c.8.2,1.1.5,1.2,1.2a1.7,1.7,0,0,1-1.1,1.6Z"/><path class="cls-1" d="M47.3,51.1v.6H44.9c-.1,0-.3.1-.3-.2s-.1-.4.2-.4.4-.2.3-.5-.1-.7-.5-.7H43.5c-.5,0-.4.4-.5.6s-.1.5.2.5.3.3.3.5-.3.2-.4.2H41.7c-.1,0-.3.1-.3-.2s-.1-.4.1-.5.6-.6.8-1l1.2-2.8c.2-.5.4-.5.9-.5s.6.2.7.5l1.2,3.1C46.5,50.8,46.7,51.1,47.3,51.1ZM44,47.8a7.8,7.8,0,0,0-.5,1.4h1.1Z"/><path class="cls-1" d="M63,51.1v.6H61.1c-.2,0-.4.1-.5-.2s0-.4.3-.5.4-.2.3-.4-.1-.7-.5-.7H59.5c-.4,0-.3.4-.5.7s.1.4.3.4.3.3.3.5-.3.2-.4.2H57.8c-.1,0-.3.1-.3-.1s-.1-.5.1-.6a1.9,1.9,0,0,0,.9-1.1c.4-.9.8-1.9,1.1-2.8s.5-.4.8-.4.6,0,.7.4l1.2,3A1.4,1.4,0,0,0,63,51.1Zm-2.9-3.2a5,5,0,0,0-.5,1.3c1.1.1,1.1.1.7-.9A.4.4,0,0,0,60.1,47.9Z"/><path class="cls-1" d="M162.9,49v.6a1.3,1.3,0,0,0,2.4.8.8.8,0,0,0,.4-.4c.2-.3.3-.1.5,0s.1.3.1.4a2.6,2.6,0,0,1-4.7-2.3,2.5,2.5,0,0,1,3-1.4c.2,0,.4.2.6-.1s.4-.1.5.2l.5,1.4c0,.2,0,.3-.2.4s-.3,0-.4-.2l-.5-.7a1.2,1.2,0,0,0-2.1.4A2.8,2.8,0,0,0,162.9,49Z"/><path class="cls-1" d="M68.9,49.2a2.4,2.4,0,0,1,3.2-2.5h.3c.7-.7.7.1.9.4a2.9,2.9,0,0,1,.2.9.3.3,0,0,1-.1.5c-.2.1-.3,0-.4-.3a2.7,2.7,0,0,0-.7-.8,1,1,0,0,0-1.7.3,2.5,2.5,0,0,0-.1,2.5,1.3,1.3,0,0,0,2,.3,1.2,1.2,0,0,0,.5-.5c.2-.3.4-.2.6-.1s.1.3,0,.5A2.4,2.4,0,0,1,71,51.7a2.5,2.5,0,0,1-2.1-2.1Z"/><path class="cls-1" d="M55.8,50.2a14.3,14.3,0,0,1,.8-2.2c.1-.4.1-.6-.3-.7s-.2-.2-.2-.4.2-.2.4-.2h1.3c.1,0,.3-.1.3.2s.1.4-.2.5-.5.5-.7.8L56,51.3c-.1.3-.2.4-.5.4s-.6,0-.7-.4-.9-2.1-1.3-3.2-.2-.6-.6-.7-.2-.3-.2-.5.2-.2.4-.2h1.8c.2,0,.4-.1.4.2s.1.4-.3.5-.3.2-.2.4a22.5,22.5,0,0,0,.8,2.4Z"/><path class="cls-1" d="M111.5,49.1a2.2,2.2,0,0,0,.1.8,1.3,1.3,0,0,0,2.1.7l.6-.5c.1-.3.3-.2.6-.1s0,.4,0,.5a2.5,2.5,0,0,1-2.6,1.2,2.8,2.8,0,0,1-2.2-2.2,2.7,2.7,0,0,1,1.4-2.7,2.3,2.3,0,0,1,1.8-.1h.4c.8-.7.6.2.8.5l.3.8c0,.2.2.4-.2.5s-.3-.1-.4-.3a1,1,0,0,0-.4-.5,1.2,1.2,0,0,0-2.2.4C111.6,48.5,111.5,48.8,111.5,49.1Z"/><path class="cls-1" d="M89.6,49.2a2,2,0,0,0,.1.7,1.3,1.3,0,0,0,2.1.7,1.7,1.7,0,0,0,.6-.6c.1-.2.3-.1.5,0s.1.3,0,.4a2.5,2.5,0,0,1-3,1.2,2.5,2.5,0,0,1-1.7-2.7,2.4,2.4,0,0,1,3.3-2.2h.1c1.1-.6.8.5,1.1.9h0c.1.3.4.6,0,.8s-.4-.3-.6-.4a1.8,1.8,0,0,0-.5-.7,1.1,1.1,0,0,0-1.8.4A2.7,2.7,0,0,0,89.6,49.2Z"/><path class="cls-1" d="M95.5,51.7H93.9c-.2,0-.4.1-.4-.2s-.1-.4.2-.5.3-.4.3-.6V48.1a.7.7,0,0,0-.4-.8c-.2-.1-.1-.3-.1-.5s.2-.1.3-.1h1.8c.2,0,.4-.1.4.2s.1.4-.2.4-.4.5-.4.8a17.7,17.7,0,0,0-.1,2.3c0,.5.3.7.8.7a2.5,2.5,0,0,0,1.5-1c.1-.2.2-.4.5-.3s.1.4,0,.6-.5,1.3-1.9,1.3Z"/><path class="cls-1" d="M11.8,51.7h-.9c-.1,0-.3.1-.3-.2s-.1-.4.2-.5.4-.4.4-.7V48.2c0-.4,0-.7-.5-.9s-.1-.3-.1-.4.1-.2.3-.2h1.9c.1,0,.3-.1.3.2s.1.4-.1.4-.5.5-.5.9a6.7,6.7,0,0,0,0,2c0,.3,0,.7.4.8s.2.4.2.5-.2.2-.4.2Z"/><path class="cls-1" d="M27.5,51.1v.6h-2c-.1,0-.3.1-.4-.1s-.1-.5.2-.6a.5.5,0,0,0,.4-.6V48.1a.7.7,0,0,0-.4-.8c-.3,0-.2-.3-.2-.4s.2-.2.4-.2h1.8c.1,0,.3-.1.3.2s.1.4-.2.4-.4.5-.4.8v2.2C27,50.7,27.1,51,27.5,51.1Z"/><path class="cls-1" d="M99.2,49.2V48.1a.7.7,0,0,0-.4-.8c-.3,0-.2-.3-.2-.4s.2-.2.3-.2h1.8c.2,0,.4-.1.4.1s.1.5-.2.5-.4.5-.4.9v2.1c0,.3,0,.6.4.7s.2.4.2.5-.2.2-.3.2H98.9c-.1,0-.3,0-.3-.2v-.4c.9-.3.5-1,.6-1.5Z"/><path class="cls-1" d="M108.4,51.7h-.9c-.2,0-.4.1-.4-.2s-.1-.4.1-.4a.8.8,0,0,0,.5-.9V48.3c0-.4.1-.8-.5-1s-.1-.3-.1-.4.2-.2.3-.2h1.8c.2,0,.4-.1.4.1s.1.5-.2.5-.4.5-.4.9v1.9c0,.4,0,.8.5,1s.1.2.1.4-.2.2-.3.2Z"/><path class="cls-1" d="M157.4,7.7c-.3.2-.5.1-.8.1H124.3c-.3,0-.5.1-.7-.1h33.8Z"/><path class="cls-3" d="M146.2,29.3H134.1c.1-.2.2-.1.3-.1h11.8Z"/><path class="cls-4" d="M14.3,15.8c0,.3.1.5.1.8a1,1,0,0,0-.2.7v2.8c-.2-.1-.2-.2-.2-.3V18.5c0-.6-.2-.8-.8-.8a12,12,0,0,1-1.9,0c-.4,0-.8,0-.9.5h-.1V16.7a5.6,5.6,0,0,0,0-1.3A2.1,2.1,0,0,0,7.9,14a1.7,1.7,0,0,0-1.7,1.8c0,.4.1.7.1,1v2.9a.8.8,0,0,1-.1.4c-.1-.2,0-.5-.1-.7s-.1-.6-.6-.6H3.2c-.4,0-.5.2-.6.5s0,.5-.2.8,0-.3,0-.4,0-1.9-.1-2.8,0-.5-.2-.6.1-.3.1-.5.1-.5.2-.5.5-.4.7-.7a5.6,5.6,0,0,1,5.2-3,5.2,5.2,0,0,1,3.5,1.2,3.6,3.6,0,0,1,1.4,1.6c0,.2,0,.3.2.3h0l.3,1.2c.1,0,.1.1.2.2l.2-.2C14.1,15.9,14.1,15.8,14.3,15.8Z"/><path class="cls-4" d="M14.4,25.1l.2,1c-.3,0-.4.1-.3.4a5.2,5.2,0,0,0,2,2.8,24.5,24.5,0,0,1-2.7-.2,4,4,0,0,1-3-2.5,8.2,8.2,0,0,1-.3-3.1c.2,0,.2-.1.2-.2s.3-.5.7-.5h1.9a.7.7,0,0,1,.8.6c.1.1.1.2.3.2v.2c-.3.2-.2.5,0,.7S14.1,25,14.4,25.1Z"/><path class="cls-4" d="M2.4,30.6a5.8,5.8,0,0,0,.8,2.2c0,.1.1.2.1.4s.2.3-.1.3l.7,1.1A11.2,11.2,0,0,0,8,38.3a18.9,18.9,0,0,0,2.1.9.7.7,0,0,1-.6-.1l-1.4-.4H4.8c-.2-.1-.2-.4-.3-.5a9.9,9.9,0,0,1-1.7-3.6c-.3-1.1-.4-2.2-.7-3.3V29.1h.1a5.6,5.6,0,0,1,.1.7A3.1,3.1,0,0,0,2.4,30.6Z"/><path class="cls-4" d="M28.3,40a6,6,0,0,1-2.9,3h-.1l-.6.2-1.1.3c-1.4.1-2.8,0-4.2,0H12.7a10.1,10.1,0,0,1-2.5-.5,10.2,10.2,0,0,1-4.6-2.7,9.6,9.6,0,0,1-2.3-3c-.1-.3-.4-.5-.4-.8s.1,0,.1.1a10.5,10.5,0,0,1,.8,1.1c.2.3.3.7.7.9h0c0,.2.1.2.2.3l.2.2a.8.8,0,0,0,.5.5h.1a2.1,2.1,0,0,0,1.1,1h.1c0,.3.2.3.4.4h.1c0,.1.1.2.2.1h0l.3.2a8.5,8.5,0,0,0,2.6,1.1c.4.1.7.3,1,.2h.2a1.1,1.1,0,0,0,.8.2h.2c.1.2.2.1.4.1h8.4a1.1,1.1,0,0,0,.8,0h.4a.4.4,0,0,0,.7,0h.2c.3.2.6,0,.9-.1a2,2,0,0,0,1.3-.6H26a10.4,10.4,0,0,0,2.1-2.1A.2.2,0,0,1,28.3,40Z"/><path class="cls-4" d="M5,31.6c.1,0,.1.1.1.2a.5.5,0,0,0,.2.4l1.2,1A12.4,12.4,0,0,0,14,35.6c3.2-.1,6.3,0,9.5,0a1.8,1.8,0,0,1,1.2.3c.3.2.6.4.5.9a2.1,2.1,0,0,0-1.9-.9q-5.2.1-10.5,0a8.5,8.5,0,0,1-3.5-.8A10.9,10.9,0,0,1,6,33.2,6.3,6.3,0,0,1,4.9,32a4.4,4.4,0,0,1-1.2-1.5,5.3,5.3,0,0,1-.8-1.7c.4.3.4.8.7,1.1a5.8,5.8,0,0,0,1,1.2c0,.2.1.3.3.4Z"/><path class="cls-4" d="M28.6,35.6a4.3,4.3,0,0,1,.2,1.1h-.1a.1.1,0,0,0,.1.1h.1c-.2,0-.2.2-.3.3s-.2.9-.4,1.4h-2a.7.7,0,0,0-.6.2,1.5,1.5,0,0,1-.6.5c-.3.1-.5.4-.9.3s1-.4,1.2-.9a.4.4,0,0,0,0-.6v-.6h0c.3,0,.3-.1.4-.3s-.1-.6-.1-.9a.5.5,0,0,1,.5-.3h1.3c.3,0,.4-.1.3-.4s-.1-.3-.1-.5-.3-.5-.3-.8a1.6,1.6,0,0,1,.5.9C28.1,35.6,28.2,35.8,28.6,35.6Z"/><path class="cls-4" d="M28.6,35.6c-.4.2-.5,0-.7-.3a1.6,1.6,0,0,0-.5-.9,6.4,6.4,0,0,0-5.1-2.5H13.1l-1.7-.2L9.6,31a9.1,9.1,0,0,1-2.4-2.4,5.6,5.6,0,0,1-.7-1.8c-.1-.3.2-.2.4-.3a7.7,7.7,0,0,0,1.9,3.1c-.1.1,0,.2.1.3l.9.7a6.1,6.1,0,0,0,3.5,1.1h5.6a30.9,30.9,0,0,1,4.3.1,6.2,6.2,0,0,1,2.7.9,3.2,3.2,0,0,0,.9.3A5.1,5.1,0,0,1,28.6,35.6Z"/><path class="cls-4" d="M10.3,23.5a8.2,8.2,0,0,0,.3,3.1.4.4,0,0,1-.2-.4l-.3-.5c-.1-.1-.1.1-.1.1a1.1,1.1,0,0,1-.1-.5V15.9c.2-.2.1-.5.1-.7a1.9,1.9,0,0,0-2-1.1,1.7,1.7,0,0,0-1.5,1.3c-.1.1-.1.3.1.3v9.1H6.5c-.3-.1-.2-.3-.2-.5V20.7a1.3,1.3,0,0,0-.1-.6.8.8,0,0,0,.1-.4V16.8c0-.3-.1-.6-.1-1A1.7,1.7,0,0,1,7.9,14a2.1,2.1,0,0,1,2.4,1.4,5.6,5.6,0,0,1,0,1.3v6.8Z"/><path class="cls-4" d="M25.3,38.2a.4.4,0,0,1,0,.6c-.2.5-.7.6-1.2.9H10.7c-.1-.2-.3-.2-.5-.2h-.1A18.9,18.9,0,0,1,8,38.3a11.2,11.2,0,0,1-4.1-3.7l-.7-1.1c-.1-.2-.1-.3.1-.3l.4.5A18.1,18.1,0,0,0,5.5,36c0,.3.3.5.5.7A10.8,10.8,0,0,0,10.2,39a15.4,15.4,0,0,0,3,.4H23a2.1,2.1,0,0,0,.8,0c.4,0,.8,0,.9-.5Z"/><path class="cls-4" d="M26.8,33a3.2,3.2,0,0,1-.9-.3,6.2,6.2,0,0,0-2.7-.9,30.9,30.9,0,0,0-4.3-.1H13.3a6.1,6.1,0,0,1-3.5-1.1l-.9-.7c-.1-.1-.2-.2-.1-.3a6.5,6.5,0,0,0,2.3,1.3,5.9,5.9,0,0,0,2.3.5h9.3a6.3,6.3,0,0,1,3.5,1.1C26.4,32.7,26.7,32.8,26.8,33Z"/><path class="cls-4" d="M24.7,38.9c-.1.5-.5.5-.9.5a2.1,2.1,0,0,1-.8,0H13.2a15.4,15.4,0,0,1-3-.4A10.8,10.8,0,0,1,6,36.7c-.2-.2-.5-.4-.5-.7l2.2,1.6a13.5,13.5,0,0,0,4.4,1.5c2.2.2,4.4,0,6.7.1h2.9A7.7,7.7,0,0,0,24.7,38.9Z"/><path class="cls-4" d="M13.4,14.8h0c0-.1-.1-.3-.2-.3a3.6,3.6,0,0,0-1.4-1.6,5.2,5.2,0,0,0-3.5-1.2,5.6,5.6,0,0,0-5.2,3c-.2.3-.2.7-.7.7s-.1.3-.2.5-.1.3-.1.5h0a3,3,0,0,1,.5-1.9,7,7,0,0,1,1.5-1.9,1.7,1.7,0,0,0,1-.3,9,9,0,0,1,2.3-.8,7.4,7.4,0,0,1,2.1.1,9.6,9.6,0,0,1,2.7,1.3c.2.1.4.3.7.2A17.4,17.4,0,0,1,14,14.8c0,.2.1.3.1.4S13.6,15,13.4,14.8Z"/><path class="cls-4" d="M25.4,37.6h0c-.1-.3-.1-.5-.2-.8s-.2-.7-.5-.9a1.8,1.8,0,0,0-1.2-.3c-3.2,0-6.3-.1-9.5,0a12.4,12.4,0,0,1-7.5-2.4l-1.2-1a.5.5,0,0,1-.2-.4l.4.2a4.5,4.5,0,0,0,1.3,1.1h.3c.1.2.2.2.3.2a.4.4,0,0,0,.4.2.5.5,0,0,0,.5.3.9.9,0,0,0,.6.3,11.9,11.9,0,0,0,5.2,1.1h9a2.5,2.5,0,0,1,2.3.8v.2h0A1.3,1.3,0,0,1,25.4,37.6Z"/><path class="cls-4" d="M2.1,16.3h0c.2.1.2.4.2.6s0,1.8.1,2.8-.1.2,0,.4a6.5,6.5,0,0,0,0,1.4,19.3,19.3,0,0,0,0,3.4,4,4,0,0,0,.3,1.5,10.5,10.5,0,0,0,1.4,3.7h0a.2.2,0,0,1-.2-.2,17.3,17.3,0,0,1-1.6-3.7c0-.2,0-.3-.2-.3Z"/><path class="cls-4" d="M12.9,13c-.3.1-.5-.1-.7-.2a9.6,9.6,0,0,0-2.7-1.3,7.4,7.4,0,0,0-2.1-.1,9,9,0,0,0-2.3.8,1.7,1.7,0,0,1-1,.3,8.2,8.2,0,0,1,2-1.2A5.7,5.7,0,0,1,9,11.1a5.5,5.5,0,0,1,2.9,1.1Z"/><path class="cls-4" d="M17.9,29.7H14.5a6.1,6.1,0,0,1-2.8-.9,3.6,3.6,0,0,1-1.4-1.8c.2,0,.2.1.3.2a5.2,5.2,0,0,0,1,1.1,5.2,5.2,0,0,0,2.7,1,6.7,6.7,0,0,0,2-.1h.2a1,1,0,0,0,.7.2h.7Z"/><path class="cls-4" d="M4.9,39.2c-.1-.1-.1-.2-.2-.2s0-.3-.2-.3h0a12.6,12.6,0,0,1-2.2-4.7c0-.2-.1-.3-.2-.3V31.3c.3,1.1.4,2.2.7,3.3a9.9,9.9,0,0,0,1.7,3.6c.1.1.1.4.3.5l1.8,1.8c.1.1.2.1.2.3H6.6a3.6,3.6,0,0,0-1.1-1H5.4C5.4,39.5,5.2,39.3,4.9,39.2Z"/><path class="cls-4" d="M14.2,23.8V17.3a1,1,0,0,1,.2-.7v8.5c-.3-.1-.2-.4-.2-.6Z"/><path class="cls-4" d="M16.5,29.3h-.2a5.2,5.2,0,0,1-2-2.8c-.1-.3,0-.4.3-.4A6.4,6.4,0,0,0,16,28.3a1.3,1.3,0,0,0,1.3.9l.7.3h-.5c0-.1-.1-.1-.2-.1h-.1A1,1,0,0,0,16.5,29.3Z"/><path class="cls-4" d="M6.6,15.7c-.2,0-.2-.2-.1-.3A1.7,1.7,0,0,1,8,14.1a1.9,1.9,0,0,1,2,1.1c0,.2.1.5-.1.7a1.8,1.8,0,0,0-1.4-1.3C7.5,14.6,6.9,14.9,6.6,15.7Z"/><path class="cls-4" d="M16.3,29.3h0a6.7,6.7,0,0,1-2,.1,5.2,5.2,0,0,1-2.7-1,5.2,5.2,0,0,1-1-1.1c-.1-.1-.1-.2-.3-.2a1.6,1.6,0,0,1-.3-1.3s0-.2.1-.1l.3.5a.4.4,0,0,0,.2.4,4,4,0,0,0,3,2.5A24.5,24.5,0,0,0,16.3,29.3Z"/><path class="cls-4" d="M28.3,40a.2.2,0,0,0-.2.2A10.4,10.4,0,0,1,26,42.3h-.3c.1,0,.1-.1.1-.2h.1c.1,0,.2,0,.2-.1h.1q.2,0,.3-.3l.7-.7c.1-.1.2-.1.2-.2a.4.4,0,0,0,.1-.3c.1,0,.2-.2.2-.3h.2a8,8,0,0,0,.7-2c.1-.2.1-.4.3-.4v1l-.3,1.2C28.4,39.9,28.4,40,28.3,40Z"/><path class="cls-4" d="M2.1,26c.2,0,.2.1.2.3A17.3,17.3,0,0,0,3.9,30a.2.2,0,0,0,.2.2v.2c0,.1.1.1.2.2l.2.3v.2h0a5.8,5.8,0,0,1-1-1.2c-.3-.3-.3-.8-.7-1.1a3.1,3.1,0,0,1-.5-1.2A7.6,7.6,0,0,1,2.1,26Z"/><path class="cls-4" d="M2.1,33.6c.1,0,.2.1.2.3a12.6,12.6,0,0,0,2.2,4.7h0c-.4-.2-.5-.6-.7-.9A10.5,10.5,0,0,0,3,36.7c0-.1,0-.1-.1-.1s-.2-.2-.1-.4a.1.1,0,0,0-.1-.1A7.6,7.6,0,0,1,2.1,33.6Z"/><path class="cls-4" d="M28.9,37.6c-.2,0-.2.2-.3.4a8,8,0,0,1-.7,2h-.2a.8.8,0,0,1,.2-.4,3.8,3.8,0,0,0,.3-1c.2-.5.1-1,.4-1.4s.1-.3.3-.3S28.9,37.4,28.9,37.6Z"/><path class="cls-4" d="M13.4,14.8c.2.2.3.5.7.4a1.4,1.4,0,0,1,.2.6c-.2,0-.2.1-.2.2l-.2.2c-.1-.1-.1-.2-.2-.2Z"/><path class="cls-4" d="M17.3,29.2a1.3,1.3,0,0,1-1.3-.9Z"/><path class="cls-4" d="M17.6,29.6h.6c-.1.3-.2.2-.3.1Z"/><path class="cls-4" d="M2.1,29.1H2v-.5l.2.3A.3.3,0,0,1,2.1,29.1Z"/><path class="cls-4" d="M28.8,36.9a.1.1,0,0,1-.1-.1h.1Z"/><path class="cls-4" d="M2.7,36.1a.1.1,0,0,1,.1.1C2.7,36.2,2.7,36.2,2.7,36.1Z"/><path class="cls-4" d="M18.2,29.6h-.1A.1.1,0,0,1,18.2,29.6Z"/><path class="cls-4" d="M6.7,25.8h0Z"/><path class="cls-4" d="M4.1,5.2Z"/><path class="cls-4" d="M6.5,24.9v.4c-.2-.1-.4-.1-.6.2H3.4c-.6,0-.6,0-.7.6v.2a4,4,0,0,1-.3-1.5,19.3,19.3,0,0,1,0-3.4,6.5,6.5,0,0,1,0-1.4c.2-.3.1-.6.2-.8s.2-.5.6-.5H5.5c.5,0,.6.2.6.6s0,.5.1.7a1.3,1.3,0,0,1,.1.6v3.7C6.3,24.6,6.2,24.8,6.5,24.9Z"/><path class="cls-4" d="M14.2,20.1v3.5c-.2,0-.2-.1-.3-.2a.7.7,0,0,0-.8-.6H11.2c-.4,0-.6.1-.7.5s0,.2-.2.2V18.2h.1c.1-.5.5-.5.9-.5a12,12,0,0,0,1.9,0c.6,0,.8.2.8.8v1.3C14,19.9,14,20,14.2,20.1Z"/><path class="cls-4" d="M13.2,14.4c.1,0,.2.2.2.3S13.2,14.6,13.2,14.4Z"/><path class="cls-4" d="M8.3,34a.5.5,0,0,1-.5-.3c0-.2-.1-.3-.4-.2s-.2,0-.3-.2.1-.2-.1-.1H6.8c0-.1,0-.2-.2-.3s-.7-.6-.8-1-.2-.5.2-.5H9.3c.2,0,.4,0,.3-.3l1.8.7,1.7.2h9.2a6.4,6.4,0,0,1,5.1,2.5c0,.3.2.5.3.8s.1.3.1.5,0,.4-.3.4H26.2a.5.5,0,0,0-.5.3h-.2c0-.2,0-.2-.1-.2a2.5,2.5,0,0,0-2.3-.8h-9a11.9,11.9,0,0,1-5.2-1.1A.6.6,0,0,0,8.3,34Z"/><path class="cls-4" d="M4.9,31.5c-.2-.1-.3-.2-.3-.4h.3Z"/><path class="cls-4" d="M4.7,31.2H4.6v-.2C4.7,30.9,4.7,31.1,4.7,31.2Z"/><path class="cls-4" d="M4.9,31.5v-.2c.2,0,.2.1.1.3Z"/><path class="cls-4" d="M4.4,30.6c-.1-.1-.2-.1-.2-.2A.2.2,0,0,1,4.4,30.6Z"/><path class="cls-4" d="M14.2,23.8v.7C14,24.3,13.9,24,14.2,23.8Z"/><path class="cls-4" d="M28.2,38.7a3.8,3.8,0,0,1-.3,1,.8.8,0,0,0-.2.4h0c-.2,0-.2.2-.2.3a.4.4,0,0,1-.1.3c-.2-.1-.1.1-.2.2l-.7.7a.3.3,0,0,0-.3.3h-.1c-.1,0-.2,0-.2.1h-.1c-.1,0-.1.1-.1.2h0c-.2,0-.4,0-.4.2h-.2A2.2,2.2,0,0,0,24,43h-.2c-.1-.1-.2-.1-.2,0h-.2c-.2-.2-.2-.1-.3,0h-.4c-.2-.2-.4-.1-.6,0h-.8c-.3-.2-.5-.2-.7,0h-8c0-.2-.2-.1-.3,0H12c0-.2-.1-.2-.2-.1h-.3c0-.2-.1-.2-.2-.1h-.1c-.1-.1-.1-.2-.2,0h-.2c0-.1,0-.1-.1,0h-.2c-.3-.4-.7-.4-1.1-.5H9.2c0-.2-.1-.2-.3-.2l-.5-.2H8.1a2.7,2.7,0,0,0-1.2-.9H6.8c0-.2-.1-.2-.2-.3L4.8,38.7H8.1l1.4.4a.7.7,0,0,0,.6.1h.1a.4.4,0,0,0,.5.2h.1c.2.1.3.2.5.1h.2c.1.2.2.2.3.1h.4c0,.1.1.2.2.1h.7c0,.2.2.1.3.1h10c.1,0,.2.1.3-.1h.4c.4.1.6-.2.9-.3a1.5,1.5,0,0,0,.6-.5.7.7,0,0,1,.6-.2Z"/><path class="cls-4" d="M12.6,43h.3c-.2,0-.3.1-.4-.1Z"/><path class="cls-4" d="M9.2,42.2h.2c.4.3.8.3,1.1.5h.8c-.3.1-.6-.1-1-.2a8.5,8.5,0,0,1-2.6-1.1l-.3-.2a1.5,1.5,0,0,1,.7.3h.3l.5.2Z"/><path class="cls-4" d="M23.8,43H24a2.2,2.2,0,0,0,1.1-.5h.5a2,2,0,0,1-1.3.6c-.3.1-.6.3-.9.1h.2C23.7,43,23.8,43.1,23.8,43Z"/><path class="cls-4" d="M5.5,39.8a3.6,3.6,0,0,1,1.1,1A2.1,2.1,0,0,1,5.5,39.8Z"/><path class="cls-4" d="M8.1,41.7a1.5,1.5,0,0,0-.7-.3H7.1c.1-.2-.2-.2-.2-.4A2.7,2.7,0,0,1,8.1,41.7Z"/><path class="cls-4" d="M12,43h.3a1.1,1.1,0,0,1-.8-.2h.3C11.8,43,11.9,43,12,43Z"/><path class="cls-4" d="M21.3,43.1h.8a1.1,1.1,0,0,1-.8,0Z"/><path class="cls-4" d="M4.9,39.2c.3.1.5.3.5.5A.8.8,0,0,1,4.9,39.2Z"/><path class="cls-4" d="M21.3,43.1h-.7C20.8,42.9,21,42.9,21.3,43.1Z"/><path class="cls-4" d="M22.7,43.1h.5a.4.4,0,0,1-.7,0Z"/><path class="cls-4" d="M22.7,43.1h-.6C22.3,43,22.5,42.9,22.7,43.1Z"/><path class="cls-4" d="M6.9,40.8c0,.2.3.2.2.4s-.4-.1-.4-.4h.2Z"/><path class="cls-4" d="M12.3,43.1h0c.1-.1.3-.2.3,0h-.3Z"/><path class="cls-4" d="M4.5,38.7c.2,0,.2.1.2.3S4.5,38.9,4.5,38.7Z"/><path class="cls-4" d="M11.5,42.9h-.2C11.4,42.7,11.5,42.7,11.5,42.9Z"/><path class="cls-4" d="M23.2,43.1h-.1c.1-.1.1-.2.3,0h-.2Z"/><path class="cls-4" d="M7.2,41.2h.2C7.3,41.4,7.2,41.3,7.2,41.2Z"/><path class="cls-4" d="M25.5,36.4h.2c0,.3.1.6.1.9s-.1.3-.4.3A1.3,1.3,0,0,0,25.5,36.4Z"/><path class="cls-4" d="M23.7,39.7c-.1.2-.2.1-.3.1h-10c-.1,0-.3.1-.3-.1H23.7Z"/><path class="cls-4" d="M11.3,39.5c-.2.1-.3,0-.5-.1Z"/><path class="cls-4" d="M10.7,39.4a.4.4,0,0,1-.5-.2C10.4,39.2,10.6,39.2,10.7,39.4Z"/><path class="cls-4" d="M11.8,39.6c-.1.1-.2.1-.3-.1Z"/><path class="cls-4" d="M12.4,39.7c-.1.1-.2,0-.2-.1Z"/><path class="cls-4" d="M8.3,34a.6.6,0,0,1,.6.3A.9.9,0,0,1,8.3,34Z"/><path class="cls-4" d="M7.4,33.5c.3-.1.4,0,.4.2A.4.4,0,0,1,7.4,33.5Z"/><path class="cls-4" d="M7,33.2c.2-.1.1,0,.1.1Z"/><path class="cls-4" d="M25.4,36.2c.1,0,.1,0,.1.2Z"/><path class="cls-4" d="M16.5,29.3a1,1,0,0,1,.7.2A1,1,0,0,1,16.5,29.3Z"/><path class="cls-4" d="M17.3,29.5c.1,0,.2,0,.2.1Z"/><path class="cls-4" d="M25.6,42.4h-.3c0-.2.2-.2.4-.2Z"/><path class="cls-4" d="M27.5,40.5c0-.1,0-.3.2-.3S27.6,40.5,27.5,40.5Z"/><path class="cls-4" d="M26.2,42a.3.3,0,0,1,.3-.3Q26.4,42,26.2,42Z"/><path class="cls-4" d="M27.2,41c.1-.1,0-.3.2-.2S27.3,40.9,27.2,41Z"/><path class="cls-4" d="M25.9,42.1c0-.1.1-.1.2-.1S26,42.1,25.9,42.1Z"/><path class="cls-4" d="M25.7,42.3c0-.1,0-.2.1-.2S25.8,42.3,25.7,42.3Z"/><path class="cls-4" d="M25.1,42.5A2.2,2.2,0,0,1,24,43,2.2,2.2,0,0,1,25.1,42.5Z"/><path class="cls-4" d="M10.5,42.7c-.3-.2-.7-.2-1.1-.5S10.2,42.3,10.5,42.7Z"/><path class="cls-4" d="M9.2,42.2,8.9,42C9.1,42,9.2,42,9.2,42.2Z"/><path class="cls-4" d="M12,43c-.1,0-.2,0-.2-.1S12,42.8,12,43Z"/><path class="cls-4" d="M23.8,43c0,.1-.1,0-.2,0S23.7,42.9,23.8,43Z"/><path class="cls-4" d="M8.4,41.8h0Z"/><path class="cls-4" d="M10.8,42.7h-.1C10.8,42.6,10.8,42.6,10.8,42.7Z"/><path class="cls-4" d="M11.2,42.8H11C11.1,42.6,11.1,42.7,11.2,42.8Z"/><path class="cls-4" d="M25.4,36.3H26l.2.4a13.5,13.5,0,0,1,.3,1.8V39h-.7a4.3,4.3,0,0,1-.1-.5c0-.1-.1-.5-.1-.6s-.2-1.3-.2-1.3Z"/><path class="cls-4" d="M5.8,27l.8-2.2v.8a7.7,7.7,0,0,0,.6,2.1c.4.6-.4.6-.4.6L6.2,28a3.3,3.3,0,0,0-.3-.6Z"/><path class="cls-4" d="M6.6,23.8c0,1,.7,5.3,2.6,6.1s-.2.2.2.7.7.4.7.5l-.7.5-.6.4c0,.1-1.5,1.5-1.5,1.5l-1.5-.6s-2.1-2.3-2.5-3.8-1.2-.7-1.2-3.4,3.4-1.5,3.4-1.5Z"/><circle class="cls-4" cx="8" cy="5.3" r="4.2"/><path class="cls-1" d="M30.8,43.8a.8.8,0,0,1-.7-.3.8.8,0,0,1,.1-.9l5.1-10.3c.8-1.4,1.5-2.9,2.2-4.4L38,27l1.5-3c.1-.2.2-.3.2-.5l.2-.3c.6-1.1,1.1-2.3,1.7-3.4l.3-.6,2.4-4.8.3-.6h0a4.3,4.3,0,0,1,.4-.7v-.5a9.5,9.5,0,0,1,5.2-4.9h.1l1-.2h6a7.7,7.7,0,0,1,4.9,2.9,23.2,23.2,0,0,1,2.1,3.7,3.6,3.6,0,0,1,.4.9l.2.3-.3.2c-.2,0-.3.1-.4.3a1.1,1.1,0,0,0-.4.9,1.3,1.3,0,0,0,.5.9,1.2,1.2,0,0,0,1.5.2l.3-.2V18l4,7.8,1.4,3L76,37.1l2.4,4.8a3.6,3.6,0,0,1,.4.9h0a.6.6,0,0,1,.1.7c-.1.3-.5.3-.7.3H67.8a1.2,1.2,0,0,1-1.1-.7c-.5-1.1-1-2.1-1.6-3.2s-1.1-2.3-1.7-3.4a.5.5,0,0,0-.6-.4H46.1c-.3,0-.4.1-.6.4s-1.1,2.3-1.7,3.4l-1.6,3.2a1.1,1.1,0,0,1-1.1.7H30.8Zm-.1-.7H41.1a.5.5,0,0,0,.5-.3c.5-1.1,1.1-2.1,1.6-3.2l1.7-3.4a1.2,1.2,0,0,1,1.2-.8H62.8a1.1,1.1,0,0,1,1.2.8c.6,1.1,1.2,2.3,1.7,3.4l1.6,3.2a.5.5,0,0,0,.5.3H78.3l-.5-.9-2.4-4.8-4.2-8.3-1.4-3c-1.3-2.5-2.6-5-3.8-7.6a2.1,2.1,0,0,1-2-.4,1.6,1.6,0,0,1-.6-1.3,1.7,1.7,0,0,1,.5-1.5l.3-.3-.3-.6a15.5,15.5,0,0,0-2.1-3.5,6.6,6.6,0,0,0-4.4-2.7H50.6c-2,.6-3.5,2.1-4.8,4.5v.5a4.3,4.3,0,0,0-.4.7h0l-.3.6-2.4,4.8-.3.6c-.6,1.1-1.1,2.3-1.7,3.4l-.2.3c0,.2-.1.3-.2.5l-1.5,3.1-.5.8c-.7,1.5-1.4,3-2.2,4.4L30.8,42.9A.3.3,0,0,0,30.7,43.1Z"/><path class="cls-1" d="M59.2,28.4H50a.9.9,0,0,1-.8-.3,1.2,1.2,0,0,1,.1-.8l1.6-3,.2-.5,1.6-3.2c.4-.8.8-1.6,1.3-2.4a.4.4,0,0,1,.1-.3.3.3,0,0,0,.1-.2l.3-.5,5.4,10.7v.2A.6.6,0,0,1,59.2,28.4Zm-9.3-.7H59l-4.5-9.1-1.2,2.3-1.6,3.3-.2.4-1.6,3Z"/><path class="cls-1" d="M126.5,8.1l-1.8-2.4-.4.2,1.9,2.6,3.4,4.6.4-.3Z"/><path class="cls-1" d="M130,12.6l-1.3-1.4-.3-.4-.6-.5-.4.2.8.8.3.4,1.2,1.3,2.2,2.3h.6Z"/><path class="cls-1" d="M128.6,10l-.2.8-.2.5-.6,1.7-.9,2.3h.5l.8-2.1.5-1.5.2-.5.4-1.1Z"/><path class="cls-1" d="M135.3,15.3l6.1-2.8-.2-.4-7.1,3.2Z"/><path class="cls-1" d="M134.8,7.7h.1l.3.5,5.5,3.9.2-.4-5.5-4h-.6Z"/><path class="cls-1" d="M150.3,11.2l-7.3,1-3.3.4a4.3,4.3,0,0,0,.1.5l3.2-.4,7.4-1.1Z"/><path class="cls-1" d="M159.6,14.9l-6.8-3.2-2.9-1.3a.5.5,0,0,0-.2.4l2.9,1.4,6.8,3.1Z"/><path class="cls-1" d="M137.2,9.1l-7,2.4h0l-3,1,.3.4h0l2.7-.9h.1l7.1-2.4Z"/><path class="cls-1" d="M149,7.8h-.5l2,5,.5-.2Z"/><path class="cls-1" d="M164.2,7.2,162.5,10l-3.6,6,.4.2,3.6-6,1.7-2.8A.5.5,0,0,0,164.2,7.2Z"/><path class="cls-1" d="M159,20.5l2.8,1.6,6.2,3.4.2-.4L162,21.7l-2.8-1.6A.8.8,0,0,0,159,20.5Z"/><path class="cls-1" d="M149.2,28.3l3-1.1,6.7-2.2v-.5l-6.7,2.3-3.1,1A.8.8,0,0,0,149.2,28.3Z"/><path class="cls-1" d="M151.6,30.9l-1.4-3-2.9-6.4-.4.2,2.9,6.4,1.3,3Z"/><path class="cls-1" d="M158.7,25l-.4-.5-1-1.4-1.1-1.4h-.5l1.3,1.8,1.2,1.6.3.6h.6Z"/><path class="cls-1" d="M159.9,14.8l-1.3,7.7-.3,2v.6l-.2.6h.5l.2-.7.4-2.4,1.3-7.7Z"/><path class="cls-1" d="M166.8,18.2h-.5l1.5,6.8.4-.6Z"/><path class="cls-1" d="M143.8,29.2l-2.3-2.6-.8-.9-.3-.3-.7-.8h-.5l1,1.1.3.4.8.9,1.9,2.1h.6Z"/><path class="cls-1" d="M141,24.9l-.3-.2-.3.7-.2.4-1,1.8-.5,1.1-.4.6h.6l.3-.6.5-.9.8-1.6.2-.5.4-.7Z"/><path class="cls-1" d="M132.3,21.7h0l-.2,1L130.5,30h.5l1.5-7.4.3-1v-.3Z"/><path class="cls-1" d="M132.2,21.7l-8.7,4.4-.4.2-.2-.5.6-.3,7.7-3.8Z"/><path class="cls-5" d="M130.9,30.8l-9.1-7.9.3-.3,9.1,7.9Z"/><path class="cls-1" d="M62,10.3,50,9.9V9.5l12,.4Z"/><path class="cls-1" d="M50,8.2l-.2.6,5,8.6.4-.3Z"/><path class="cls-1" d="M60.8,15l-4.2,7.1.3.3,4.3-7.2Z"/><path class="cls-1" d="M63.9,19.6l-4.8-6.4-.4.3,4.7,6.4,2,2.6.3-.2c0-.1,0-.1.1-.1Z"/><path class="cls-1" d="M59.7,11.7l-4.5,6.6.4.3L60.1,12,62,9.3l-.4-.2h-.1Z"/><path class="cls-1" d="M71.2,30.1,64,20.5l.4-.3,7.2,9.6Z"/><path class="cls-1" d="M63.9,19.8h-.3l-.4,2.4-1.6,8.3H62l1.6-8,.6-3Z"/><path class="cls-1" d="M61.4,25.8l-4.5-3.7-.2.4,4.4,3.7,2.4,2,.3-.2a.1.1,0,0,1,.1-.1Z"/><path class="cls-1" d="M56,17.3l-3.3.3-8.5.8v.5l8.6-.9,3.2-.3Z"/><path class="cls-1" d="M46.2,18.4,43.9,30.2h-.5l2.3-11.8Z"/><path class="cls-1" d="M45.6,18.4l-.3.3,5.9,5.7c.1-.1.1-.3.2-.4Z"/><path class="cls-1" d="M43.4,26,40,23.7a.8.8,0,0,1-.2.4l3.3,2.3,2.7,1.8v-.4Z"/><path class="cls-1" d="M47.1,17.9l-3.1.9-1.8.5-.3.6,2.2-.6,3.2-1C47.2,18.1,47.2,18,47.1,17.9Z"/><path class="cls-1" d="M44.9,14l-.3.5,2.1,5.4.2-.2a.3.3,0,0,0,.1-.2Z"/><path class="cls-1" d="M48.6,12.3l-3.1.4c0,.1,0,.1-.1.2v.3l3.4-.4Z"/><path class="cls-1" d="M49.4,8.3l-1.2,4.3h.5l1.1-3.9Z"/><path class="cls-1" d="M62.2,11.1a1.7,1.7,0,0,1-2.4.2A1.7,1.7,0,0,1,59.7,9a1.6,1.6,0,1,1,2.5,2.1Z"/><path class="cls-1" d="M52.1,11a1.7,1.7,0,0,1-2.3.1,1.6,1.6,0,0,1,2.1-2.5A1.7,1.7,0,0,1,52.1,11Z"/><path class="cls-1" d="M56,17.7a1.9,1.9,0,0,1-.4.9,1.6,1.6,0,0,1-2.3.2,1.4,1.4,0,0,1-.5-.8.6.6,0,0,1-.1-.4,1.5,1.5,0,0,1,.4-1.1,1.6,1.6,0,0,1,2.3-.2,2.1,2.1,0,0,1,.6,1Z"/><path class="cls-1" d="M61.9,17.1a1.7,1.7,0,0,1-2.4.2,1.8,1.8,0,0,1-.1-2.4,1.7,1.7,0,0,1,2.3-.1A1.6,1.6,0,0,1,61.9,17.1Z"/><path class="cls-1" d="M65.8,22.6h0l-.3.2a1.7,1.7,0,0,1-1.9,0h-.2l-.2-.3a1.5,1.5,0,0,1,.1-2l.2-.2h.1l.3-.2h.3a1.7,1.7,0,0,1,1.4.3A1.7,1.7,0,0,1,65.8,22.6Z"/><path class="cls-1" d="M63.9,28.1h-.1l-.3.3a1.7,1.7,0,0,1-2-.1,1.7,1.7,0,0,1-.4-2l.2-.4h.1a1.6,1.6,0,0,1,2.5,2.1Z"/><path class="cls-1" d="M71.3,28.5a1.6,1.6,0,0,1-2.3.2,1.7,1.7,0,0,1-.1-2.4,1.7,1.7,0,0,1,2.3-.1A1.6,1.6,0,0,1,71.3,28.5Z"/><path class="cls-1" d="M66.6,17.7a1,1,0,0,1-.5.4c-.4-.9-.9-1.8-1.3-2.6l-.2-.3a1.7,1.7,0,0,1,1.8.2A1.6,1.6,0,0,1,66.6,17.7Z"/><path class="cls-1" d="M45.9,27.8v.4c-.1.1-.2.2-.2.3a1.7,1.7,0,0,1-2.4.2,1.7,1.7,0,0,1-.1-2.3h0l.3-.3a1.8,1.8,0,0,1,2,.2A1.4,1.4,0,0,1,45.9,27.8Z"/><path class="cls-1" d="M130.2,12a1.4,1.4,0,0,1-.2.6l-.2.2V13a2,2,0,0,1-1.7.2l-.4-.2h-.1l-.3-.4a1.5,1.5,0,0,1,.2-1.9h0l.4-.2.8-.3h.5l.6.4a1.2,1.2,0,0,1,.5,1A.5.5,0,0,1,130.2,12Z"/><path class="cls-1" d="M126.5,8.1v.2l-.2.2a1.7,1.7,0,0,1-2.1,0,1.6,1.6,0,0,1-.2-2.3c.1-.2.2-.3.4-.3l.4-.2a1.4,1.4,0,0,1,1.5.3A1.6,1.6,0,0,1,126.5,8.1Z"/><path class="cls-1" d="M143,12.7a1.4,1.4,0,0,1-.4,1,1.6,1.6,0,0,1-2.3.1,1.8,1.8,0,0,1-.5-.7,4.3,4.3,0,0,1-.1-.5,2.1,2.1,0,0,1,.4-1.1,1.7,1.7,0,0,1,2.4-.1,2.2,2.2,0,0,1,.5.8Z"/><path class="cls-1" d="M144.4,10.4l.3.2.7.4h0l-.7-.5-.3-.2Z"/><path class="cls-1" d="M144.4,10.2l.3-.3.5-.6h-.1l-.5.6-.2.3Z"/><path class="cls-1" d="M143.3,9.6l.3.2.6.5h0l-.6-.5-.3-.3Z"/><path class="cls-1" d="M144.3,10.4l-.2.3-.4.6h0l.5-.7.2-.3Z"/><path class="cls-1" d="M144.9,10.4a.4.4,0,0,1-.1.3.5.5,0,0,1-.7,0c-.1,0-.1-.1-.1-.2h-.1l.2-.3c.1-.2.4-.2.6-.1s.2.2.2.3Z"/><path class="cls-1" d="M145.6,11h-.4v-.2c0-.1.2-.1.3,0h0Z"/><path class="cls-1" d="M145.3,9.4h-.4V9.2h.2a.1.1,0,0,1,.1.1Z"/><path class="cls-1" d="M143.6,9.6h-.1a.2.2,0,0,1-.3,0h0V9.4h.4Z"/><path class="cls-1" d="M143.9,11.4h-.4v-.2h.4Z"/><path class="cls-1" d="M60.5,21.8v.3l.3.7H61l-.3-.6v-.4A.1.1,0,0,0,60.5,21.8Z"/><path class="cls-1" d="M60.6,21.7H61l.7-.2H60.6Z"/><path class="cls-1" d="M60.1,20.6v.3l.2.7h0V20.5A.1.1,0,0,0,60.1,20.6Z"/><path class="cls-1" d="M60.5,21.7h-.3l-.7.3h0l.7-.2h.3Z"/><path class="cls-1" d="M60.9,22l-.3.2c-.2.1-.4-.1-.5-.3v-.3a.1.1,0,0,0,.1-.1c0-.1.1-.1.2-.2a.5.5,0,0,1,.6.4c0,.1,0,.2-.1.2Z"/><path class="cls-1" d="M61.1,22.8h-.2c.1-.1.2,0,.2.1Z"/><path class="cls-1" d="M61.7,21.5a.1.1,0,0,1-.1.1.2.2,0,0,1-.2-.2h.1l.3.2h-.1Z"/><path class="cls-1" d="M60.3,20.7a.1.1,0,0,1-.1.1l-.2-.2h.2a.2.2,0,0,1,.2.2h-.1Z"/><path class="cls-1" d="M59.6,22.2h-.1l-.2-.2h0a.1.1,0,0,1,.1-.1c.1,0,.2,0,.2.1v.2Z"/><path class="cls-1" d="M49.8,15.2l.5.4,1.2.7h0l-1.2-.7-.5-.4Z"/><path class="cls-1" d="M49.8,15l.4-.5.9-1H51l-.9,1.1-.4.4Z"/><path class="cls-1" d="M47.8,13.9l.5.4,1.1.8h0l-1-.9-.5-.4Z"/><path class="cls-1" d="M49.6,15.2l-.3.5-.8,1.2h.1l.8-1.1.3-.5C49.7,15.2,49.7,15.2,49.6,15.2Z"/><path class="cls-1" d="M50.6,15.3a.8.8,0,0,1-.2.5.8.8,0,0,1-1.1.1c-.2-.1-.2-.3-.3-.4v-.2a.7.7,0,0,1,.2-.6.8.8,0,0,1,1.1-.1,1.3,1.3,0,0,1,.3.5Z"/><path class="cls-1" d="M51.8,16.2v.3a.4.4,0,0,1-.5,0v-.2h0V16c.2-.1.4-.2.5,0a.1.1,0,0,1,.1.1Z"/><path class="cls-1" d="M51.3,13.5c0,.1,0,.2-.1.2s-.3.2-.5.1-.1-.1-.1-.2h0v-.2c.1-.2.3-.2.5,0h.1Z"/><path class="cls-1" d="M48.3,13.9v.2h-.6v-.3h.5c.1,0,.1.1.1.2Z"/><path class="cls-1" d="M48.9,16.9a.4.4,0,0,1-.6.3c-.1-.1-.1-.1-.1-.2h0c0-.1,0-.2.1-.2a.2.2,0,0,1,.4,0h.2Z"/><path class="cls-1" d="M55.6,13.1l.4.2.7.5h0l-.7-.4-.4-.3Z"/><path class="cls-1" d="M55.6,12.9l.3-.3.6-.6h-.1l-.5.7-.3.3Z"/><path class="cls-1" d="M54.4,12.2l.3.3.7.5h0l-.7-.6-.3-.2Z"/><path class="cls-1" d="M55.5,13.1l-.2.3-.5.8h.1l.5-.7.2-.4Z"/><path class="cls-1" d="M56.2,13.1a.5.5,0,0,1-.2.4.5.5,0,0,1-.7,0l-.2-.2v-.5a.6.6,0,0,1,.8-.1.4.4,0,0,1,.1.3Z"/><path class="cls-1" d="M56.9,13.7v.2h0Z"/><path class="cls-1" d="M56.6,12h-.1V12Z"/><path class="cls-1" d="M54.7,12.2c0,.1,0,.1-.1.2h.1Z"/><path class="cls-1" d="M55,14.2h-.3a.1.1,0,0,1-.1-.1h0V14H55Z"/><path class="cls-1" d="M144.7,25.2v1.2h.1V25.2Z"/><path class="cls-1" d="M144.8,25.2h.4l.8.2h-1.2Z"/><path class="cls-1" d="M144.9,23.8v.4l-.2.8h.1V23.8Z"/><path class="cls-1" d="M144.7,25.1h0Z"/><path class="cls-1" d="M144.9,25.7h-.3a.5.5,0,0,1-.4-.6l.2-.2h.1c.1,0,.2-.1.3,0s.4.3.4.5l-.2.3Z"/><path class="cls-1" d="M144.8,26.6h-.2a.4.4,0,0,1-.1-.3h.2a.2.2,0,0,1,.2.2.1.1,0,0,1-.1.1Z"/><path class="cls-1" d="M146,25.5h-.1l-.2-.2a.1.1,0,0,1,.1-.1h.2a.4.4,0,0,1,.1.3H146Z"/><path class="cls-1" d="M145,24.1h-.1a.2.2,0,0,1-.2-.2h.3c.1,0,.1.2.1.3Z"/><path class="cls-1" d="M143.6,25.2h-.1c-.2,0-.2-.1-.2-.2a.1.1,0,0,1,.1-.1h.1a.2.2,0,0,1,.2.2Z"/><path class="cls-1" d="M164.1,16.5l.4.4,1,1h0l-.9-.9-.4-.5A.1.1,0,0,0,164.1,16.5Z"/><path class="cls-1" d="M164.2,16.3l.5-.4,1.1-.8h-.1l-1.1.8-.5.4Z"/><path class="cls-1" d="M162.6,14.8l.3.5.9,1h0l-.8-1.1-.4-.5Z"/><path class="cls-1" d="M164,16.5l-.5.4-1,.9h.1l1-.9.5-.4Z"/><path class="cls-1" d="M164.9,16.7l-.3.5a.9.9,0,0,1-1.1-.2l-.2-.4v-.2a1,1,0,0,1,.4-.5.7.7,0,0,1,1.1.2c.1.1.1.2.1.4Z"/><path class="cls-1" d="M165.8,17.9c0,.1,0,.1-.1.2a.2.2,0,0,1-.4-.1c-.1,0-.1-.1-.1-.2h0a.3.3,0,0,0,.1-.2.4.4,0,0,1,.5.1c0,.1.1.1.1.2Z"/><path class="cls-1" d="M165.9,15.2c0,.1,0,.1-.1.2s-.3.1-.5-.1h0v-.2a.3.3,0,0,1,.5,0v.2Z"/><path class="cls-1" d="M163,14.9v.2c-.1.1-.3,0-.4-.1v-.2h0v-.2c.2-.1.4-.1.5.1a.3.3,0,0,1,.1.2Z"/><path class="cls-1" d="M162.9,17.9c0,.1-.1.1-.2.2s-.3,0-.4-.1v-.2h0l.2-.2c.1-.1.3,0,.4.1s.1.1.1.2Z"/><path class="cls-1" d="M151.5,12.4a1.6,1.6,0,1,1-.2-2.3A1.6,1.6,0,0,1,151.5,12.4Z"/><path class="cls-1" d="M157.8,7.7h-.4c-.3.2-.5.1-.8.1h-1.9c0-.2.2-.4.3-.6a1.7,1.7,0,0,1,2.3-.1Z"/><path class="cls-1" d="M161.1,16.3a1.6,1.6,0,1,1-.2-2.3A1.6,1.6,0,0,1,161.1,16.3Z"/><path class="cls-1" d="M168.3,20.6a1.7,1.7,0,0,1-2.3.1,1.7,1.7,0,0,1,2.2-2.5A1.7,1.7,0,0,1,168.3,20.6Z"/><path class="cls-1" d="M169.8,14.4c-.2.2-.4.4-.6.4a7.1,7.1,0,0,0-1.4-2.9,1.5,1.5,0,0,1,1.8.2A1.6,1.6,0,0,1,169.8,14.4Z"/><path class="cls-1" d="M164.8,9.8a1.7,1.7,0,0,1-1.9.4l-.4-.2h0a1.5,1.5,0,0,1-.1-2.3,1.5,1.5,0,0,1,1.8-.4.5.5,0,0,1,.4.2h.1A1.6,1.6,0,0,1,164.8,9.8Z"/><path class="cls-1" d="M164.2,29.2a1.6,1.6,0,1,1-.2-2.3A1.6,1.6,0,0,1,164.2,29.2Z"/><path class="cls-1" d="M151,28.9a1.6,1.6,0,0,1-2.3.2,1.7,1.7,0,0,1-.2-2.4,1.7,1.7,0,0,1,2.5,2.2Z"/><path class="cls-1" d="M141.5,26.6c0,.2-.1.3-.2.5s-.1.1-.1.2a1.7,1.7,0,0,1-1.5.5l-.5-.2-.3-.2a1.6,1.6,0,0,1-.2-2.3l.5-.4h.5a1.2,1.2,0,0,1,1,.1l.3.2h.1A1.4,1.4,0,0,1,141.5,26.6Z"/><path class="cls-1" d="M141,22.8a1.6,1.6,0,0,1-2.4.1,1.7,1.7,0,0,1-.1-2.3,1.7,1.7,0,0,1,2.5,2.2Z"/><path class="cls-1" d="M133.9,21.7c0,.2-.1.3-.3.5a1.6,1.6,0,0,1-1.1.5.3.3,0,0,1-.4,0,1.2,1.2,0,0,1-.8-.4c-.2-.1-.3-.4-.4-.6Z"/><path class="cls-1" d="M125.5,25.9a1.8,1.8,0,0,1-2.4.1,1.7,1.7,0,0,1-.1-2.3,1.6,1.6,0,0,1,2.3-.2A1.7,1.7,0,0,1,125.5,25.9Z"/><path class="cls-1" d="M130.8,29a1.7,1.7,0,0,1-2.4.2,1.7,1.7,0,0,1-.1-2.3,1.6,1.6,0,0,1,2.5,2.1Z"/><path class="cls-1" d="M159.8,25.3l-.7.4H158a.9.9,0,0,1-.6-.3,1.7,1.7,0,0,1-.4-1.9l.3-.4h0a1.6,1.6,0,0,1,1.3-.6h.5l.5.3A1.7,1.7,0,0,1,159.8,25.3Z"/><path class="cls-4" d="M37.5,28.7l27.6-.2a39.1,39.1,0,0,0,5.8-.1c.9-.2,7.7,14.5,7.7,14.5l-.4.5H67.5l-4.1-7.5H45.5l-.9,1.7-3,5.6H30.3Z"/><path class="cls-6" d="M49.8,8.7h.1Z"/><path class="cls-1" d="M172.4,43.3s-10.6.4-12,.1-14.2-14.2-14.2-14.2H134.1l-.3,13.8-10.3.3-.3-14.7,35.1.3,1.2.8Z"/><polygon class="cls-1" points="158.1 10.5 159.5 10.5 160.2 11.7 159.5 12.8 158.1 12.9 157.5 11.7 158.1 10.5"/><polygon class="cls-1" points="134.8 23.7 136.4 23.7 137.1 25 136.3 26.3 134.8 26.3 134.1 25 134.8 23.7"/><polygon class="cls-1" points="161.8 23.3 163.3 23.3 164 24.5 163.3 25.7 161.8 25.8 161.1 24.5 161.8 23.3"/><polygon class="cls-1" points="46.9 24.2 48.3 24.2 49 25.4 48.3 26.5 46.9 26.6 46.3 25.4 46.9 24.2"/><polygon class="cls-1" points="61.3 12.3 62.3 12.3 62.7 13.2 62.2 14 61.3 14 60.8 13.2 61.3 12.3"/></svg>