<svg id="Capa_1" data-name="Capa 1" xmlns="http://www.w3.org/2000/svg" width="512" height="512" viewBox="0 0 512 512"><defs><style>.cls-1{fill:#262262;}</style></defs><path class="cls-1" d="M445.7,123.8a18.1,18.1,0,0,0,12.8-5.3l50.3-50.3a11,11,0,0,0-7.2-18.8l-26.7-1.7,17.4-17.4a7.5,7.5,0,0,0-10.6-10.6L464.3,37.1l-1.7-26.7a11,11,0,0,0-18.8-7.2L393.5,53.5a18.3,18.3,0,0,0-5.3,14L389.9,95A235.7,235.7,0,0,0,236.6,38.7C105.9,38.7,0,144.6,0,275.4A236.3,236.3,0,0,0,61.6,434.6a7.5,7.5,0,1,0,11.1-10.1A221.3,221.3,0,0,1,15,275.4C15,153.1,114.4,53.7,236.6,53.7a222.1,222.1,0,0,1,151.5,59.6l-34.2,34.2a173.2,173.2,0,0,0-117.3-45.8C140.9,101.7,63,179.6,63,275.4a173.1,173.1,0,0,0,19.2,79.3h0A173.9,173.9,0,0,0,236.6,449c82.1,0,153.4-57.9,170.1-138.3a7.5,7.5,0,0,0-14.7-3.1C376.8,380.9,311.5,434,236.6,434A158.4,158.4,0,0,1,95.5,347.9h0A157.3,157.3,0,0,1,78,275.4c0-87.5,71.2-158.7,158.6-158.7a158,158,0,0,1,106.7,41.4L309.4,192A110.7,110.7,0,1,0,320,202.6l33.9-33.9a157.8,157.8,0,0,1,41.4,105.7,7.5,7.5,0,0,0,7.5,7.5h0a7.5,7.5,0,0,0,7.5-7.6,173,173,0,0,0-45.8-116.2l34.2-34.2a220.9,220.9,0,0,1,59.6,151.5c0,122.2-99.4,221.6-221.7,221.6A222.3,222.3,0,0,1,97.2,447.7a7.5,7.5,0,1,0-9.4,11.6A236.9,236.9,0,0,0,236.6,512c130.8,0,236.7-105.8,236.7-236.6a234.4,234.4,0,0,0-46.6-141c-3.1-4.2-6.4-8.4-9.8-12.3l28.8,1.7ZM332.3,275.4a95.7,95.7,0,1,1-95.7-95.7,94.7,94.7,0,0,1,62.1,23l-34.1,34.1a47.7,47.7,0,1,0,10.6,10.6l34.2-34.1A95.1,95.1,0,0,1,332.3,275.4Zm-101,5.3a7.5,7.5,0,0,0,10.6,0l22.5-22.5a32.7,32.7,0,1,1-10.6-10.6l-22.5,22.5a7.5,7.5,0,0,0,0,10.6ZM403.2,66.5a3.2,3.2,0,0,1,.9-2.4L448.2,20l1.9,31.3-45,45Zm12.5,40.4,45-45L492,63.8l-44.1,44.1a3.2,3.2,0,0,1-2.4.9Z"/></svg>