<svg id="Capa_1" data-name="Capa 1" xmlns="http://www.w3.org/2000/svg" width="100" height="50" viewBox="0 0 100 50"><defs><style>.cls-1{fill:#fff;}.cls-2{fill:#364ea1;}</style></defs><rect class="cls-1" width="100" height="50" rx="2"/><path class="cls-2" d="M27,21l-.3.2h0a1.1,1.1,0,0,1-1.2-.1c-.1-.1-.2-.2-.2-.3a.4.4,0,0,1-.1-.3,1.9,1.9,0,0,1,.2-.7,1.1,1.1,0,0,1,1.4-.1l.2.3v.2A.9.9,0,0,1,27,21Z"/><path class="cls-2" d="M27,21h-.1c0,.1,0,.1-.1.1s-.1.1-.1.2h0Z"/><path class="cls-2" d="M76,34.9h0a43.2,43.2,0,0,0-5.1,0l-.4-.2a.8.8,0,0,1-.2-.4V22.6a.8.8,0,0,1,.2-.4H89.2l.9-.2a1.2,1.2,0,0,0,.7-1V20a1.2,1.2,0,0,0-.8-1,3.6,3.6,0,0,0-1.4-.2H70.5a.6.6,0,0,1-.2-.5,19.3,19.3,0,0,0,.1-2.4V14.6h0a.2.2,0,0,1,.1-.4V14h18v.2a.8.8,0,0,0,.2.8l.6.2c.2,0,.3-.1.5-.3a.6.6,0,0,0,.1-.7v-.3h.3a9.9,9.9,0,0,1,4.5,1.2L96,16.5v.2h-.2c-.1.1-.2.1-.2.2a.6.6,0,0,0-.2.5,1.4,1.4,0,0,0,.2.6,1.1,1.1,0,0,0,.8.1h.2v.2a.9.9,0,0,0,.1.5,9.6,9.6,0,0,1-.2,4.2c-.2.3-.3.7-.5,1s-.2.2-.2.3a5.8,5.8,0,0,1-1.9,1.5,9.9,9.9,0,0,1-2.9.9h-.1l6.5,6.7,1.1,1.2h-.1c-.2.2-.4.2-.5.1H91.6a2,2,0,0,1-.8-.4l-7-7.3-.2-.2-.2-.2H76.6v7.3c0,.2,0,.4-.2.5A.5.5,0,0,1,76,34.9Zm-2.5-.4h2.7V27.1a.7.7,0,0,1,.1-.5h.1a.4.4,0,0,1,.3-.2h7.5l-.4.2h.1l.2.3c2.3,2.3,4.7,4.8,7,7.3l.5.2h6.5l-.8-.8c-2.2-2.4-4.5-4.7-6.7-7l-.3-.3h.9a8.6,8.6,0,0,0,2.7-.8,6.6,6.6,0,0,0,1.8-1.4c0-.1.1-.2.2-.3l.4-.9a9.2,9.2,0,0,0,.2-4.1v-.2a.9.9,0,0,1-1-.3,1,1,0,0,1-.4-.7,1.6,1.6,0,0,1,.3-.9h.1a4.8,4.8,0,0,0-1.1-.9,8.3,8.3,0,0,0-4.1-1.2,1,1,0,0,1-.2.9,2,2,0,0,1-.8.4,1.1,1.1,0,0,1-.8-.3,1.3,1.3,0,0,1-.4-1H70.7v3.6c0,.1,0,.2.1.2H88.6a3.9,3.9,0,0,1,1.5.2,1.4,1.4,0,0,1,1,1.4v.9a1.3,1.3,0,0,1-.9,1.3l-1,.2H70.7V34.3h2.8Z"/><path class="cls-2" d="M68.4,18.6H53.3A2.4,2.4,0,0,0,51,21.2v6.5a2.5,2.5,0,0,0,2.7,2.6H68.1c.3,0,.4,0,.4.4v3.6c0,.3-.1.4-.3.4H53.7a11.5,11.5,0,0,1-4.5-.7,6,6,0,0,1-3.9-5,10.9,10.9,0,0,1-.1-1.8V21.5a9.2,9.2,0,0,1,.7-3.6,6.5,6.5,0,0,1,4.2-3.2,11.7,11.7,0,0,1,2.6-.4H68c.4,0,.4.1.4.5Z"/><path class="cls-2" d="M88.9,39.4H87.7c-.1,0-.3,0-.3-.1s0-.3.2-.3a.2.2,0,0,0,.1-.3c-.1-.1,0-.3-.3-.4h-.6c-.3,0-.2.2-.3.3s0,.3.1.3.2.1.2.3-.2.1-.3.1h-.7c-.1,0-.2,0-.2-.1s-.1-.2.1-.3a1.4,1.4,0,0,0,.5-.8,9.4,9.4,0,0,0,.6-1.5c.2-.3.4-.2.6-.2s.2,0,.3.2a13.4,13.4,0,0,0,.7,1.8.8.8,0,0,0,.2.4c.3.2.6.1.6-.2a7.5,7.5,0,0,0,0-1.5c0-.2,0-.3-.2-.3s-.1-.2-.1-.3a.1.1,0,0,1,.1-.1,6.6,6.6,0,0,1,2,.1.8.8,0,0,1,.7.5,1,1,0,0,1-.4.9c-.2.1-.3.1-.1.3s.4.6.8.7,0,.2,0,.3,0,.1-.1.1-.9,0-1.1-.5l-.5-.6c0-.1-.1-.2-.2-.1s-.1.1-.1.2-.1.5.2.6.1.2.1.3-.1.1-.2.1Zm1.1-2c0,.2-.1.4.2.4s.7-.2.7-.5-.2-.4-.6-.4S90,37.1,90,37.4Zm-3.2.6h.6l-.3-.9Z"/><path class="cls-2" d="M15.8,39c.4,0,.5-.2.7-.5l.7-1.8c.1-.2.3-.2.5-.2s.3.1.4.3a13.4,13.4,0,0,0,.7,1.8c0,.1.1.2.2.3s.6.1.6-.2V37.2c0-.2-.1-.3-.2-.3s-.1-.2-.1-.3.1-.1.2-.1h0c1,0,1,0,1.5.8a5.9,5.9,0,0,1,.4.8,3.8,3.8,0,0,0,.1-1c0-.1-.1-.2-.3-.2a.4.4,0,0,1-.1-.3c0-.1.1-.1.2-.1H22c.1,0,.2,0,.2.1s.1.3-.1.3-.2.3-.2.4V39c0,.1.1.3-.1.4s-.5,0-.6-.2l-1-1.7-.2-.3v1.6a.2.2,0,0,0,.2.2c.2,0,.1.2.1.3s-.1.1-.2.1H18c-.1,0-.2,0-.2-.2s-.1-.2.1-.2.2-.1.2-.3-.1-.4-.4-.4a.5.5,0,0,1-.5,0c-.2,0-.3.2-.3.4s-.1.3.2.3.1.2.1.3-.1.1-.2.1H15.8Zm2-1-.3-.9-.4.9Z"/><path class="cls-2" d="M69.5,39.4H67.8c-.1,0-.2,0-.2-.1s-.1-.3.1-.3.2-.1.2-.3-.1-.4-.3-.4a.6.6,0,0,1-.6,0c-.3,0-.3.2-.3.4a.2.2,0,0,0,.1.3c.2,0,.2.1.2.3s-.2.1-.3.1H66c-.1,0-.2,0-.2-.1s-.1-.3.1-.3.3-.4.4-.6a12.2,12.2,0,0,0,.7-1.7c.1-.2.3-.2.5-.2s.3,0,.4.2a13.4,13.4,0,0,0,.7,1.8.5.5,0,0,0,.2.4.3.3,0,0,0,.6-.2V37.2c0-.1,0-.3-.2-.3s-.1-.2-.1-.3.1-.1.2-.1h1c.1,0,.2,0,.2.1s.1.2-.1.3-.2.2-.2.4v1.4c0,.3.1.3.4.3a1.2,1.2,0,0,0,.8-.6c.1-.1.2-.2.3-.1s.1.2,0,.3-.2.8-1.1.8ZM67.6,38l-.3-.8a.8.8,0,0,0-.2.4c-.1.1-.1.2-.1.4Z"/><path class="cls-2" d="M97.7,39.4h-.4c-.1,0-.3,0-.3-.1a.4.4,0,0,1,.1-.3,1,1,0,0,0,.3-.9h-.6c-.2.1-.4-.1-.5.2a.8.8,0,0,0,.2.8c.2.1.1.2.1.3a.1.1,0,0,1-.1.1H95.4c-.1,0-.2,0-.2-.1a.4.4,0,0,1,.1-.3.2.2,0,0,0,.2-.2,4.9,4.9,0,0,0,0-1.7.2.2,0,0,0-.2-.2c-.2-.1-.1-.2-.1-.3s.2-.1.3-.1h.9c.1,0,.2,0,.2.1s.1.2-.1.3-.2.4-.2.6.1.2.2.2H97c.1-.1.3.1.4-.2s.1-.5-.3-.6a.4.4,0,0,1-.1-.3c0-.1.2-.1.2-.1h1c.1,0,.2,0,.2.1s.1.2,0,.3-.3.2-.3.4v1.1c0,.3,0,.5.3.6s0,.2,0,.3-.1.1-.2.1Z"/><path class="cls-2" d="M75.6,38.1c.3.3.4.7.9.9a.4.4,0,0,1,.1.3c0,.1-.2.1-.2.1s-.9,0-1.1-.5-.3-.4-.5-.6-.1-.2-.2-.1-.1.1-.1.2-.1.5.3.6,0,.2,0,.3-.1.1-.2.1h-1c-.1,0-.2,0-.2-.1s-.1-.3.1-.3.2-.3.2-.5a2.4,2.4,0,0,0,0-1.2c0-.1,0-.4-.2-.4s-.1-.2-.1-.3.1-.1.2-.1h1.8c.4.1.7.2.8.6a.9.9,0,0,1-.5.9A.1.1,0,0,0,75.6,38.1Zm-1.1-.7c0,.1-.1.4.2.4s.7-.2.7-.5-.2-.4-.6-.4S74.5,37.1,74.5,37.4Z"/><path class="cls-2" d="M46.5,39.4h-.8c-.1,0-.2,0-.2-.1s-.1-.3.1-.3h.1c.2-.3.2-1.9-.1-2.1a.4.4,0,0,1-.1-.3c0-.2.2-.1.3-.1a5.5,5.5,0,0,1,1.8.1A1.3,1.3,0,0,1,48.7,38a1.2,1.2,0,0,1-1.2,1.3Zm.1-1.5v.8c0,.2.1.3.4.3s.8-.4.9-1a1,1,0,0,0-.8-1.1c-.4-.1-.5,0-.5.4Z"/><path class="cls-2" d="M11.9,39.4h-.7c-.1,0-.2,0-.2-.1s-.1-.3.1-.3a.4.4,0,0,0,.2-.4V37.4c0-.2,0-.4-.2-.5s-.1-.2-.1-.3.1-.1.2-.1a6.2,6.2,0,0,1,1.9.1,1.2,1.2,0,0,1,1.1,1.3,1.3,1.3,0,0,1-1.1,1.4ZM12,38v.6a.4.4,0,0,0,.4.4c.6,0,.9-.4,1-1s-.4-1.1-.9-1.1-.5.1-.5.4Z"/><path class="cls-2" d="M36,39c.4.1.5-.1.5-.5V37.4c0-.2,0-.4-.3-.5s0-.2,0-.3.1-.1.2-.1h.8c.2,0,.2.1.3.2l.9,1.3v-.8c0-.2-.1-.3-.2-.3s-.2-.2-.1-.3.1-.1.2-.1h.6c.1,0,.2-.1.2.1s.1.3-.1.3a.4.4,0,0,0-.2.4V39c0,.1.1.3-.1.4a.7.7,0,0,1-.6-.2,4.1,4.1,0,0,0-.5-.9l-.7-1.1v1.6a.2.2,0,0,0,.2.2c.2,0,.1.2.1.3s-.1.1-.2.1H36Z"/><path class="cls-2" d="M10,38v-.8c0-.1,0-.3-.2-.3s-.1-.2-.1-.3.1-.1.2-.1h.7c.1,0,.2,0,.2.1a.4.4,0,0,1-.1.3c-.3.1-.3.3-.3.5V39c0,.1.1.3-.1.4s-.4,0-.5-.2a16.3,16.3,0,0,0-1.1-1.7c0-.1,0-.1-.1-.2a3.8,3.8,0,0,0,0,1.5.2.2,0,0,0,.2.2c.1,0,.1.2.1.3s-.1.1-.2.1H8s-.2,0-.2-.1,0-.3.1-.3.2-.3.2-.5V37.4c0-.2.1-.4-.2-.5a.4.4,0,0,1-.1-.3c0-.1.1-.1.2-.1h.1c.9,0,.9,0,1.4.8l.5.7Z"/><path class="cls-2" d="M27.1,39c.2-.1.2-.3.2-.5V37.3a.4.4,0,0,0-.2-.4c-.2-.1-.1-.2-.1-.3s.1-.1.2-.1a6.2,6.2,0,0,1,1.9.1,1.2,1.2,0,0,1,1.1,1.3A1.3,1.3,0,0,1,29,39.3H27.1Zm1-1.1h0v.8a.3.3,0,0,0,.3.3c.6,0,.9-.4,1-1s-.3-1.1-.9-1.1-.4.1-.4.4Z"/><path class="cls-2" d="M83.9,39.4h-1c-.1,0-.2,0-.2-.1s-.1-.3.1-.3.2-.2.2-.4V37.3c0-.2,0-.3-.3-.4s0-.2,0-.3.1-.1.2-.1h2a.2.2,0,0,1,.2.2c.1.2.2.3.2.5s.2.2,0,.2-.2,0-.3-.1a1,1,0,0,0-.7-.4c-.2,0-.4-.1-.5.1a1.3,1.3,0,0,0-.1.6h.2a.3.3,0,0,0,.3-.3c.1-.1.1-.2.3-.2s.1.2.1.3v.8a.4.4,0,0,1-.1.3c-.2,0-.2-.1-.3-.2a.4.4,0,0,0-.1-.3.2.2,0,0,0-.3,0c-.1,0-.1.1-.1.2s.3.9,1,.6l.5-.5c.1-.1.1-.1.2,0s.1.1.1.2l-.3.6c-.1.1-.1.2-.3.2Z"/><path class="cls-2" d="M60.2,38.1a2.6,2.6,0,0,0,0-.9c0-.2,0-.3-.2-.3s-.1-.2-.1-.3.1-.1.2-.1h.7c.1,0,.2,0,.2.1s0,.3-.1.3-.3.2-.3.4v1.6c0,.2.2.4-.1.5a.6.6,0,0,1-.6-.3L59,37.6l-.2-.4a8.5,8.5,0,0,0,0,1.6c0,.1,0,.2.1.2s.2.1.2.2-.1.2-.2.2h-.7s-.2,0-.2-.1,0-.3.1-.3a.4.4,0,0,0,.2-.4V37.3c0-.2,0-.3-.2-.4a.4.4,0,0,1-.1-.3c0-.1.1-.1.2-.1h.1c.9,0,.9,0,1.4.8A2.8,2.8,0,0,1,60.2,38.1Z"/><path class="cls-2" d="M43.6,39.4h-1c-.1,0-.2,0-.2-.1s-.1-.3.1-.3.2-.2.2-.4V37.5c0-.3.1-.5-.2-.6a.4.4,0,0,1-.1-.3c0-.1.1-.1.2-.1h2c.2,0,.2.1.3.2l.2.5a.2.2,0,0,1,0,.3h-.3a1.1,1.1,0,0,0-.9-.5h-.4c0,.2-.1.4,0,.6s.4,0,.5-.2a.2.2,0,0,1,.2-.2c.2,0,.1.2.1.3v.9s.1.1-.1.2-.2,0-.2-.2-.1-.2-.2-.3-.1-.1-.2,0-.1.1-.1.2.2.9.9.6a1.2,1.2,0,0,0,.5-.5.2.2,0,0,1,.3,0,.1.1,0,0,1,0,.2c-.3.8-.3.8-1.1.8Z"/><path class="cls-2" d="M77.9,39.4H76.6c0-.1,0-.3.2-.3s.2-.2.2-.4V37.3c0-.2,0-.3-.3-.4a.2.2,0,0,1,0-.3c0-.1.1-.1.2-.1h2a.2.2,0,0,1,.2.2.8.8,0,0,1,.2.4c.1.1.2.2,0,.4s-.2-.1-.3-.2a1.3,1.3,0,0,0-.9-.4c-.1,0-.3-.1-.3.1a1.3,1.3,0,0,0-.1.6h.2a.3.3,0,0,0,.3-.3c.1-.1.1-.2.2-.2s.2.2.2.3v.8c0,.1,0,.3-.2.3s-.1-.1-.2-.2a.4.4,0,0,0-.1-.3.2.2,0,0,0-.3,0c-.1,0-.1.1-.1.2s.2.9.9.6l.6-.5c.1-.1.1-.1.2,0s.1.1.1.2a.1.1,0,0,1-.1.1c-.3.7-.3.7-1.1.7Z"/><path class="cls-2" d="M81.2,39.4h-.5c-.1-.1-.2-.1-.3.1s-.3.1-.3-.1l-.3-.8a.4.4,0,0,1,.1-.3h.3a1.3,1.3,0,0,0,.7.6.6.6,0,0,0,.6,0c.1-.1.2-.2.2-.3s-.1-.2-.2-.3h-.4l-.8-.2a.7.7,0,0,1-.2-1.2,1.1,1.1,0,0,1,1.1-.3c.2,0,.4.2.6,0s.2,0,.2.1a1.4,1.4,0,0,0,.2.6v.2h-.3l-.2-.3-.7-.2a.3.3,0,0,0-.3.3c-.1.2.1.2.2.3l.9.2c.5.2.7.4.7.7a1.1,1.1,0,0,1-.6,1Z"/><path class="cls-2" d="M27.1,39v.4H25.7c-.1,0-.2,0-.2-.1s0-.3.1-.3.3-.1.2-.2,0-.4-.3-.4h-.6c-.3,0-.2.2-.3.4s0,.3.2.3.1.2.1.3-.1.1-.2.1h-.8c-.1,0-.2,0-.2-.1s-.1-.3.1-.3a.9.9,0,0,0,.4-.6,7.7,7.7,0,0,0,.7-1.6c.1-.3.3-.3.5-.3s.3.1.4.3l.7,1.8C26.6,38.8,26.7,39.1,27.1,39Zm-1.9-1.8-.3.8h.6Z"/><path class="cls-2" d="M36,39v.4H34.9c-.1,0-.2,0-.2-.1s0-.3.1-.3.2-.1.2-.2,0-.4-.3-.4H34a.4.4,0,0,0-.2.4c-.1.2,0,.3.1.3s.2.2.2.3-.2.1-.3.1h-.7c-.1,0-.2,0-.2-.1s-.1-.3.1-.3.3-.4.4-.6a12.2,12.2,0,0,0,.7-1.7c.1-.2.3-.2.5-.2s.3,0,.4.2l.6,1.8A1,1,0,0,0,36,39Zm-1.6-1.8a1.1,1.1,0,0,0-.3.7c.6.1.6.1.4-.4A.4.4,0,0,0,34.4,37.2Z"/><path class="cls-2" d="M93,37.9v.3c.1.3.2.6.5.7a.8.8,0,0,0,.9-.3c.1,0,.1-.1.2-.2s.2,0,.3,0,.1.2,0,.2a1.3,1.3,0,0,1-1.9.6,1.4,1.4,0,0,1,1-2.7c.1,0,.2.1.3,0s.3-.1.3.1l.3.8c0,.1,0,.2-.1.2h-.3a.8.8,0,0,0-.2-.4c-.5-.5-1-.4-1.2.2A1.3,1.3,0,0,0,93,37.9Z"/><path class="cls-2" d="M39.4,37.9a1.4,1.4,0,0,1,1.8-1.4h.2c.4-.4.4,0,.5.2a.9.9,0,0,1,.1.5.2.2,0,0,1,0,.3c-.2.1-.2,0-.3-.1a1,1,0,0,0-.4-.5.5.5,0,0,0-.9.2,1.4,1.4,0,0,0-.1,1.4.7.7,0,0,0,1.1.2.8.8,0,0,0,.4-.4.2.2,0,0,1,.3,0c.2.1,0,.2,0,.3a1.5,1.5,0,0,1-2.7-.5Z"/><path class="cls-2" d="M31.9,38.5c.2-.4.3-.8.5-1.3s0-.3-.2-.3-.1-.2-.1-.3.1-.1.2-.1H33c.1,0,.3,0,.2.1s.1.3-.1.3a1,1,0,0,0-.4.5l-.6,1.8-.4.2a.4.4,0,0,1-.4-.2,10.7,10.7,0,0,0-.7-1.9c0-.2-.1-.3-.3-.4s-.2-.2-.2-.3.2-.1.3-.1h1c.1,0,.2,0,.2.1s.1.3-.1.3-.2.1-.2.3a6.9,6.9,0,0,1,.5,1.3Z"/><path class="cls-2" d="M63.7,37.9v.4a.8.8,0,0,0,1.2.5l.4-.3c.1-.2.2-.2.3-.1s0,.2,0,.3a1.5,1.5,0,0,1-2.7-.6,1.4,1.4,0,0,1,.8-1.5,1.2,1.2,0,0,1,1-.1h.2c.5-.4.4.1.5.3s.1.3.2.4.1.2-.1.3h-.3a.5.5,0,0,0-.2-.4c-.4-.5-1-.4-1.2.3A.9.9,0,0,0,63.7,37.9Z"/><path class="cls-2" d="M51.2,38v.3a.8.8,0,0,0,1.2.5.8.8,0,0,0,.4-.4.2.2,0,0,1,.3,0c.1.1,0,.2,0,.3a1.5,1.5,0,0,1-1.7.6,1.3,1.3,0,0,1-1-1.5,1.5,1.5,0,0,1,1.9-1.3.1.1,0,0,0,.1.1c.6-.4.4.3.6.5h0c0,.1.2.3,0,.4s-.3-.1-.4-.3l-.3-.3c-.3-.3-.7-.2-1,.2A1.9,1.9,0,0,0,51.2,38Z"/><path class="cls-2" d="M54.6,39.4h-1c-.1,0-.2,0-.2-.1s-.1-.3.1-.3.2-.2.2-.4V37.3c0-.2,0-.3-.2-.4s-.1-.2-.1-.3.1-.1.2-.1h1c.1,0,.2,0,.2.1s.1.2,0,.3-.3.2-.3.4v1.3c0,.3.1.4.4.4s.6-.3.9-.6.1-.2.2-.1.1.2.1.3-.3.8-1.1.8Z"/><path class="cls-2" d="M6.8,39.4H6.3s-.2,0-.2-.1,0-.3.1-.3a.4.4,0,0,0,.3-.4V37.3a.4.4,0,0,0-.3-.4.4.4,0,0,1-.1-.3c0-.1.1-.1.2-.1H7.4s.2,0,.2.1,0,.2-.1.3-.3.3-.3.5v1.1c0,.2,0,.4.3.5s0,.2.1.3-.2.1-.2.1Z"/><path class="cls-2" d="M15.8,39v.4H14.6s-.2,0-.2-.1,0-.3.1-.3.3-.2.3-.4V37.3c0-.2-.1-.3-.3-.4a.4.4,0,0,1-.1-.3c0-.1.2-.1.2-.1h1.1a.1.1,0,0,1,.1.1c0,.1.1.2,0,.3s-.3.2-.3.4v1.3C15.5,38.8,15.6,39,15.8,39Z"/><path class="cls-2" d="M56.7,37.9v-.6c0-.2-.1-.4-.3-.4a.4.4,0,0,1-.1-.3c0-.1.1-.1.2-.1h1c.1,0,.2,0,.2.1a.2.2,0,0,1,0,.3.4.4,0,0,0-.3.4v1.3a.4.4,0,0,0,.3.4c.1,0,0,.2,0,.3s-.1.1-.1.1H56.5c-.1,0-.2,0-.2-.1s0-.3.1-.3.2-.5.3-.8Z"/><path class="cls-2" d="M61.9,39.4h-.5c-.1,0-.2,0-.2-.2s-.1-.2.1-.2.2-.3.2-.5V37.4c0-.2.1-.4-.3-.5s0-.2,0-.3.1-.1.2-.1h1c.1,0,.2,0,.2.1s.1.2-.1.3-.2.3-.2.5a2,2,0,0,0,0,1.1c0,.2-.1.4.2.5s.1.2.1.3-.1.1-.2.1Z"/><path class="cls-2" d="M89.8,14.3h0Z"/><path class="cls-2" d="M83.5,26.6h0Z"/><path class="cls-2" d="M8.2,18.9a.8.8,0,0,1,.1.4.9.9,0,0,0-.1.5v1.5a.1.1,0,0,1-.1-.1v-.7c0-.4-.1-.5-.5-.5h-1c-.3,0-.5,0-.6.3H6V18.7a1.2,1.2,0,0,0-1.4-.8.9.9,0,0,0-1,1,1.1,1.1,0,0,1,.1.5v1.7c0,.1,0,.2-.1.2V21c0-.3-.1-.4-.4-.4H1.9a.3.3,0,0,0-.3.3c-.1.1,0,.3-.1.4s-.1-.1-.1-.2V19.5a.4.4,0,0,0-.1-.3.4.4,0,0,1,.1-.3c0-.1,0-.3.1-.3s.3-.2.4-.4a3.1,3.1,0,0,1,2.9-1.7,3.1,3.1,0,0,1,2,.7,1.8,1.8,0,0,1,.8.9c0,.1,0,.2.1.2h0a1.9,1.9,0,0,1,.2.7.1.1,0,0,1,.1.1c.1,0,.1,0,.1-.1A.1.1,0,0,1,8.2,18.9Z"/><path class="cls-2" d="M8.3,24.2v.6c-.1-.1-.2,0-.1.2a2.6,2.6,0,0,0,1.1,1.6H7.8A2.3,2.3,0,0,1,6.1,25,4.7,4.7,0,0,1,6,23.3a.1.1,0,0,0,.1-.1c0-.3.2-.3.4-.3H7.6c.2,0,.4.1.4.3s.1.2.2.2h0a.3.3,0,0,0,0,.4A.4.4,0,0,0,8.3,24.2Z"/><path class="cls-2" d="M1.5,27.3a2.8,2.8,0,0,0,.4,1.3.3.3,0,0,1,.1.2c0,.1.1.2-.1.2l.4.6a6.1,6.1,0,0,0,2.4,2.1l1.1.5H5.5L4.7,32H2.8c-.1,0-.1-.1-.1-.2a5.1,5.1,0,0,1-1-2.1c-.2-.6-.2-1.3-.4-1.9V26.5h0a.8.8,0,0,0,.1.4S1.4,27.2,1.5,27.3Z"/><path class="cls-2" d="M16.3,32.7a4,4,0,0,1-1.7,1.7H7.4l-1.5-.2a5.4,5.4,0,0,1-2.6-1.6A5.5,5.5,0,0,1,2,31.2a.8.8,0,0,1-.2-.5h0l.5.6a1,1,0,0,0,.4.5h0c0,.1,0,.1.1.1h.1c0,.2.2.3.3.4h0a1.3,1.3,0,0,0,.7.6h0l.3.2h0a.1.1,0,0,0,.1.1h.2l1.5.7H7.2a.1.1,0,0,0,.2,0h5.5c.2.1.3.1.4,0h.1a.7.7,0,0,0,.6-.1,1.1,1.1,0,0,0,.7-.3h.2a3.4,3.4,0,0,0,1.2-1.2Z"/><path class="cls-2" d="M3,27.9H3a.3.3,0,0,0,.1.2l.7.6a7.4,7.4,0,0,0,4.3,1.4h6.1c.1.2.3.3.3.6a1.2,1.2,0,0,0-1.1-.5h-6a4.6,4.6,0,0,1-2-.5,5.2,5.2,0,0,1-1.9-1.1l-.6-.7a2.7,2.7,0,0,1-.7-.8,3.1,3.1,0,0,1-.5-1c.3.2.3.4.5.7l.5.6a.2.2,0,0,0,.2.2Z"/><path class="cls-2" d="M16.4,30.2a1.3,1.3,0,0,1,.1.6h.1c-.1,0-.1.1-.2.2s-.1.5-.2.7H14.7l-.3.3c-.2,0-.3.2-.5.1s.5-.2.6-.5a.2.2,0,0,0,0-.3v-.4h0c.1,0,.2,0,.2-.2s-.1-.3-.1-.4.2-.2.4-.2h.7c.1,0,.2-.1.2-.3s-.1-.2-.1-.3-.2-.2-.2-.4.2.3.3.5S16.2,30.3,16.4,30.2Z"/><path class="cls-2" d="M16.4,30.2c-.2.1-.3,0-.4-.2s-.1-.4-.3-.5a1.6,1.6,0,0,0-.7-.7,3.4,3.4,0,0,0-2.2-.7H6.6l-1-.4a9.3,9.3,0,0,1-1.4-1.4,3,3,0,0,1-.4-1c-.1-.2.1-.2.2-.2a3.9,3.9,0,0,0,1.1,1.7.4.4,0,0,0,.1.3l.5.4a4.3,4.3,0,0,0,2,.6h3.1a22.6,22.6,0,0,1,2.6,0,4.4,4.4,0,0,1,1.5.5l.5.2A3.1,3.1,0,0,1,16.4,30.2Z"/><path class="cls-2" d="M6,23.3A4.7,4.7,0,0,0,6.1,25c-.1,0,0-.1-.1-.2a.3.3,0,0,0-.1-.2c-.1-.1-.1,0-.1,0s0-.2,0-.3v-5a.6.6,0,0,0-.1-.4c.2-.1.1-.2.1-.3a1,1,0,0,0-1.1-.7,1.2,1.2,0,0,0-.9.8.3.3,0,0,0,.1.2v5.2H3.8a.4.4,0,0,1-.1-.3V21.7a.6.6,0,0,0-.1-.4c.1,0,.1-.1.1-.2V19.4a1.1,1.1,0,0,0-.1-.5.9.9,0,0,1,1-1,1.2,1.2,0,0,1,1.4.8v4.6Z"/><path class="cls-2" d="M14.5,31.7a.2.2,0,0,1,0,.3c-.1.3-.4.4-.6.5H6.8a.1.1,0,0,0-.1-.1H5.8l-1.1-.5a6.1,6.1,0,0,1-2.4-2.1L1.9,29c0-.1,0-.2.1-.2l.2.3a14.7,14.7,0,0,0,1,1.3l.3.4a5.6,5.6,0,0,0,2.4,1.3,10.1,10.1,0,0,0,1.7.3h6.1c.2-.1.4-.1.5-.3Z"/><path class="cls-2" d="M15.4,28.7l-.5-.2a4.4,4.4,0,0,0-1.5-.5,22.6,22.6,0,0,0-2.6,0H7.7a4.3,4.3,0,0,1-2-.6L5.2,27a.4.4,0,0,1-.1-.3,3.5,3.5,0,0,0,1.3.8,3.1,3.1,0,0,0,1.3.3H13a3.9,3.9,0,0,1,2.1.6Z"/><path class="cls-2" d="M14.2,32.1c-.1.2-.3.2-.5.3H7.6a10.1,10.1,0,0,1-1.7-.3,5.6,5.6,0,0,1-2.4-1.3l-.3-.4a10.1,10.1,0,0,0,1.3.9,5.8,5.8,0,0,0,2.5.9h5.5A5,5,0,0,0,14.2,32.1Z"/><path class="cls-2" d="M7.7,18.3h0c0-.1,0-.2-.1-.2a1.8,1.8,0,0,0-.8-.9,3.1,3.1,0,0,0-2-.7,3.1,3.1,0,0,0-2.9,1.7c-.1.2-.2.4-.4.4s-.1.2-.1.3a.4.4,0,0,0-.1.3h0a1.4,1.4,0,0,1,.3-1.1A3.1,3.1,0,0,1,2.5,17H3a3.5,3.5,0,0,1,1.3-.5H5.5a3.3,3.3,0,0,1,1.6.7c.1.1.2.2.3.1a6.1,6.1,0,0,1,.7,1v.3C7.9,18.6,7.9,18.4,7.7,18.3Z"/><path class="cls-2" d="M14.6,31.3h0v-.4c0-.3-.2-.4-.3-.6H8.1a7.4,7.4,0,0,1-4.3-1.4l-.7-.6A.3.3,0,0,1,3,28a.2.2,0,0,1,.2.2l.8.6h.2a.1.1,0,0,0,.1.1h.3l.2.2.4.2a7.2,7.2,0,0,0,2.9.6h5.2a1.6,1.6,0,0,1,1.3.4c0,.1,0,.1.1.1s-.1,0,0,.1S14.8,31.1,14.6,31.3Z"/><path class="cls-2" d="M1.3,19.2h0a.4.4,0,0,1,.1.3v1.6c0,.1,0,.2.1.2a2.8,2.8,0,0,0-.1.9v1.9a2.4,2.4,0,0,0,.2.8A4.9,4.9,0,0,0,2.4,27H2.3a18.9,18.9,0,0,1-.9-2.1c0-.1,0-.2-.1-.2Z"/><path class="cls-2" d="M7.4,17.3c-.1.1-.2,0-.3-.1a3.3,3.3,0,0,0-1.6-.7H4.3a3.5,3.5,0,0,0-1.3.5H2.5a2.4,2.4,0,0,1,1.1-.6,3,3,0,0,1,1.6-.2,3.6,3.6,0,0,1,1.7.7A1,1,0,0,1,7.4,17.3Z"/><path class="cls-2" d="M10.3,26.9H8.4a3.2,3.2,0,0,1-1.6-.5A1.8,1.8,0,0,1,6,25.3l.2.2.5.6a3,3,0,0,0,1.5.5H10c0,.1,0,.1.1,0h.2Z"/><path class="cls-2" d="M2.9,32.2H2.8c0-.1,0-.1-.1-.1h0a8.4,8.4,0,0,1-1.3-2.7V27.7c.2.6.2,1.3.4,1.9a5.1,5.1,0,0,0,1,2.1c0,.1,0,.2.1.2l1,1.1a.2.2,0,0,1,.2.2H3.9a1.3,1.3,0,0,0-.7-.6h0C3.2,32.4,3,32.3,2.9,32.2Z"/><path class="cls-2" d="M8.2,23.5h0V19.8a.9.9,0,0,1,.1-.5h0v4.8a.4.4,0,0,1-.1-.3Z"/><path class="cls-2" d="M9.5,26.6H9.4A2.6,2.6,0,0,1,8.3,25c-.1-.2,0-.3.1-.2A5,5,0,0,0,9.2,26a.8.8,0,0,0,.8.6h.4c-.1.1-.2,0-.2.1H9.5Z"/><path class="cls-2" d="M3.9,18.9a.3.3,0,0,1-.1-.2,1.2,1.2,0,0,1,.9-.8,1,1,0,0,1,1.1.7c0,.1.1.2-.1.3a1,1,0,0,0-.8-.7A.9.9,0,0,0,3.9,18.9Z"/><path class="cls-2" d="M9.4,26.6H8.2a3,3,0,0,1-1.5-.5l-.5-.6L6,25.3a.8.8,0,0,1-.2-.7s0-.1.1,0a.3.3,0,0,1,.1.2c.1.1,0,.2.1.2a2.3,2.3,0,0,0,1.7,1.5Z"/><path class="cls-2" d="M16.3,32.7h-.2A3.4,3.4,0,0,1,14.9,34h-.2c.1,0,.1,0,.1-.1h.1a.1.1,0,0,0,.1-.1h.2l.4-.5h.1c.1-.1.1-.1.1-.2s.1-.1.1-.2H16a5.6,5.6,0,0,0,.4-1.2.2.2,0,0,1,.2-.2v.6l-.3.7Z"/><path class="cls-2" d="M1.3,24.7c.1,0,.1.1.1.2A18.9,18.9,0,0,0,2.3,27h.2c0,.1,0,.1.1.1v.2h0L2.2,27c-.2-.3-.2-.5-.5-.7a1.4,1.4,0,0,1-.2-.7A2.9,2.9,0,0,1,1.3,24.7Z"/><path class="cls-2" d="M1.3,29v.2a8.4,8.4,0,0,0,1.3,2.7h0a1,1,0,0,1-.4-.5l-.5-.6h0c-.1,0-.1-.1-.1-.2H1.6A8,8,0,0,1,1.3,29Z"/><path class="cls-2" d="M16.6,31.3a.2.2,0,0,0-.2.2,5.6,5.6,0,0,1-.4,1.2h-.1a.4.4,0,0,1,.1-.3,1.4,1.4,0,0,0,.2-.6c.1-.2.1-.5.2-.7s.1-.2.2-.2Z"/><path class="cls-2" d="M7.7,18.3c.2.1.2.3.4.3a.4.4,0,0,1,.1.3.1.1,0,0,0-.1.1c0,.1,0,.1-.1.1a.1.1,0,0,0-.1-.1A1.9,1.9,0,0,0,7.7,18.3Z"/><path class="cls-2" d="M10,26.6a.8.8,0,0,1-.8-.6Z"/><path class="cls-2" d="M10.2,26.8c0-.1.1,0,.2-.1h-.2Z"/><path class="cls-2" d="M1.3,26.5h0v-.1C1.4,26.4,1.3,26.4,1.3,26.5Z"/><path class="cls-2" d="M16.5,30.9h0Z"/><path class="cls-2" d="M1.6,30.5h0Z"/><path class="cls-2" d="M10.5,26.8h-.1A.1.1,0,0,1,10.5,26.8Z"/><path class="cls-2" d="M3.9,24.6h0Z"/><path class="cls-2" d="M2.5,12.8h0Z"/><path class="cls-2" d="M3.8,24.1v.2c-.1-.1-.2-.1-.3.1H2c-.3,0-.3,0-.3.3H1.6a2.4,2.4,0,0,1-.2-.8V22.2a2.8,2.8,0,0,1,.1-.9c.1-.1,0-.3.1-.4a.3.3,0,0,1,.3-.3H3.2c.3,0,.4.1.4.4v.3a.6.6,0,0,1,.1.4v2.1A.4.4,0,0,0,3.8,24.1Z"/><path class="cls-2" d="M8.2,21.3v2.1c-.1,0-.1-.1-.2-.2s-.2-.3-.4-.3H6.5c-.2,0-.4,0-.4.3a.1.1,0,0,1-.1.1v-3H6c.1-.3.3-.3.6-.3h1c.4,0,.5.1.5.5v.7A.1.1,0,0,0,8.2,21.3Z"/><path class="cls-2" d="M7.6,18.1c.1,0,.1.1.1.2S7.6,18.2,7.6,18.1Z"/><path class="cls-2" d="M4.8,29.3l-.2-.2c-.1-.1-.1-.2-.3-.1a.1.1,0,0,1-.1-.1c0-.1,0-.2-.1-.1H4c0-.1,0-.2-.1-.2s-.4-.3-.5-.6-.1-.2.1-.3H5.4l.2-.2,1,.4h6.2a3.4,3.4,0,0,1,2.2.7,1.6,1.6,0,0,1,.7.7c0,.2.2.3.2.4s.1.2.1.3-.1.3-.2.3h-.7c-.2,0-.3,0-.4.2h0c-.1-.1-.1-.1,0-.1h-.1a1.6,1.6,0,0,0-1.3-.4H8.1a7.2,7.2,0,0,1-2.9-.6C5.1,29.3,5,29.3,4.8,29.3Z"/><path class="cls-2" d="M2.9,27.8a.2.2,0,0,1-.2-.2h.2Z"/><path class="cls-2" d="M2.8,27.7H2.7C2.8,27.5,2.8,27.6,2.8,27.7Z"/><path class="cls-2" d="M2.9,27.8Z"/><path class="cls-2" d="M2.6,27.3c-.1,0-.1,0-.1-.1A.1.1,0,0,1,2.6,27.3Z"/><path class="cls-2" d="M8.2,23.5v.4A.3.3,0,0,1,8.2,23.5Z"/><path class="cls-2" d="M16.2,31.9a1.4,1.4,0,0,1-.2.6.4.4,0,0,0-.1.3h0c-.1,0-.1.1-.1.2s0,.1-.1.2-.1,0-.1,0l-.4.5H15c-.1,0-.1,0-.1.1h-.1a.1.1,0,0,0-.1.1h-.3l-.6.3h-.1c-.1-.1-.1-.1-.1,0h-.2a.1.1,0,0,0-.1.1H13c-.1-.2-.2-.1-.3-.1H7.3c0-.1-.1-.1-.2,0H6.9c0-.1,0-.1-.1,0H6.1a.7.7,0,0,0-.6-.2H5.4c-.1-.1-.1-.2-.2-.2H4.9s0-.1-.1,0H4.7L4,33.2H4a.2.2,0,0,0-.2-.2l-1-1.1H4.7l.8.2h.4c.1.2.2.2.3.1h.1c0,.1.1.2.2.1h.2c0,.1,0,.1.1.1H7c.1.1.1.1.2,0h.4a.1.1,0,0,0,.1.1h5.7c.1,0,.2,0,.2-.1h.3c.2.1.3-.1.5-.1l.3-.3h1.5Z"/><path class="cls-2" d="M7.3,34.4h.1a.1.1,0,0,1-.2,0Z"/><path class="cls-2" d="M5.4,34h.1l.6.2H6l-1.5-.7h.7C5.2,33.9,5.3,33.9,5.4,34Z"/><path class="cls-2" d="M13.7,34.4h.1l.6-.3h.3a1.1,1.1,0,0,1-.7.3.7.7,0,0,1-.6.1h.3Z"/><path class="cls-2" d="M3.2,32.6a1.3,1.3,0,0,1,.7.6A1.3,1.3,0,0,1,3.2,32.6Z"/><path class="cls-2" d="M4.7,33.6H4.3c0-.1,0-.1-.1-.1h0c0-.1-.2-.1-.2-.2Z"/><path class="cls-2" d="M6.9,34.4h0Z"/><path class="cls-2" d="M12.2,34.4h0Z"/><path class="cls-2" d="M2.9,32.2c.1.1.3.2.3.4S2.9,32.4,2.9,32.2Z"/><path class="cls-2" d="M12.2,34.4h0Z"/><path class="cls-2" d="M13,34.5h.3c-.1.1-.2.1-.4,0Z"/><path class="cls-2" d="M13,34.5h-.3C12.8,34.4,12.9,34.3,13,34.5Z"/><path class="cls-2" d="M4,33.2c0,.1.2.1.2.2l-.3-.2Z"/><path class="cls-2" d="M7.1,34.5h0c.1-.1.2-.1.2,0H7.1Z"/><path class="cls-2" d="M2.7,32c.1,0,.1,0,.1.1S2.7,32.1,2.7,32Z"/><path class="cls-2" d="M6.7,34.3h0Z"/><path class="cls-2" d="M13.3,34.5h0a.1.1,0,0,1,.1-.1h-.1Z"/><path class="cls-2" d="M4.2,33.4c.1,0,.1,0,.1.1A.1.1,0,0,1,4.2,33.4Z"/><path class="cls-2" d="M14.7,30.7h0c0,.1.1.3.1.4s-.1.2-.2.2S14.7,30.9,14.7,30.7Z"/><path class="cls-2" d="M13.6,32.5c0,.1-.1.1-.2.1H7.7a.1.1,0,0,1-.1-.1h6Z"/><path class="cls-2" d="M6.5,32.4c-.1.1-.2,0-.2-.1Z"/><path class="cls-2" d="M6.2,32.3c-.1.1-.2.1-.3-.1Z"/><path class="cls-2" d="M6.8,32.5c-.1,0-.1,0-.1-.1A.1.1,0,0,1,6.8,32.5Z"/><path class="cls-2" d="M7.2,32.5c-.1.1-.1.1-.2,0Z"/><path class="cls-2" d="M4.8,29.3c.2,0,.3,0,.4.2Z"/><path class="cls-2" d="M4.3,29c.2-.1.2,0,.3.1Z"/><path class="cls-2" d="M4.1,28.8c.1-.1.1,0,.1.1Z"/><path class="cls-2" d="M14.6,30.5h.1C14.6,30.6,14.6,30.6,14.6,30.5Z"/><path class="cls-2" d="M9.5,26.6h0Z"/><path class="cls-2" d="M10,26.7h.1C10,26.8,10,26.8,10,26.7Z"/><path class="cls-2" d="M14.7,34.1h0Z"/><path class="cls-2" d="M15.8,33c0-.1,0-.2.1-.2S15.9,33,15.8,33Z"/><path class="cls-2" d="M15,33.8h0Z"/><path class="cls-2" d="M15.6,33.2s0-.1.1,0Z"/><path class="cls-2" d="M14.9,33.9c0-.1,0-.1.1-.1A.1.1,0,0,1,14.9,33.9Z"/><path class="cls-2" d="M14.7,34a.1.1,0,0,1,.1-.1C14.8,34,14.8,34,14.7,34Z"/><path class="cls-2" d="M14.4,34.1l-.6.3Z"/><path class="cls-2" d="M6.1,34.2,5.5,34A.7.7,0,0,1,6.1,34.2Z"/><path class="cls-2" d="M5.4,34c-.1-.1-.2-.1-.2-.2S5.3,33.9,5.4,34Z"/><path class="cls-2" d="M6.9,34.4H6.8C6.9,34.3,6.9,34.3,6.9,34.4Z"/><path class="cls-2" d="M13.7,34.4h-.1C13.6,34.3,13.6,34.3,13.7,34.4Z"/><path class="cls-2" d="M4.9,33.7H4.8C4.9,33.6,4.9,33.7,4.9,33.7Z"/><path class="cls-2" d="M6.3,34.3h0Z"/><path class="cls-2" d="M6.5,34.3h0Z"/><path class="cls-2" d="M14.6,30.6s.3-.1.3,0l.2.2v1.3h-.4v-.6c0-.1-.1-.8-.1-.8Z"/><path class="cls-2" d="M3.4,25.3l.4-1.2v.4a3.1,3.1,0,0,0,.4,1.2c.2.3-.3.3-.3.3H3.6v-.6Z"/><path class="cls-2" d="M3.9,23.5c0,.6.3,3,1.5,3.4s-.2.2.1.4.4.3.3.3l-.3.3-.4.3-.8.8-.9-.3A8.3,8.3,0,0,1,2,26.5c-.3-.9-.7-.4-.7-2s1.9-.8,1.9-.8Z"/><circle class="cls-2" cx="4.7" cy="12.9" r="2.4"/><path class="cls-2" d="M17.7,34.8h-.5c-.1-.2,0-.3.1-.5l3-5.9,1.2-2.5.3-.5a14.2,14.2,0,0,1,.8-1.8l.2-.2v-.2a17.4,17.4,0,0,0,1-1.9c.1-.1.1-.3.2-.4l1.4-2.7c0-.1.1-.2.1-.3h0a.5.5,0,0,0,.2-.4h.1c.1-.1.1-.1.1-.2a5.2,5.2,0,0,1,3-2.7h4a4.3,4.3,0,0,1,2.8,1.6A15.5,15.5,0,0,1,36.9,18a.8.8,0,0,1,.2.5H37c0,.1-.1.1-.2.2a.8.8,0,0,0-.2.5.5.5,0,0,0,.3.5.6.6,0,0,0,.8.1H38l2.2,4.5.9,1.7c.8,1.6,1.6,3.2,2.3,4.8s1,1.8,1.4,2.7l.3.5h0a.5.5,0,0,1,0,.4c-.1.2-.3.1-.4.1H38.8a.9.9,0,0,1-.7-.3c-.2-.6-.6-1.2-.8-1.8l-1-2c-.1-.2-.2-.2-.4-.2H26.4c-.2,0-.3,0-.3.2a12.4,12.4,0,0,0-1,2c-.3.5-.6,1.2-.9,1.8s-.4.3-.7.3H17.7Zm-.1-.3h5.9c.2,0,.3-.1.3-.2l.9-1.8a18.6,18.6,0,0,0,1-2,.8.8,0,0,1,.7-.4h9.5c.4,0,.6.1.7.4s.7,1.4,1,2l.9,1.8c.1.1.1.2.3.2h5.9c-.1-.2-.1-.4-.2-.5s-.9-1.9-1.4-2.8l-2.4-4.7c-.3-.6-.5-1.2-.8-1.7l-2.2-4.3a1.1,1.1,0,0,1-1.1-.3,1.6,1.6,0,0,1-.4-.7,1.6,1.6,0,0,1,.3-.9h.2a.5.5,0,0,0-.2-.4,7.8,7.8,0,0,0-1.1-2,4.6,4.6,0,0,0-2.6-1.6H29a4.5,4.5,0,0,0-2.8,2.5h0v.2c-.1.1-.1.3-.2.4h0l-.2.3c-.4.9-.9,1.8-1.4,2.7s-.1.2-.1.3l-1,2v.2c0,.1-.1.1-.1.2l-.9,1.8-.3.5-1.2,2.5-3,5.9Z"/><path class="cls-2" d="M33.8,26.1H28.6a.4.4,0,0,1-.4-.2c-.1-.1,0-.3,0-.4a15,15,0,0,0,.9-1.8v-.2a11.4,11.4,0,0,0,1-1.9l.7-1.4h0A.1.1,0,0,0,31,20l.2-.3,3.1,6.1h-.1A.4.4,0,0,1,33.8,26.1Zm-5.2-.4h5.2l-2.6-5.2a8.3,8.3,0,0,0-.7,1.3l-.9,1.9v.2a14.7,14.7,0,0,0-.9,1.7Z"/><path class="cls-2" d="M72.3,14.5l-1.1-1.4H71l1.1,1.5L74,17.4l.2-.2Z"/><path class="cls-2" d="M74.2,17.1l-.7-.8-.2-.2-.3-.4-.2.2.4.5.2.2.6.7,1.3,1.3h.4Z"/><path class="cls-2" d="M73.5,15.6l-.2.5v.3l-.3.9-.5,1.3h.3l.4-1.2.3-.8v-.3l.2-.6Z"/><path class="cls-2" d="M77.2,18.6,80.7,17v-.2l-4,1.8Z"/><path class="cls-2" d="M77,14.3h0l.2.2,3.1,2.3.2-.3-3.2-2.2H77Z"/><path class="cls-2" d="M85.8,16.3l-4.2.5-1.8.3v.3l1.9-.3,4.2-.6Z"/><path class="cls-2" d="M91.1,18.4l-3.8-1.8-1.7-.8V16l1.6.8L91,18.6Z"/><path class="cls-2" d="M78.4,15.1l-4,1.3h-.1l-1.7.5.2.3h0l1.6-.6h0l4-1.3Z"/><path class="cls-2" d="M85.1,14.4h-.3l1.1,2.8h.3Z"/><path class="cls-2" d="M93.8,14l-1,1.6L90.7,19h.2L93,15.7l1-1.6Z"/><path class="cls-2" d="M90.7,21.6l1.7.9,3.5,1.9v-.2l-3.5-2-1.6-.8C90.8,21.4,90.8,21.5,90.7,21.6Z"/><path class="cls-2" d="M85.2,26l1.7-.6,3.8-1.3v-.2l-3.8,1.3-1.7.6Z"/><path class="cls-2" d="M86.5,27.5l-.7-1.7-1.7-3.6h-.2l1.6,3.6.8,1.7C86.4,27.6,86.5,27.6,86.5,27.5Z"/><path class="cls-2" d="M90.6,24.2l-.2-.4-.6-.7-.6-.9h-.3l.7,1,.7.9.2.3h.4Z"/><path class="cls-2" d="M91.3,18.3l-.8,4.4v1.9h.3v-.3l.2-1.4.8-4.4Z"/><path class="cls-2" d="M95.2,20.3H95l.8,3.9c.1-.1.2-.2.2-.3Z"/><path class="cls-2" d="M82.1,26.5l-1.3-1.4-.4-.5-.2-.2-.5-.5h-.2l.5.6.2.2.5.5,1.1,1.2h.3Z"/><path class="cls-2" d="M80.5,24.1h-.1l-.2.4-.2.2-.5,1-.3.7-.2.3h.3l.2-.3.3-.6.4-.9.2-.2.2-.4Z"/><path class="cls-2" d="M75.5,22.3h0v.5L74.5,27h.3l.9-4.2v-.8Z"/><path class="cls-2" d="M75.5,22.3l-5,2.5h-.2v-.3h.3l4.4-2.2Z"/><path class="cls-2" d="M74.8,27.5,69.6,23l.2-.2,5.1,4.5Z"/><path class="cls-2" d="M35.5,15.8l-6.9-.3v-.2l6.9.2Z"/><path class="cls-2" d="M28.6,14.6v.3l2.9,4.9.2-.2Z"/><path class="cls-2" d="M34.8,18.4l-2.4,4.1h.2l2.4-4Z"/><path class="cls-2" d="M36.5,21.1l-2.7-3.7-.2.2,2.7,3.6,1.1,1.5h.2Z"/><path class="cls-2" d="M34.2,16.6l-2.6,3.7.2.2,2.6-3.8,1-1.5h-.2Z"/><path class="cls-2" d="M40.7,27.1l-4.1-5.5.2-.2,4.1,5.5Z"/><path class="cls-2" d="M36.6,21.2c-.1,0-.2,0-.2.1l-.3,1.3-.9,4.7h.3l.9-4.6.3-1.7Z"/><path class="cls-2" d="M35.1,24.6l-2.5-2.1-.2.2,2.5,2.1L36.3,26l.2-.2h0Z"/><path class="cls-2" d="M32,19.7l-1.8.2-4.9.5v.3l4.9-.5L32,20Z"/><path class="cls-2" d="M26.5,20.4l-1.4,6.7h-.2l1.3-6.7Z"/><path class="cls-2" d="M26.1,20.4l-.2.2,3.4,3.2c0-.1.1-.1.1-.2Z"/><path class="cls-2" d="M24.9,24.7l-2-1.3a.3.3,0,0,1-.1.2l1.9,1.3L26.2,26c0-.1.1-.2.1-.3Z"/><path class="cls-2" d="M27,20.1l-1.8.5-1,.3-.2.4,1.3-.4,1.7-.6Z"/><path class="cls-2" d="M25.7,17.9l-.2.3,1.2,3.1v-.2c.1,0,.1,0,.1-.1Z"/><path class="cls-2" d="M27.8,16.9l-1.7.2c-.1.1-.1.1-.1.2h-.1l2-.2Z"/><path class="cls-2" d="M28.3,14.6l-.7,2.5h.3l.6-2.2Z"/><path class="cls-2" d="M35.5,16.2a.9.9,0,0,1-1.3.1.9.9,0,0,1-.1-1.3,1.1,1.1,0,0,1,1.4-.1A.9.9,0,0,1,35.5,16.2Z"/><path class="cls-2" d="M29.8,16.1a.9.9,0,0,1-1.3.1.9.9,0,1,1,1.3-.1Z"/><path class="cls-2" d="M32,20a.8.8,0,0,1-.2.5.9.9,0,0,1-1.3.1.5.5,0,0,1-.3-.4v-.3a.7.7,0,0,1,.2-.6.9.9,0,0,1,1.3-.1.5.5,0,0,1,.3.5Z"/><path class="cls-2" d="M35.4,19.6c-.4.4-1,.5-1.3.1a.9.9,0,0,1-.1-1.3.9.9,0,0,1,1.3-.1A.9.9,0,0,1,35.4,19.6Z"/><path class="cls-2" d="M37.6,22.8h-.2a.8.8,0,0,1-1,.1h-.1l-.2-.2a.9.9,0,0,1,.1-1.1c0-.1.1-.1.1-.2h.4a.8.8,0,0,1,.8.2A.9.9,0,0,1,37.6,22.8Z"/><path class="cls-2" d="M36.5,25.9h-.2a.8.8,0,0,1-1.1,0,1,1,0,0,1-.3-1.1l.2-.3h0a.9.9,0,0,1,1.3,0A.8.8,0,0,1,36.5,25.9Z"/><path class="cls-2" d="M40.8,26.2a.9.9,0,0,1-1.3,0,.9.9,0,0,1-.1-1.3.9.9,0,0,1,1.3-.1A1.1,1.1,0,0,1,40.8,26.2Z"/><path class="cls-2" d="M38.1,20l-.3.2a10.9,10.9,0,0,0-.8-1.5v-.2a1,1,0,0,1,1,.2A.9.9,0,0,1,38.1,20Z"/><path class="cls-2" d="M26.3,25.7c0,.1-.1.2-.1.3v.2a.9.9,0,0,1-1.3,0,.9.9,0,0,1-.1-1.3h0l.2-.2a.9.9,0,0,1,1.1.1A.9.9,0,0,1,26.3,25.7Z"/><path class="cls-2" d="M74.4,16.7l-.2.4H74a.7.7,0,0,1-.9.1h-.3l-.2-.3a1.1,1.1,0,0,1,.1-1.1h.1l.2-.2h.7a.5.5,0,0,1,.4.2l.3.5Z"/><path class="cls-2" d="M72.3,14.5h-.2a1.1,1.1,0,0,1-1.3,0,.9.9,0,0,1,0-1.3l.2-.2h.2a1,1,0,0,1,.9.2A1.1,1.1,0,0,1,72.3,14.5Z"/><path class="cls-2" d="M81.7,17.1a.9.9,0,0,1-.3.6.9.9,0,0,1-1.3.1l-.3-.4v-.3a1.1,1.1,0,0,1,.2-.6c.4-.4,1-.5,1.3-.1a.5.5,0,0,1,.3.4A.4.4,0,0,1,81.7,17.1Z"/><path class="cls-2" d="M82.5,15.8h.1l.4.3h0l-.4-.2Z"/><path class="cls-2" d="M82.5,15.7h.1l.3-.4h0l-.3.3-.2.2Z"/><path class="cls-2" d="M81.8,15.3l.2.2.3.3h0l-.3-.2-.2-.2Z"/><path class="cls-2" d="M82.4,15.8V16l-.3.4h.1l.2-.4v-.2Z"/><path class="cls-2" d="M82.7,15.8V16a.3.3,0,0,1-.4,0h-.1a.3.3,0,0,1,.1-.2h.4Z"/><path class="cls-2" d="M83.1,16.1h0c0,.1-.1.1-.1,0h.1Z"/><path class="cls-2" d="M83,15.2c0,.1,0,.1-.1.1H83Z"/><path class="cls-2" d="M82,15.3h-.2c0-.1.1-.1.1,0Z"/><path class="cls-2" d="M82.2,16.4h-.1c0,.1-.1.1-.1,0h0c0-.1.1-.1.1,0h.1Z"/><path class="cls-2" d="M34.6,22.3v.6h.1l-.2-.4v-.2Z"/><path class="cls-2" d="M34.7,22.2h0Z"/><path class="cls-2" d="M34.4,21.6v.6h.1v-.6Z"/><path class="cls-2" d="M34.6,22.3h-.2l-.4.2h.6Z"/><path class="cls-2" d="M34.8,22.5a.1.1,0,0,0-.1.1c-.2,0-.3-.1-.3-.2v-.2h.2c.1-.1.2,0,.3.2h0C34.8,22.4,34.8,22.4,34.8,22.5Z"/><path class="cls-2" d="M34.9,22.9h0a.1.1,0,0,1-.1-.1h0a.1.1,0,0,1,.2,0h-.1Z"/><path class="cls-2" d="M35.3,22.1h-.1c.1,0,.1,0,.1.1Z"/><path class="cls-2" d="M34.5,21.7h-.2a.1.1,0,0,0,.1-.1.1.1,0,0,1,.1.1Z"/><path class="cls-2" d="M34.1,22.5c0,.1,0,.1-.1.1a.1.1,0,0,1-.1-.1H34a.1.1,0,0,1,.1.1Z"/><path class="cls-2" d="M28.5,18.6l.3.2.7.4h0l-.7-.4-.3-.2Z"/><path class="cls-2" d="M28.5,18.4l.2-.2.6-.6h-.1l-.5.6-.2.3Z"/><path class="cls-2" d="M27.4,17.8l.3.2.6.5h0l-.6-.5-.3-.3Z"/><path class="cls-2" d="M28.4,18.6l-.2.3-.4.6h0l.5-.6.2-.3Z"/><path class="cls-2" d="M29,18.6l-.2.3c-.1.2-.4.2-.6,0s-.1-.1-.1-.2H28c0-.1.1-.2.1-.3a.6.6,0,0,1,.7-.1.4.4,0,0,1,.1.3A.1.1,0,0,1,29,18.6Z"/><path class="cls-2" d="M29.7,19.1c0,.1-.1.1-.1.2h-.3a.2.2,0,0,1,.3,0,.1.1,0,0,0,.1.1Z"/><path class="cls-2" d="M29.4,17.6h-.1a.2.2,0,0,1-.3,0h.3A.1.1,0,0,0,29.4,17.6Z"/><path class="cls-2" d="M27.7,17.8h-.1a.2.2,0,0,1-.3,0h.4Z"/><path class="cls-2" d="M28,19.5c0,.1-.1.1-.1.2H28Z"/><path class="cls-2" d="M31.8,17.4H32l.4.3h.1l-.5-.2-.2-.2Z"/><path class="cls-2" d="M31.8,17.3l.2-.2.3-.4h0l-.3.4-.2.2Z"/><path class="cls-2" d="M31.1,16.9h.2l.4.3h0l-.4-.3-.2-.2Z"/><path class="cls-2" d="M31.8,17.4h-.2l-.2.5h0l.3-.4v-.2Z"/><path class="cls-2" d="M32.1,17.4v.2h-.5a.1.1,0,0,0-.1-.1h0v-.2a.2.2,0,0,1,.4-.1c.1.1.1.1.1.2Z"/><path class="cls-2" d="M32.6,17.7c0,.1,0,.1-.1.1h.1Z"/><path class="cls-2" d="M32.4,16.7c0,.1,0,.1-.1.1h.1Z"/><path class="cls-2" d="M31.3,16.9h0c-.1.1-.2.1-.2,0h0c0-.1.1-.1.2,0h0Z"/><path class="cls-2" d="M31.5,18h-.3a.1.1,0,0,1,.1-.1h.2Z"/><path class="cls-2" d="M82.6,24.3v.6h0v-.6Z"/><path class="cls-2" d="M82.7,24.2h0Z"/><path class="cls-2" d="M82.7,23.5v.6h0v-.6Z"/><path class="cls-2" d="M82.6,24.2h0Z"/><path class="cls-2" d="M82.7,24.5c0,.1-.1.1-.1,0s-.3-.1-.2-.3h0a.1.1,0,0,0,.1-.1h.2c.1,0,.2.2.2.3s-.1.1-.1.2Z"/><path class="cls-2" d="M82.7,25h-.1c-.1,0-.1,0-.1-.1h.1c.1,0,.1.1.1.2Z"/><path class="cls-2" d="M83.4,24.4c-.1.1-.1.1-.1,0h-.1a.1.1,0,0,1,.1-.1h0c.1,0,.1.1.1.2Z"/><path class="cls-2" d="M82.8,23.6h-.1a.1.1,0,0,1-.1-.1h.2a.3.3,0,0,1,.1.2Z"/><path class="cls-2" d="M82,24.3h-.1c-.1,0-.1-.1-.1-.2H82s.1,0,0,.1Z"/><path class="cls-2" d="M93.7,19.3l.2.2.6.6h0l-.5-.5-.3-.2Z"/><path class="cls-2" d="M93.7,19.2,94,19l.6-.5h0l-.6.4-.3.2Z"/><path class="cls-2" d="M92.8,18.3l.2.3.5.6h0l-.4-.7-.2-.2Z"/><path class="cls-2" d="M93.6,19.3l-.2.2-.6.5h0l.6-.6.3-.2Z"/><path class="cls-2" d="M94.1,19.4a.4.4,0,0,1-.1.3.6.6,0,0,1-.7-.1.4.4,0,0,0-.1-.3h.1a.4.4,0,0,1,.1-.3.6.6,0,0,1,.7.1c0,.1.1.2.1.3Z"/><path class="cls-2" d="M94.7,20.1h-.1c-.1.1-.2,0-.3,0h0a.1.1,0,0,1,.1-.1h.3Z"/><path class="cls-2" d="M94.7,18.6h0Z"/><path class="cls-2" d="M93.1,18.4a.1.1,0,0,0-.1.1h-.3a.1.1,0,0,1,.1-.1h.3Z"/><path class="cls-2" d="M93,20.1h-.1c-.1.1-.2,0-.3-.1H93Z"/><path class="cls-2" d="M86.5,17a.9.9,0,0,1-1.3.1,1,1,0,0,1-.1-1.4A1,1,0,0,1,86.5,17Z"/><path class="cls-2" d="M90.1,14.3H88.3l.2-.4a.9.9,0,0,1,1.3-.1Z"/><path class="cls-2" d="M92,19.2a1.1,1.1,0,0,1-1.4.1,1,1,0,0,1,1.3-1.4A.9.9,0,0,1,92,19.2Z"/><path class="cls-2" d="M96.1,21.6a.9.9,0,0,1-1.4-1.2.9.9,0,0,1,1.3-.1A.9.9,0,0,1,96.1,21.6Z"/><path class="cls-2" d="M96.9,18.1l-.3.3a4.5,4.5,0,0,0-.8-1.7.8.8,0,0,1,1,.1A.9.9,0,0,1,96.9,18.1Z"/><path class="cls-2" d="M94.1,15.5a.9.9,0,0,1-1.1.2h-.2a.9.9,0,0,1-.1-1.3.9.9,0,0,1,1.1-.2H94A1.1,1.1,0,0,1,94.1,15.5Z"/><path class="cls-2" d="M93.7,26.6a.9.9,0,0,1-1.3,0,.9.9,0,0,1-.1-1.3.9.9,0,0,1,1.3-.1A1,1,0,0,1,93.7,26.6Z"/><path class="cls-2" d="M86.2,26.4a.9.9,0,0,1-1.3.1,1.1,1.1,0,0,1-.1-1.4.9.9,0,0,1,1.3-.1A1,1,0,0,1,86.2,26.4Z"/><path class="cls-2" d="M80.8,25.1v.2h-.1a.7.7,0,0,1-.8.3h-.5a.9.9,0,0,1-.1-1.3l.3-.2h1.1A1,1,0,0,1,80.8,25.1Z"/><path class="cls-2" d="M80.5,22.9a.9.9,0,0,1-1.3.1c-.4-.4-.5-1-.1-1.3a.9.9,0,0,1,1.3-.1A.9.9,0,0,1,80.5,22.9Z"/><path class="cls-2" d="M76.5,22.3c-.1.1-.1.2-.2.2l-.6.4h-.3l-.4-.2-.3-.3Z"/><path class="cls-2" d="M71.7,24.6a1,1,0,0,1-1.4.1.9.9,0,0,1-.1-1.3,1.1,1.1,0,0,1,1.4-.1A.9.9,0,0,1,71.7,24.6Z"/><path class="cls-2" d="M74.7,26.4c-.4.4-1,.5-1.3.1a.9.9,0,0,1-.1-1.3.9.9,0,0,1,1.3-.1A.9.9,0,0,1,74.7,26.4Z"/><path class="cls-2" d="M91.2,24.3l-.3.2h-.7l-.3-.2a1.1,1.1,0,0,1-.3-1.1l.2-.2h0a1.1,1.1,0,0,1,.7-.3h.3l.3.2A.9.9,0,0,1,91.2,24.3Z"/><path class="cls-2" d="M21.5,26.3l15.7-.2a18,18,0,0,0,3.3,0c.6-.2,4.4,8.3,4.4,8.3l-.2.3H38.6l-2.3-4.3H26l-.5,1-1.7,3.2H17.4Z"/><path class="cls-2" d="M28.5,14.8h0Z"/><path class="cls-2" d="M98.4,34.6s-6,.2-6.8.1-8.1-8.1-8.1-8.1h-7v7.8l-5.9.3V26.3h20l.7.5Z"/><polygon class="cls-2" points="90.3 15.9 91.1 15.9 91.4 16.5 91.1 17.2 90.3 17.2 89.9 16.6 90.3 15.9"/><polygon class="cls-2" points="77 23.4 77.9 23.4 78.3 24.2 77.8 24.9 77 24.9 76.6 24.2 77 23.4"/><polygon class="cls-2" points="92.4 23.2 93.2 23.2 93.6 23.9 93.2 24.6 92.4 24.6 92 23.9 92.4 23.2"/><polygon class="cls-2" points="26.9 23.7 27.7 23.7 28 24.4 27.6 25 26.9 25 26.5 24.4 26.9 23.7"/><polygon class="cls-2" points="35 16.9 35.6 16.9 35.9 17.4 35.6 17.8 35 17.9 34.8 17.4 35 16.9"/></svg>