<?xml version="1.0" encoding="iso-8859-1"?>
<!-- Generator: Adobe Illustrator 19.0.0, SVG Export Plug-In . SVG Version: 6.00 Build 0)  -->
<svg version="1.1" id="Capa_1" xmlns="http://www.w3.org/2000/svg" xmlns:xlink="http://www.w3.org/1999/xlink" x="0px" y="0px"
	 viewBox="0 0 512 512" style="enable-background:new 0 0 512 512;" xml:space="preserve">
<g>
	<g>
		<path d="M256,72.173c-82.321,0-149.293,66.972-149.293,149.292c0,30.904,9.362,60.557,27.074,85.753
			c15.96,22.705,37.584,40.315,62.837,51.253v29.956c0,5.545,4.495,10.039,10.039,10.039h98.685c5.545,0,10.039-4.495,10.039-10.039
			v-29.956c25.252-10.939,46.873-28.549,62.833-51.252c17.714-25.198,27.078-54.851,27.078-85.753
			C405.293,139.146,338.321,72.173,256,72.173z M301.784,342.326c-3.901,1.479-6.481,5.215-6.481,9.388v26.674h-78.607v-26.674
			c0-4.172-2.58-7.909-6.481-9.388c-49.901-18.912-83.429-67.483-83.429-120.861c0-71.249,57.965-129.215,129.215-129.215
			s129.215,57.965,129.215,129.215C385.215,274.841,351.687,323.41,301.784,342.326z"/>
	</g>
</g>
<g>
	<g>
		<path d="M305.343,410.393h-98.685c-5.545,0-10.039,4.495-10.039,10.039c0,5.545,4.495,10.039,10.039,10.039h98.685
			c5.545,0,10.039-4.495,10.039-10.039C315.382,414.888,310.887,410.393,305.343,410.393z"/>
	</g>
</g>
<g>
	<g>
		<path d="M305.343,442.629h-98.685c-5.545,0-10.039,4.495-10.039,10.039v12.147c0,26.018,21.167,47.184,47.184,47.184h24.395
			c26.018,0,47.184-21.167,47.184-47.184v-12.147C315.382,447.124,310.887,442.629,305.343,442.629z M295.304,464.816
			c0,14.946-12.159,27.106-27.106,27.106h-24.395c-14.946,0-27.106-12.159-27.106-27.106v-2.108h78.607V464.816z"/>
	</g>
</g>
<g>
	<g>
		<path d="M173.026,57.695L158.971,33.35c-2.773-4.801-8.912-6.447-13.714-3.674c-4.802,2.772-6.447,8.912-3.674,13.714
			l14.055,24.345c1.859,3.221,5.233,5.021,8.703,5.021c1.703,0,3.429-0.434,5.011-1.346
			C174.153,68.637,175.799,62.497,173.026,57.695z"/>
	</g>
</g>
<g>
	<g>
		<path d="M133.47,84.748L113.583,64.87c-3.922-3.92-10.279-3.918-14.197,0.004c-3.919,3.921-3.918,10.277,0.003,14.197
			l19.888,19.878c1.961,1.96,4.529,2.938,7.097,2.938c2.57,0,5.14-0.981,7.101-2.943C137.393,95.024,137.392,88.667,133.47,84.748z"
			/>
	</g>
</g>
<g>
	<g>
		<path d="M102.256,121.122l-24.354-14.055c-4.803-2.771-10.942-1.125-13.713,3.677c-2.772,4.802-1.125,10.942,3.677,13.713
			l24.354,14.055c1.581,0.913,3.306,1.345,5.009,1.345c3.471,0,6.846-1.801,8.704-5.023
			C108.706,130.033,107.059,123.893,102.256,121.122z"/>
	</g>
</g>
<g>
	<g>
		<path d="M81.517,164.332l-27.156-7.278c-5.352-1.435-10.86,1.743-12.296,7.099c-1.436,5.355,1.743,10.86,7.098,12.296
			l27.156,7.278c0.87,0.233,1.745,0.344,2.605,0.344c4.432,0,8.489-2.958,9.691-7.443C90.051,171.273,86.872,165.768,81.517,164.332
			z"/>
	</g>
</g>
<g>
	<g>
		<path d="M72.674,211.436h-28.11c-5.545,0-10.039,4.495-10.039,10.039c0,5.545,4.495,10.039,10.039,10.039h28.11
			c5.545,0,10.039-4.495,10.039-10.039C82.713,215.93,78.219,211.436,72.674,211.436z"/>
	</g>
</g>
<g>
	<g>
		<path d="M88.615,266.321c-1.436-5.355-6.94-8.534-12.296-7.098l-27.156,7.278c-5.355,1.436-8.533,6.941-7.098,12.296
			c1.202,4.485,5.259,7.443,9.691,7.443c0.86,0,1.735-0.111,2.605-0.344l27.156-7.278C86.872,277.183,90.051,271.677,88.615,266.321
			z"/>
	</g>
</g>
<g>
	<g>
		<path d="M105.934,308.126c-2.771-4.803-8.909-6.449-13.714-3.677l-24.354,14.055c-4.803,2.771-6.449,8.911-3.677,13.713
			c1.86,3.222,5.234,5.023,8.705,5.023c1.703,0,3.428-0.434,5.009-1.345l24.354-14.055
			C107.059,319.067,108.706,312.927,105.934,308.126z"/>
	</g>
</g>
<g>
	<g>
		<path d="M133.472,344.002c-3.92-3.92-10.277-3.92-14.198,0l-19.888,19.888c-3.92,3.92-3.92,10.277,0,14.198
			c1.961,1.961,4.531,2.94,7.1,2.94s5.139-0.98,7.099-2.94l19.888-19.888C137.393,354.28,137.393,347.923,133.472,344.002z"/>
	</g>
</g>
<g>
	<g>
		<path d="M412.604,363.892l-19.878-19.888c-3.919-3.921-10.275-3.923-14.197-0.003c-3.921,3.919-3.923,10.276-0.003,14.198
			l19.878,19.887c1.961,1.962,4.531,2.943,7.101,2.943c2.568,0,5.137-0.98,7.097-2.938
			C416.522,374.171,416.524,367.814,412.604,363.892z"/>
	</g>
</g>
<g>
	<g>
		<path d="M444.125,318.504l-24.345-14.055c-4.802-2.773-10.941-1.127-13.714,3.674s-1.127,10.942,3.674,13.714l24.345,14.055
			c1.581,0.914,3.307,1.346,5.011,1.346c3.47,0,6.844-1.8,8.703-5.021C450.572,327.416,448.927,321.276,444.125,318.504z"/>
	</g>
</g>
<g>
	<g>
		<path d="M462.828,266.502l-27.156-7.278c-5.353-1.436-10.86,1.742-12.296,7.098c-1.436,5.355,1.743,10.86,7.098,12.296
			l27.156,7.278c0.87,0.234,1.744,0.345,2.605,0.345c4.432,0,8.489-2.958,9.691-7.443
			C471.361,273.443,468.183,267.938,462.828,266.502z"/>
	</g>
</g>
<g>
	<g>
		<path d="M467.436,211.436h-28.11c-5.545,0-10.039,4.495-10.039,10.039c0,5.545,4.495,10.039,10.039,10.039h28.11
			c5.545,0,10.039-4.495,10.039-10.039C477.475,215.93,472.981,211.436,467.436,211.436z"/>
	</g>
</g>
<g>
	<g>
		<path d="M469.925,164.153c-1.436-5.357-6.941-8.533-12.296-7.099l-27.156,7.278c-5.355,1.436-8.533,6.941-7.098,12.296
			c1.202,4.484,5.259,7.443,9.691,7.443c0.86,0,1.735-0.111,2.605-0.344l27.156-7.278
			C468.182,175.014,471.36,169.508,469.925,164.153z"/>
	</g>
</g>
<g>
	<g>
		<path d="M447.799,110.743c-2.773-4.802-8.912-6.447-13.714-3.674l-24.345,14.055c-4.802,2.772-6.447,8.912-3.674,13.714
			c1.859,3.221,5.233,5.021,8.703,5.021c1.703,0,3.429-0.434,5.011-1.346l24.345-14.055
			C448.927,121.684,450.572,115.544,447.799,110.743z"/>
	</g>
</g>
<g>
	<g>
		<path d="M412.603,64.872c-3.92-3.92-10.277-3.92-14.197,0L378.528,84.75c-3.92,3.92-3.92,10.277,0,14.197
			c1.961,1.961,4.53,2.94,7.099,2.94s5.139-0.98,7.099-2.94l19.878-19.878C416.523,75.15,416.523,68.793,412.603,64.872z"/>
	</g>
</g>
<g>
	<g>
		<path d="M366.733,29.677c-4.802-2.773-10.942-1.127-13.714,3.674l-14.055,24.345c-2.773,4.802-1.127,10.942,3.674,13.714
			c1.581,0.913,3.307,1.346,5.011,1.346c3.47,0,6.844-1.8,8.703-5.021l14.055-24.345C373.18,38.589,371.534,32.449,366.733,29.677z"
			/>
	</g>
</g>
<g>
	<g>
		<path d="M256,131.945c-24.538,0-46.799,9.926-62.987,25.968c-0.099,0.091-0.204,0.175-0.3,0.271
			c-0.097,0.097-0.181,0.202-0.273,0.302c-16.044,16.188-25.969,38.449-25.969,62.987c0,49.367,40.163,89.53,89.53,89.53
			c49.367,0,89.53-40.163,89.53-89.53C345.53,172.108,305.367,131.945,256,131.945z M256,290.926
			c-38.296,0-69.451-31.156-69.451-69.451c0-15.534,5.128-29.892,13.778-41.474l21.776,21.782
			c-3.448,5.915-5.295,12.659-5.295,19.691c0,21.611,17.582,39.193,39.193,39.193c21.611,0,39.193-17.582,39.193-39.193
			c0-21.611-17.582-39.193-39.193-39.193c-7.032,0-13.782,1.846-19.701,5.303l-21.775-21.781
			c11.582-8.651,25.941-13.779,41.477-13.779c38.296,0,69.451,31.156,69.451,69.451S294.296,290.926,256,290.926z M236.885,221.475
			c0-5.004,1.907-9.711,5.376-13.292c0.076-0.072,0.153-0.146,0.227-0.22c3.613-3.613,8.412-5.603,13.512-5.603
			c10.54,0,19.115,8.576,19.115,19.115S266.539,240.59,256,240.59S236.885,232.014,236.885,221.475z"/>
	</g>
</g>
<g>
	<g>
		<path d="M288.851,108.925c-12.919,0-12.94,20.078,0,20.078C301.771,129.004,301.792,108.925,288.851,108.925z"/>
	</g>
</g>
<g>
	<g>
		<path d="M368.064,182.421c-8.357-23.981-24.594-45.048-45.722-59.322c-4.596-3.104-10.835-1.895-13.938,2.699
			c-3.105,4.596-1.896,10.836,2.698,13.939c17.565,11.866,31.06,29.372,38.001,49.292c1.444,4.142,5.328,6.738,9.48,6.738
			c1.096,0,2.211-0.181,3.304-0.562C367.122,193.38,369.888,187.656,368.064,182.421z"/>
	</g>
</g>
<g>
	<g>
		<path d="M256,0c-5.545,0-10.039,4.495-10.039,10.039v28.11c0,5.545,4.495,10.039,10.039,10.039
			c5.545,0,10.039-4.495,10.039-10.039v-28.11C266.039,4.495,261.545,0,256,0z"/>
	</g>
</g>
<g>
	<g>
		<path d="M218.252,41.804l-7.278-27.156c-1.436-5.355-6.94-8.534-12.296-7.098c-5.355,1.436-8.533,6.941-7.098,12.296l7.278,27.156
			c1.202,4.484,5.259,7.442,9.691,7.442c0.86,0,1.735-0.111,2.605-0.344C216.509,52.665,219.687,47.159,218.252,41.804z"/>
	</g>
</g>
<g>
	<g>
		<path d="M313.323,7.549c-5.353-1.435-10.86,1.742-12.296,7.098l-7.278,27.156c-1.436,5.355,1.743,10.86,7.098,12.296
			c0.87,0.235,1.745,0.345,2.605,0.345c4.432,0,8.489-2.958,9.691-7.443l7.278-27.156C321.856,14.491,318.678,8.985,313.323,7.549z"
			/>
	</g>
</g>
<g>
</g>
<g>
</g>
<g>
</g>
<g>
</g>
<g>
</g>
<g>
</g>
<g>
</g>
<g>
</g>
<g>
</g>
<g>
</g>
<g>
</g>
<g>
</g>
<g>
</g>
<g>
</g>
<g>
</g>
</svg>
